<svg xmlns="http://www.w3.org/2000/svg" width="600" height="660" xmlns:xlink="http://www.w3.org/1999/xlink">
  <defs>
    <radialGradient id="rg" gradientUnits="userSpaceOnUse" cx="220" cy="220" r="405">
      <stop style="stop-color:#fff;stop-opacity:.3" offset="0" />
      <stop style="stop-color:#fff;stop-opacity:.2" offset="0.2" />
      <stop style="stop-color:#666;stop-opacity:.1" offset="0.6" />
      <stop style="stop-color:#000;stop-opacity:.13" offset="1" />
    </radialGradient>
    <path id="shield" d="m 2 2 v 257 c 0 286 298 398 298 398 c 0 0 298 -112 298 -398 V 2 Z" />
  </defs>
  <use fill="#eeeeee" xlink:href="#shield" />
  <g id="axe" style="fill:#111111;stroke:#333333;stroke-width:1.1;stroke-linejoin:round;stroke-linecap:round;">
    <path fill="#000000"
      d="m 314.78983,608.27874 c 0,4.22623 -29.57974,4.27809 -29.57974,0.0504 v 10.46024 c 0,10.69624 29.57974,10.69624 29.57974,0 v -10.51074 z" />
    <path
      d="m 323.23805,596.57842 c 0,1.72339 0,10.62316 0,15.88891 0,5.28228 -11.62064,7.95173 -23.24123,7.95616 -11.62058,0.003 -23.24126,-2.63189 -23.24123,-7.92313 3e-5,-5.23652 0,-14.39087 0,-15.99188 -3e-5,5.29123 11.62065,7.9411 23.24123,7.93666 11.62059,-0.003 23.24123,-2.5845 23.24123,-7.86672 z" />
    <path
      d="m 323.24119,596.65813 c 0,10.56453 -46.48246,10.59125 -46.4824,0.009 9e-5,-10.5161 46.4824,-10.53997 46.4824,-0.009 z" />
    <path fill="#000000"
      d="m 314.78983,219.51645 c 0,4.22623 -29.57974,4.22758 -29.57974,0 v 377.14168 c 0,4.22568 29.57974,4.22568 29.57974,0 z" />
    <path
      d="m 317.07333,173.80915 c 24.1082,-8.84084 26.21884,-33.91922 31.52191,-57.82178 22.25342,0 -5.06677,116.28747 -31.43008,100.78799 l -0.0919,-42.96621 z" />
    <path
      d="m 323.24119,179.44248 c 0,1.72338 0,35.97724 0,41.24299 0,5.28228 -11.62062,7.95172 -23.24123,7.95616 -11.62058,0.003 -23.24126,-2.63193 -23.24123,-7.92316 3e-5,-5.2365 0,-39.74493 0,-41.34594 -3e-5,5.29123 11.62065,7.9411 23.24123,7.93669 11.62061,-0.003 23.24123,-2.58453 23.24123,-7.86674 z" />
    <path
      d="m 282.9266,173.80915 c -24.10821,-8.84084 -26.21885,-33.91922 -31.52192,-57.82178 -22.25342,0 5.06677,116.28747 31.43009,100.78799 l 0.0919,-42.96621 z" />
    <path
      d="m 323.24113,179.36375 c 0,10.56453 -46.48246,10.59122 -46.4824,0.008 6e-5,-10.51643 46.4824,-10.54029 46.4824,-0.008 z" />
    <path fill="#000000"
      d="m 314.78908,168.77225 c 0,4.22622 -29.56833,4.27101 -29.56833,0.0434 l -0.009,10.49083 c 0,4.22568 29.57973,4.22568 29.57973,0 l -0.003,-10.53427 z" />
    <path fill="#000000"
      d="m 314.78983,168.80833 c 0.002,4.22601 -29.57974,4.25269 -29.57974,0.008 0,-4.24393 29.57766,-4.2349 29.57974,-0.008 z" />
    <path
      d="m 251.38648,121.45598 c -107.73572,-0.1868 -56.65894,180.4787 -0.006,179.27352 l 2.31298,0.30745 c -0.10884,-49.97618 -0.61706,-51.74663 29.14026,-74.42392 l 0.006,-41.49954 c -22.33425,-8.19028 -25.71714,-40.00278 -30.31017,-63.64719 l -1.14307,-0.0107 z" />
    <path
      d="m 294.59769,168.80833 c -5.18864,-18.088 -8.82073,-28.93105 -14.00936,-39.12731 10.37736,-31.401571 12.19339,-62.150462 19.45753,-97.065825 4.92887,30.097934 8.48278,66.967895 21.01417,97.065825 -5.18872,7.99689 -10.37736,23.23868 -15.56605,39.12731 -3.38119,1.48926 -7.60685,1.55216 -10.89629,0 z" />
    <path
      d="m 299.95366,169.94943 c 0.28795,-12.88031 0.6335,-23.90618 -5.70155,-36.16739 9.30101,-25.14151 6.85337,-69.616446 5.78793,-101.167879" />
    <path fill="#222222"
      d="m 251.40505,115.98818 c -119.7081,0 -61.37662,193.79785 2.3006,193.32474 0.002,-3.1271 -0.006,-5.46931 -0.0115,-8.27597 l -2.31299,-0.30745 c -56.65275,1.20518 -107.7295,-179.46032 0.006,-179.27352 l 1.14307,0.0106 c -0.36481,-1.87806 -0.73426,-3.71926 -1.1245,-5.47811 z" />
    <path
      d="m 348.61344,121.45598 c 107.73572,-0.1868 56.65894,180.4787 0.006,179.27352 l -2.31298,0.30745 c 0.10884,-49.97618 0.61706,-51.74663 -29.14026,-74.42392 l -0.006,-41.49954 c 22.33425,-8.19028 25.71714,-40.00278 30.31017,-63.64719 l 1.14307,-0.0107 z" />
    <path fill="#222222"
      d="m 348.59487,115.98818 c 119.7081,0 61.37662,193.79785 -2.3006,193.32474 -0.002,-3.1271 0.006,-5.46931 0.0115,-8.27597 l 2.31299,-0.30745 c 56.65275,1.20518 107.7295,-179.46032 -0.006,-179.27352 l -1.14307,0.0106 c 0.36481,-1.87806 0.73426,-3.71926 1.1245,-5.47811 z" />
  </g>
  <use id="shine" fill="url(#rg)" stroke="#000" stroke-width="3" xlink:href="#shield" />
</svg>