<?xml version="1.0" encoding="UTF-8" standalone="no"?>
<svg
   width="600"
   height="660"
   id="svg2"
   version="1.1"
   xmlns:xlink="http://www.w3.org/1999/xlink"
   xmlns="http://www.w3.org/2000/svg"
   xmlns:svg="http://www.w3.org/2000/svg"
   xmlns:rdf="http://www.w3.org/1999/02/22-rdf-syntax-ns#"
   xmlns:cc="http://creativecommons.org/ns#"
   xmlns:dc="http://purl.org/dc/elements/1.1/">
  <title
     id="title5254">House Polander</title>
  <metadata
     id="metadata24">
    <rdf:RDF>
      <cc:Work
         rdf:about="">
        <dc:format>image/svg+xml</dc:format>
        <dc:type
           rdf:resource="http://purl.org/dc/dcmitype/StillImage" />
        <dc:title>House Polander</dc:title>
      </cc:Work>
    </rdf:RDF>
  </metadata>
  <defs
     id="defs4">
    <radialGradient
       id="rg"
       gradientUnits="userSpaceOnUse"
       cx="220"
       cy="220"
       r="405">
      <stop
         style="stop-color:#fff;stop-opacity:.3"
         offset="0"
         id="stop7" />
      <stop
         style="stop-color:#fff;stop-opacity:.2"
         offset=".2"
         id="stop9" />
      <stop
         style="stop-color:#666;stop-opacity:.1"
         offset=".6"
         id="stop11" />
      <stop
         style="stop-color:#000;stop-opacity:.13"
         offset="1"
         id="stop13" />
    </radialGradient>
    <path
       id="shield"
       d="m2,2v257c0,286 298,398 298,398c0,0 298-112 298-398V2z" />
    <radialGradient
       xlink:href="#rg-7"
       id="radialGradient3055-1"
       gradientUnits="userSpaceOnUse"
       cx="220"
       cy="220"
       r="405" />
    <radialGradient
       id="rg-7"
       gradientUnits="userSpaceOnUse"
       cx="220"
       cy="220"
       r="405">
      <stop
         style="stop-color:#fff;stop-opacity:.3"
         offset="0"
         id="stop7-4" />
      <stop
         style="stop-color:#fff;stop-opacity:.2"
         offset=".2"
         id="stop9-0" />
      <stop
         style="stop-color:#666;stop-opacity:.1"
         offset=".6"
         id="stop11-9" />
      <stop
         style="stop-color:#000;stop-opacity:.13"
         offset="1"
         id="stop13-4" />
    </radialGradient>
    <radialGradient
       r="405"
       cy="220"
       cx="220"
       gradientUnits="userSpaceOnUse"
       id="radialGradient3074"
       xlink:href="#rg-7" />
    <linearGradient
       xlink:href="#linearGradient4719-5"
       id="linearGradient4039"
       gradientUnits="userSpaceOnUse"
       gradientTransform="matrix(2.3257341,0,0,2.2943177,447.69485,-1820.2799)"
       x1="-145.25935"
       y1="984.24286"
       x2="-64.14286"
       y2="984.14789" />
    <linearGradient
       id="linearGradient4719-5">
      <stop
         style="stop-color:#666666;stop-opacity:1;"
         offset="0"
         id="stop4721-5" />
      <stop
         id="stop4809-1"
         offset="0.39344174"
         style="stop-color:#666666;stop-opacity:0.74901961;" />
      <stop
         style="stop-color:#666666;stop-opacity:0;"
         offset="1"
         id="stop4723-7" />
    </linearGradient>
    <radialGradient
       xlink:href="#linearGradient4801-8"
       id="radialGradient4041"
       gradientUnits="userSpaceOnUse"
       gradientTransform="matrix(-0.72153181,1.2650715,-2.2729984,-1.2616144,1712.0113,1733.7841)"
       cx="-307.14288"
       cy="782.36218"
       fx="-307.14288"
       fy="782.36218"
       r="63" />
    <linearGradient
       id="linearGradient4801-8">
      <stop
         style="stop-color:#000000;stop-opacity:1;"
         offset="0"
         id="stop4803-2" />
      <stop
         style="stop-color:#000000;stop-opacity:0;"
         offset="1"
         id="stop4805-4" />
    </linearGradient>
    <linearGradient
       xlink:href="#linearGradient4719-5"
       id="linearGradient4044"
       gradientUnits="userSpaceOnUse"
       gradientTransform="matrix(-2.4055369,0,0,-1.6485021,142.06168,1726.5307)"
       x1="-145.25935"
       y1="984.24286"
       x2="-64.14286"
       y2="984.14789" />
    <radialGradient
       xlink:href="#linearGradient4801-8"
       id="radialGradient4046"
       gradientUnits="userSpaceOnUse"
       gradientTransform="matrix(0.74628962,-0.90897301,2.3509914,0.90648896,-1165.637,-827.11785)"
       cx="-307.14288"
       cy="782.36218"
       fx="-307.14288"
       fy="782.36218"
       r="63" />
    <linearGradient
       xlink:href="#linearGradient4719-5"
       id="linearGradient4049"
       gradientUnits="userSpaceOnUse"
       gradientTransform="matrix(2.334989,0,0,-1.6146975,449.44065,1692.189)"
       x1="-145.25935"
       y1="984.24286"
       x2="-64.14286"
       y2="984.14789" />
    <radialGradient
       xlink:href="#linearGradient4801-8"
       id="radialGradient4051"
       gradientUnits="userSpaceOnUse"
       gradientTransform="matrix(-0.72440295,-0.89033332,-2.2820431,0.88790031,1718.7881,-809.09364)"
       cx="-307.14288"
       cy="782.36218"
       fx="-307.14288"
       fy="782.36218"
       r="63" />
    <linearGradient
       xlink:href="#linearGradient4719-5"
       id="linearGradient4054"
       gradientUnits="userSpaceOnUse"
       gradientTransform="matrix(-2.409599,0,0,2.2818507,139.61083,-1810.8163)"
       x1="-145.25935"
       y1="984.24286"
       x2="-64.14286"
       y2="984.14789" />
    <radialGradient
       xlink:href="#linearGradient4801-8"
       id="radialGradient4056"
       gradientUnits="userSpaceOnUse"
       gradientTransform="matrix(0.74754985,1.2581972,2.3549614,-1.2547588,-1170.296,1723.935)"
       cx="-307.14288"
       cy="782.36218"
       fx="-307.14288"
       fy="782.36218"
       r="63" />
    <radialGradient
       xlink:href="#linearGradient4801-8"
       id="radialGradient4061"
       gradientUnits="userSpaceOnUse"
       gradientTransform="matrix(-0.76516322,1.2901254,-2.4104477,-1.2865998,1806.8444,1757.4704)"
       cx="-307.14288"
       cy="782.36218"
       fx="-307.14288"
       fy="782.36218"
       r="63" />
    <linearGradient
       xlink:href="#grad1-7-7"
       id="linearGradient3085-8-8"
       gradientUnits="userSpaceOnUse"
       gradientTransform="matrix(0.77469594,0,0,0.30982404,152.68996,-13.619206)"
       x1="78.877235"
       y1="178.07356"
       x2="301.40585"
       y2="178.07356" />
    <linearGradient
       id="grad1-7-7"
       x1="78.877235"
       y1="178.07356"
       x2="301.40585"
       y2="178.07356"
       gradientTransform="scale(1.577772,0.63380513)"
       gradientUnits="userSpaceOnUse">
      <stop
         offset="0%"
         style="stop-color:#da0;"
         id="stop16-4-4" />
      <stop
         offset="40%"
         style="stop-color:#fd0;"
         id="stop18-0-0" />
      <stop
         offset="60%"
         style="stop-color:#fd0;"
         id="stop20-9-9" />
      <stop
         offset="100%"
         style="stop-color:#da0;"
         id="stop22-4-4" />
    </linearGradient>
    <linearGradient
       xlink:href="#grad1-7-7"
       id="linearGradient3081-8-8"
       gradientUnits="userSpaceOnUse"
       gradientTransform="matrix(0.77469594,0,0,0.30982404,-27.310046,-13.619206)"
       x1="78.877235"
       y1="178.07356"
       x2="301.40585"
       y2="178.07356" />
    <linearGradient
       id="linearGradient3093"
       x1="78.877235"
       y1="178.07356"
       x2="301.40585"
       y2="178.07356"
       gradientTransform="scale(1.577772,0.63380513)"
       gradientUnits="userSpaceOnUse">
      <stop
         offset="0%"
         style="stop-color:#da0;"
         id="stop3095" />
      <stop
         offset="40%"
         style="stop-color:#fd0;"
         id="stop3097" />
      <stop
         offset="60%"
         style="stop-color:#fd0;"
         id="stop3099" />
      <stop
         offset="100%"
         style="stop-color:#da0;"
         id="stop3101" />
    </linearGradient>
    <linearGradient
       y2="178.07356"
       x2="301.40585"
       y1="178.07356"
       x1="78.877235"
       gradientTransform="matrix(0.77469594,0,0,0.30982404,332.68995,-13.619206)"
       gradientUnits="userSpaceOnUse"
       id="linearGradient3128-1"
       xlink:href="#grad1-7-7" />
    <linearGradient
       id="linearGradient3104"
       x1="78.877235"
       y1="178.07356"
       x2="301.40585"
       y2="178.07356"
       gradientTransform="scale(1.577772,0.63380513)"
       gradientUnits="userSpaceOnUse">
      <stop
         offset="0%"
         style="stop-color:#da0;"
         id="stop3106" />
      <stop
         offset="40%"
         style="stop-color:#fd0;"
         id="stop3108" />
      <stop
         offset="60%"
         style="stop-color:#fd0;"
         id="stop3110" />
      <stop
         offset="100%"
         style="stop-color:#da0;"
         id="stop3112" />
    </linearGradient>
    <clipPath
       clipPathUnits="userSpaceOnUse"
       id="clipPath10110">
      <path
         style="fill:#ffff00;fill-opacity:1;stroke:none"
         id="path10112"
         d="M 598,2 V 259 C 598,545 300,657 300,657 300,657 2,545 2,259 V 2 z" />
    </clipPath>
    <clipPath
       clipPathUnits="userSpaceOnUse"
       id="clipPath4574">
      <path
         style="fill:#000000;fill-opacity:1;stroke:none;display:inline"
         id="path4576"
         d="M 598,2 V 259 C 598,545 300,657 300,657 300,657 2,545 2,259 V 2 z" />
    </clipPath>
  </defs>
  <g
     id="layer2"
     style="display:inline">
    <use
       height="1052.3622"
       width="744.09448"
       y="0"
       x="0"
       xlink:href="#shield"
       id="use22"
       style="fill:#7c08a4;fill-opacity:1"
       transform="matrix(-1,0,0,1,600,0)" />
    <g
       stroke="#000000"
       stroke-width="2.495"
       stroke-linecap="round"
       stroke-linejoin="round"
       id="g5001"
       transform="matrix(1.4641,0,0,1.4641,-23.959284,-74.708849)"
       style="fill:#ffffff">
      <path
         d="m 225,400 117,7 c 1.163,0.07 1.23,0.924 0,1 l -113,7 -1,-7.5 -2,-0.5 z"
         fill="#fcdd09"
         fill-rule="evenodd"
         transform="matrix(1.20214,0,0,1.20221,-47.793,-103.124)"
         id="path4997"
         style="fill:#ffffff" />
      <path
         d="m 228.113,407.5 h 69.518"
         fill="none"
         transform="matrix(1.20214,0,0,1.20221,-47.793,-103.124)"
         id="path4999"
         style="fill:#ffffff" />
      <path
         d="m 199,302 h -44 c -15,0 -15,21 -2,21 h 46 l 1,14 h 9 l 1,-12 150,-5 -1,-6 -3,-1.5 -1,-7.5 -145,-5 -1,-12 h -9 z"
         fill="#fcdd09"
         fill-rule="evenodd"
         stroke="#000000"
         stroke-width="2.495"
         stroke-linecap="round"
         stroke-linejoin="round"
         transform="matrix(0.78032,-0.91451,0.91446,0.78037,-215,249.692)"
         id="path4993"
         style="fill:#ffffff" />
      <path
         d="M 356,312.5 H 210 m 0,-12.5 v 25 m -11,-23 v 21"
         fill="none"
         stroke="#000000"
         stroke-width="2.495"
         stroke-linecap="round"
         stroke-linejoin="round"
         transform="matrix(0.78032,-0.91451,0.91446,0.78037,-215,249.692)"
         id="path4995"
         style="fill:#ffffff" />
    </g>
    <path
       style="fill:#ffffff;fill-opacity:1"
       d="M 598,2 93.125,506.875 c -1.11561,-1.34095 -2.20745,-2.7019 -3.3125,-4.0625 -1.07198,-1.31988 -2.15728,-2.66157 -3.21875,-4 -0.96431,-1.21592 -1.91982,-2.42498 -2.875,-3.65625 -0.0955,-0.12316 -0.1858,-0.25169 -0.28125,-0.375 -0.12196,-0.15757 -0.25319,-0.31093 -0.375,-0.46875 -1.32444,-1.71606 -2.63186,-3.44164 -3.9375,-5.1875 -1.33352,-1.78314 -2.65605,-3.5919 -3.96875,-5.40625 -0.18306,-0.25298 -0.37986,-0.49641 -0.5625,-0.75 -0.15654,-0.21738 -0.31252,-0.43843 -0.46875,-0.65625 -1.01372,-1.41322 -1.99963,-2.84918 -3,-4.28125 -0.761,-1.08941 -1.52827,-2.18091 -2.28125,-3.28125 -0.23623,-0.34525 -0.48333,-0.68492 -0.71875,-1.03125 -0.77553,-1.14074 -1.54589,-2.28505 -2.3125,-3.4375 -0.2072,-0.31153 -0.41847,-0.62511 -0.625,-0.9375 -1.22357,-1.85048 -2.42542,-3.71311 -3.625,-5.59375 -0.70646,-1.10763 -1.39592,-2.22562 -2.09375,-3.34375 -0.94125,-1.50804 -1.88745,-3.03532 -2.8125,-4.5625 -0.5667,-0.93557 -1.12705,-1.86973 -1.6875,-2.8125 -0.35347,-0.59471 -0.71156,-1.18367 -1.0625,-1.78125 -0.17658,-0.30063 -0.35532,-0.60489 -0.53125,-0.90625 -0.72818,-1.24758 -1.43933,-2.52119 -2.15625,-3.78125 -0.59182,-1.03999 -1.19729,-2.07649 -1.78125,-3.125 -0.29368,-0.52741 -0.58334,-1.06418 -0.875,-1.59375 -0.99139,-1.79981 -1.96998,-3.6127 -2.9375,-5.4375 -0.73738,-1.39097 -1.46442,-2.78197 -2.1875,-4.1875 -0.50175,-0.97511 -1.00528,-1.95537 -1.5,-2.9375 -0.32713,-0.64965 -0.64474,-1.31602 -0.96875,-1.96875 -0.81592,-1.64327 -1.64175,-3.30592 -2.4375,-4.96875 -0.53186,-1.11139 -1.03987,-2.2236 -1.5625,-3.34375 -0.25812,-0.55337 -0.52541,-1.10074 -0.78125,-1.65625 -0.41945,-0.91058 -0.83676,-1.83366 -1.25,-2.75 -0.34919,-0.77455 -0.68655,-1.56508 -1.03125,-2.34375 -0.76304,-1.72323 -1.54065,-3.44404 -2.28125,-5.1875 -0.72019,-1.69587 -1.42658,-3.40994 -2.125,-5.125 -0.34302,-0.8422 -0.69358,-1.68441 -1.03125,-2.53125 -0.35918,-0.90098 -0.70945,-1.81251 -1.0625,-2.71875 -0.65411,-1.6788 -1.3048,-3.36562 -1.9375,-5.0625 -0.0309,-0.0829 -0.0629,-0.16709 -0.0937,-0.25 -0.94517,-2.54053 -1.85421,-5.10633 -2.75,-7.6875 -0.35979,-1.03679 -0.71086,-2.08164 -1.0625,-3.125 -0.54786,-1.62557 -1.09726,-3.26468 -1.625,-4.90625 -0.0631,-0.19643 -0.12466,-0.39709 -0.1875,-0.59375 -0.61152,-1.91329 -1.19766,-3.84621 -1.78125,-5.78125 -0.47033,-1.55951 -0.92318,-3.11382 -1.375,-4.6875 -0.0666,-0.23205 -0.15254,-0.45515 -0.21875,-0.6875 -0.0531,-0.18626 -0.10343,-0.37604 -0.15625,-0.5625 -0.47987,-1.69427 -0.94824,-3.41434 -1.40625,-5.125 -0.50928,-1.9021 -1.01829,-3.82758 -1.5,-5.75 -0.14604,-0.58283 -0.29403,-1.1653 -0.4375,-1.75 -0.12256,-0.49956 -0.22307,-0.99907 -0.34375,-1.5 -0.22171,-0.92031 -0.44094,-1.82507 -0.65625,-2.75 -0.15886,-0.68244 -0.31341,-1.37754 -0.46875,-2.0625 -0.16993,-0.74911 -0.36556,-1.49788 -0.53125,-2.25 -0.0981,-0.44534 -0.18466,-0.89735 -0.28125,-1.34375 -0.21589,-0.9976 -0.41663,-1.99711 -0.625,-3 -0.20172,-0.97099 -0.39915,-1.9303 -0.5937502,-2.90625 -0.0948,-0.47553 -0.18812,-0.96079 -0.28125,-1.4375 -0.2955,-1.51321 -0.59681,-3.03739 -0.875,-4.5625 -0.25981,-1.42374 -0.50549,-2.84711 -0.75,-4.28125 -0.0989,-0.58038 -0.18486,-1.16792 -0.28125,-1.75 -0.30268,-1.82766 -0.59753,-3.6555 -0.875,-5.5 -0.0299,-0.1985 -0.0642,-0.39506 -0.0937,-0.59375 -0.0553,-0.3718 -0.10196,-0.75252 -0.15625,-1.125 -0.0409,-0.28057 -0.0847,-0.56279 -0.125,-0.84375 -0.17551,-1.22348 -0.36697,-2.45665 -0.53125,-3.6875 -0.0236,-0.17655 -0.0392,-0.35455 -0.0625,-0.53125 -0.0562,-0.42554 -0.10142,-0.85483 -0.15625,-1.28125 -0.11791,-0.9174 -0.23213,-1.82853 -0.34375,-2.75 -0.18515,-1.52849 -0.3636,-3.08527 -0.53125,-4.625 -0.0464,-0.42607 -0.08,-0.85432 -0.125,-1.28125 -0.0904,-0.85697 -0.19634,-1.70205 -0.28125,-2.5625 -0.20803,-2.108 -0.38772,-4.24609 -0.5625,-6.375 -0.14153,-1.72394 -0.28686,-3.44981 -0.40625,-5.1875 -0.0278,-0.40491 -0.0671,-0.8131 -0.0937,-1.21875 -0.0461,-0.70289 -0.0826,-1.41986 -0.125,-2.125 -0.009,-0.15652 -0.022,-0.31212 -0.0312,-0.46875 -0.0843,-1.42942 -0.14957,-2.84261 -0.21875,-4.28125 -0.0319,-0.66343 -0.0651,-1.3346 -0.0937,-2 -0.0598,-1.38634 -0.11068,-2.76137 -0.15625,-4.15625 -0.0378,-1.15813 -0.0658,-2.33597 -0.0937,-3.5 -0.0249,-1.03788 -0.0455,-2.08243 -0.0625,-3.125 -0.009,-0.58191 -0.0242,-1.16662 -0.0312,-1.75 -0.0199,-1.6305 -0.0316,-3.2643 -0.0316,-4.90625 l 0,-257 L 598,2 z"
       id="background" />
    <g
       class="lion"
       id="g432-0-6-6"
       style="display:inline;fill:#ffcc00;stroke:#cc0000"
       transform="matrix(0.32805,0,0,0.32805,283.3635,-5.1388601)">
      <path
         style="display:inline;fill:#cc0000;stroke:#ffffff;stroke-width:0.239098;stroke-linecap:round;stroke-linejoin:round"
         d="m 280.32156,43.347183 c -7.32729,3.24534 -11.80388,11.79087 -8.66476,21.775149 3.3599,10.718696 16.1856,22.445654 40.62301,25.546161 15.32136,-19.854277 16.48293,-37.465756 11.59558,-47.551198 -4.55603,-9.377192 -13.5619,-12.223285 -20.99884,-9.272401 -5.85981,2.465491 -8.03333,7.161041 -8.93347,10.652495 -3.02226,-1.838123 -7.76479,-3.622065 -13.62152,-1.150206 z"
         id="path3413-6"
         transform="matrix(3.0483158,0,0,3.0483158,-846.87447,15.664868)" />
      <path
         d="m 208.4,467.3 c 0,0 -0.2,2.3 -1,3.4 -1.3,2.1 -3.4,4.7 -5.8,5.5 -3,1.6 -5.9,0.6 -8.7,0.3 -2.1,-1.5 -5.2,-4.8 -5.2,-4.8 0,0 -3.5,5.5 -6.6,6.8 -3,1.4 -7.1,1.5 -10.5,0.5 -3.8,-0.9 -7,-4.1 -8.4,-7.3 -0.8,-2.4 0.1,-6.3 0.1,-6.3 0,0 -4,1.3 -5.9,1 -2.9,0.3 -5.7,-0.6 -7.2,-2.5 -2.6,-3.2 -3.1,-6.1 -2.2,-10.1 0.4,-1.7 3.4,-4.3 3.4,-4.3 0,0 -1.9,-2.6 -2.3,-3.7 -0.8,-2.4 0.6,-5.2 0.6,-5.2 0,-2.3 3.2,-4.7 6.2,-4.5 7.4,-0.3 10.9,4.9 18.7,6.8 15.3,2.4 30,-3.4 41.6,-13 3.7,-3.6 6.7,-7.9 9,-12.9 2.1,-3.7 2.8,-10 2.9,-14.7 -1,-7.6 -5.4,-13.9 -7.4,-22.2 -0.7,-3.6 -1.3,-12.9 -1.3,-12.9 0,0 -5,2.9 -5.9,5.1 -0.8,2.3 -0.3,6.9 -1,9.7 -1,2.3 -2.8,3.6 -5.2,4 -2.4,1.5 -5.3,0 -7.6,1.6 -1.9,0.7 -4.1,4.6 -4.1,4.6 0,0 -0.7,-4.1 0.1,-5.7 1.6,-4 6.5,-5.7 7.4,-9.1 0.3,-3.4 -1.8,-4.8 -2.6,-7.8 -0.8,-2.3 -0.6,-4.1 -0.5,-5.8 1.1,-4 7.5,-8.4 7.5,-8.4 0,0 -1.2,-0.7 -2.2,-1.4 -1.1,-0.7 -4.7,0 -4.7,0 8.3,-11.3 12.1,-13.5 25.6,-10.3 0,0 0.4,-4 1.4,-7.4 0.9,-2.8 1.9,-6.1 4.4,-8.1 1.8,-0.9 4.9,-3 4.9,-3 0,0 2.2,-3.2 3,-4.8 1.5,-3.8 4.1,-6.4 7.8,-7.8 3.8,-2.4 7.2,-2.6 11.9,-2.1 14.6,2.4 28.8,5.1 43.8,0 l 7.9,77.3 c -10.3,-2.4 -21.8,-2.1 -31.3,-4.9 -3.4,-0.9 -9.8,-5.6 -13,-8.5 0,0 0.4,7.6 -1.4,13.3 -2.4,4.3 -6.3,9.7 -4.8,15 1,2.3 3.6,4.5 6.2,7.1 2.1,2.6 3.4,6.2 3.5,9.6 0.3,2.3 -0.1,5.8 -1.9,6.7 -7.5,4.3 -15.4,7.6 -17.7,13 -2.3,9.6 -1.4,17.2 -10.6,22 1.1,-4.6 0.2,-7.6 -1.7,-11.2 -1,8.4 -3.1,11.8 -8.8,16.8 0,-5.1 -0.1,-9.2 -1.3,-13.4 -2.2,9 -4.7,14.5 -13.2,17.6 2.3,-4.4 2.8,-8.4 1,-13.2 -2.7,3.8 -2.2,9 -6.9,9.6 z"
         id="path369-6-6-7" />
      <path
         class="detail"
         d="m 154,448.2 c 1.7,-0.3 3.4,0.3 5.7,0.1 1.7,0.7 3.2,1.6 5.2,1.1 2.2,0.3 6.4,-0.9 6.4,-0.9 -1.4,2.1 -5.6,2.3 -6.6,2.1 -1.8,0.4 -3.4,-0.4 -5.7,-0.7 -1.7,-0.7 -3.4,-1.5 -5.1,-1.2 -0.6,0 -1.8,0.5 -2.4,0.3 -0.5,0.6 -1.1,0.5 -1.1,0.5 l -2.1,-2.5 c 0,0 1.4,1.9 2.8,1 0.6,-0.1 1.8,0.1 2.9,0.2 z m 22.8,7.3 c 0,0 -0.7,1.1 -1.3,1.6 -1.2,0.4 -1.8,1.1 -3.2,1.9 -1.1,0.5 -3.5,0.2 -4.6,0.6 -1.2,0.5 -2.4,1.5 -3.7,1.9 0,0.5 -0.9,1.7 -1,2.8 -0.7,1.1 -0.7,1.6 -0.7,1.6 l -4.6,0.7 c 0,0 3,-1.5 3.7,-2.5 0.1,-0.6 1.3,-1.6 2.1,-3.1 1.1,-0.5 2.4,-1.6 3.6,-2 1.9,-0.9 4.3,-0.7 5.4,-1.1 0.6,-0.5 1.9,-1 2.5,-1.5 z m 19.4,2.4 c -4.1,0 -6.7,2.6 -7.9,4.6 -1.7,2.8 -2,5.6 -0.1,9.4 l -1.3,1 c -1.8,-3.2 -1.4,-7.8 0.2,-10.4 4.2,-6.5 8.5,-4.8 9.1,-4.6 z m 11,5.1 c 1.1,0.8 0.9,2 1.5,2.5 -0.2,1.2 0.2,1.9 0.2,1.9 l -1,0.4 c 0,0 0.1,-1.1 -0.5,-1.8 0.1,-1.1 -0.3,-2.4 -0.8,-3 -0.4,-1.2 -3.7,-3.3 -3.7,-3.3 1.7,0.2 4.4,2.7 4.3,3.3 z"
         id="path371-8-75-2"
         style="fill:#cc0000;stroke:none" />
      <path
         class="detail"
         d="m 218.1,360.2 c 0,0 -2,1.1 -3.2,1.9 -1.3,1.1 -2.6,2.1 -3.8,2.6 -0.7,1.5 -2.2,3.7 -2.3,5.4 -0.7,1.2 -0.3,2.8 -0.5,4 0.4,1.8 0.3,3 0.1,4.7 -0.2,1.6 -1,3.3 -2.9,4.3 -0.6,0.5 -1.8,0.9 -2.4,0.9 -1.1,-0.2 -2.4,-0.3 -2.4,0.3 -1.9,0.9 -2.9,0.7 -3.6,1.9 -0.8,0.5 -0.9,1.7 -1.6,3.2 -0.1,1.2 -0.1,1.8 -0.1,1.8 l -1.4,0.4 c 0,0 0.2,-1.2 1,-2.3 0.2,-1.6 0.9,-3.3 1.5,-3.9 1.3,-1 2.5,-1.4 3.8,-2.3 0.6,0 1.8,0.1 2.3,0.2 1.1,0.1 1.7,0.2 2.4,-0.9 1.2,-0.9 2,-2.1 2.9,-4.2 0.1,-1.3 -0.4,-2.5 -0.2,-4.2 -0.4,-1.2 -0.2,-2.8 -0.1,-4 0.8,-1.6 1.6,-3.9 3,-6 1.4,-1 2.4,-1.5 3.8,-2.4 z"
         id="path373-3-80-7"
         style="fill:#cc0000;stroke:none" />
      <path
         class="secondary"
         d="m 203.9,471.5 c 0.2,-1.8 -3.2,-2.3 -5.5,-2 -1.9,1.1 -5.8,4 -4.2,5.8 3.6,4 3.5,9.3 3,13.8 6.3,-4 8.3,-10.7 6.7,-17.6 z m -40.3,-2.6 c 0.9,-1.5 4.3,-1.1 5.8,0.7 2.2,1.6 3.9,5.7 1.6,6.7 -5,2.3 -6.7,7.3 -8.4,11.7 -3.8,-6.3 -3.1,-13.1 1,-19.1 z m -15.6,-15 c 2,-1 3.5,1.5 3.8,3.9 0.8,2.4 -0.9,6.9 -3.1,6 -5,-1.2 -9.9,1.2 -13.8,3.7 0.9,-7.5 6.1,-12.1 13.1,-13.6 z m 3.8,-16.3 c 1.7,-0.4 3.1,2.7 2.8,4.9 -0.2,2.3 -3.1,6.5 -4.7,5.3 -4.5,-2.8 -9.7,-1.7 -14.3,0.1 2.8,-7.3 9,-10.6 16.2,-10.3 z"
         id="path375-7-2-0"
         style="fill:#ff9900" />
      <path
         d="m 165.4,102.2 c -5.2,-4.08 -14,-2 -18.6,3.9 -1,-4.9 -4.3,-7.48 -7.9,-8.18 -7,-1.9 -16.2,3.88 -13.7,12.88 0.7,2.5 5.6,4.3 5.1,6.8 0,0 -0.4,2.7 -0.5,4 0.1,1.2 0.4,2.9 0.4,2.9 0,0 -5.2,-2.7 -7.2,-2.3 -12.4,2.6 -9.8,21.7 2.4,22.2 2.2,0.1 4.3,0.3 6.7,0.2 3.1,-0.6 7.9,0.8 8.3,2.5 0.3,0.5 0.4,1.6 0.7,2.3 7.8,4.7 7.7,12 1.2,14.9 9.1,2.3 11.3,2.3 19.8,-0.4 l 0.2,0.3 c -1.7,5 -3.8,9.6 -7.8,12.2 7.5,3 16.6,-3.8 22.9,-4.5 0.6,3.4 0.3,6.9 1.6,9.9 1.1,2.7 2.7,5.2 5.5,7.3 1,-5 2.3,-7.8 7.5,-9.6 -3.8,11.2 -3.2,18.2 4.2,27.7 -0.7,-7.8 3.3,-5.6 8.6,-14.3 -2,9.9 -3.3,18.8 5.9,25.9 0.1,-4.5 0.5,-8.6 4.1,-11.6 -0.4,9.6 0.7,17.5 9.2,23.5 -0.1,-5.2 0.3,-9.2 4.9,-12.5 -0.2,9.4 2,16.4 10.3,21.7 -2.4,-7.4 2.8,-7.5 3.3,-15.1 0,0 9,18.6 14,22.9 7.1,6.3 17.5,17.7 17.5,17.7 l 19.2,-48 c -19,-14.4 -24,-29.6 -43.4,-43.4 -31.2,-4.1 -62.5,-23.9 -82.7,-48.6 -0.4,-2.7 -1,-8.6 0.3,-11.4 1,-2.1 2.5,-4.1 1.5,-6.6 -0.8,-2.2 -1.8,-4 -3.5,-5.2 z"
         id="path377-75-0-6" />
      <path
         class="detail"
         d="m 130.5,124.1 c 0,0 3.6,1.8 4.9,2.5 l 8.3,3 c 0,0 -6.4,-0.9 -9,-2 -1.5,-0.8 -4.9,-2.8 -4.9,-2.8 z M 147,106.2 c 0,0 1.6,1.7 2.1,5.3 0.4,4.1 0.7,7.3 3.2,10.7 1.1,1.7 4.6,4.6 4.6,4.6 -3.6,-1.8 -5.8,-4.2 -7.6,-7 -1.5,-2.7 -0.9,-6 -1.5,-8.5 -0.7,-3.7 -1.3,-4.1 -1.3,-4.1 z"
         id="path379-84-5-5"
         style="fill:#cc0000;stroke:none" />
      <path
         class="secondary"
         d="m 121.9,125 c 2,0.3 2.3,3.1 1.6,5.5 -0.8,2.2 -4.3,5.6 -5.8,4 -3.7,-3.8 -9,-3.8 -13.8,-3.2 4.1,-6 11,-8.2 18,-6.3 z m 14.8,-25.98 c 1.8,1.18 0.8,3.98 -1,5.68 -1.6,1.6 -6.1,3.1 -6.8,1.2 -1.7,-5 -6.3,-7.68 -11.1,-8.98 6.6,-3.7 13.5,-2.4 18.9,2.1 z m 28.9,6.68 c 0.2,2.1 -2.8,3.1 -5.1,2.7 -2.5,-0.2 -6.3,-2.9 -5,-4.7 2.7,-4.38 1.8,-9.68 0.4,-14.2 6.6,2.72 9.9,9.12 9.7,16.2 z"
         id="path381-7-2-9"
         style="fill:#ff9900" />
      <path
         id="groin-9-0-3"
         d="m 294.9,317.6 10.3,18 c 0,0 -3.4,10.5 -8.5,13.3 -0.2,-7.5 -6,-16.4 -9.2,-23.4 -1.2,-3.3 4.7,-6.2 7.4,-7.9 z" />
      <path
         d="m 423.1,446.4 c -3.4,-0.7 -5.6,-1.7 -8.6,-1.2 -4.9,-1.5 -10,-2.7 -14,-5.9 -8.3,-5.2 -13.6,-13.9 -17.8,-21.8 -6,-10.6 -8.9,-24.8 -13.7,-35.2 -3.6,-7.7 -7.7,-14 -10.9,-21 -2.7,-4.2 -8.1,-9.3 -8.1,-9.3 0,0 3.8,10.1 4.3,16.1 0.9,7.3 1.3,13.3 1.1,20.2 0.1,7.6 -1.8,16.7 -0.9,23.8 1.8,8 4.9,15.7 9.1,23.6 3.3,4.9 7.6,9.3 12,13.1 3.4,3.7 8.9,8.3 8.9,8.3 1.8,2.2 4.8,2.2 6.9,3.9 7.2,4.3 9.5,10.2 8.3,15.8 -2.7,-4.1 -6.3,-3.7 -10.7,-2.2 9.4,6 12.3,11.4 10.4,23.3 -2.3,-8.2 -10.4,-6.4 -15.5,-9.7 5,10.3 12.7,12.5 13.6,19.2 1.7,2.7 2.1,6.4 -1.3,14.3 -1.1,-3.1 -1.8,-4.9 -3.1,-7 -3.2,-2.4 -7.2,-2.2 -10.8,-7.6 0,0 -0.9,4.1 0.3,6.6 1.9,2.8 2.5,2.8 4.7,5.7 1.7,2.7 3.5,6 4.1,9 0.9,6.7 -2.8,16.5 -2.8,16.5 0,0 -2.3,-3.9 -3.7,-5.4 -2.1,-1.7 -5.7,-0.7 -8.4,-2.3 -2,-1.1 -4.7,-5.3 -4.7,-5.3 0,0 0,3.1 0.2,4.9 -0.2,1.1 -3.1,4 -3.1,4 0,0 6.3,0.1 9,4.3 2.9,2.8 3.2,7 1.3,10.1 -2.7,4.8 -7.8,6.6 -14.1,3.4 -2.4,0.2 -5.6,-1.5 -5.6,-1.5 0,0 0.6,2.9 -0.4,4.6 -0.2,1.7 -1.2,3.2 -2.9,5.2 -2.3,3.1 -6.5,3.3 -9.9,3.2 -3.5,-0.8 -6.8,-1.5 -8.4,-5.2 -1,-0.8 -2.5,-4.7 -2.5,-4.7 0,0 -3.8,4.6 -6.3,4.7 -4.7,0.1 -9,-1.9 -11.2,-4.8 -1.9,-2.8 -2.4,-5.8 -2.4,-8.7 -0.1,-2.5 1.4,-4.3 1.8,-6.1 0,0 -2,-0.9 -3.7,-1.4 -1.6,-1 -2.4,-2.9 -3.6,-5.4 -0.7,-2.5 -0.6,-5.4 0.7,-8.7 2.4,-3.6 5,-4.7 9,-3.9 2.8,-0.1 6.4,2.9 8.2,5.2 3.2,2.4 7.3,2.1 11,1 3.4,0.7 6,-3.4 9,-6.3 5.4,-9.4 6.4,-22.7 6.1,-32.2 -0.1,-11.1 0.3,-24 0.3,-24 0,0 -9.6,-7.3 -14.1,-11.2 -6.2,-7 -18.9,-22.1 -18.9,-22.1 2.9,5.4 4.2,8.6 4.1,11.6 0.5,5.9 -3.1,9.2 -4.8,14.1 -0.5,2.3 -0.2,3.5 0.2,4.8 -4.3,-2.1 -3.9,-3.8 -4.6,-6.2 -1,-3.8 0.4,-7.6 -2,-10.4 -0.4,5.1 -2.6,7.7 -6.9,10.8 0,0 1.6,-4.9 -0.8,-7.8 -2.2,-2.7 -6.1,-4.2 -7.6,-7.5 -3.1,-3 -4.4,-7.4 -1.1,-12.4 0,0 -4.7,-2.8 -5.6,-6.4 -1.6,-4 -0.2,-7.8 1,-11.1 2.6,-4.1 8.1,-10 8.1,-10 0,0 -10.8,-15.7 -14,-26.5 -1.6,-6.1 -2,-12.6 -1.3,-18.9 1.1,-5.2 2.7,-10.1 4.8,-14.3 3.2,-4.1 9.8,-10.4 9.8,-10.4 0,0 -4.9,-13.2 -8.6,-18.1 -3.1,-4.8 -6,-8.3 -9.9,-11.5 -4.5,-3.4 -10.1,-5 -14.9,-7.8 -6.3,-3.6 -10.4,-6.3 -15,-11.9 -3.5,-3.2 -4.3,-4.9 -10,-12.1 -4.2,-5.7 -25.9,-38.3 -17.6,-49.9 3.8,-5.4 14.1,-16.9 17.2,-23.3 5.3,-14.5 22.2,-31 22.2,-31 l 27.7,0.2 c 42.5,5.2 49.3,1.3 49.4,23.7 -6,42.1 -4.1,92.9 7.7,121.1 7.7,18.7 21.2,36.9 28.2,56.5 2.3,5.9 4.8,11 7.7,17.4 2.5,7.1 4.7,15.8 8.1,22.4 4,6.1 7.6,13.8 14,16.9 0,0 6.5,3.1 11.2,3.6 3.9,0.8 8.5,0.5 11.5,-2.3 5.8,-4.7 5.9,-9.3 7.1,-13.7 0.8,-9.6 -6.7,-18.9 -13.1,-28.9 -2.7,-4.1 -5.9,-9.9 -8,-13.7 -15,-29 -30.9,-58.4 -40.5,-89.7 -3,-9.8 -3.9,-19.5 -2.7,-28.9 2.9,-20.7 14.8,-33.4 25.9,-49.9 5.7,-9.7 4.1,-20.9 -7.9,-23.4 6,-5.5 13.8,-6.4 19.6,-3.8 5.3,2.1 8.1,5.7 9.6,9.9 3,9.1 -2.5,21 -8,30.4 4,-0.5 8.1,-1.8 10.8,-3.6 6.7,-6.1 6.5,-16.2 9.6,-25.3 3.4,-10.2 11.4,-17.3 22.3,-18.6 5.4,-0.7 14.5,1.2 18.8,5.6 2.7,2.6 3.4,5.6 3.5,9.6 -0.4,5.8 -3.9,11.2 -4.3,17 0.4,3.4 2.2,7.1 2.2,7.1 -0.2,0.3 -9.2,-0.2 -13.4,-6.9 -1.8,-3.2 -2.5,-10.3 -2.5,-10.3 -1.5,1.9 -2.5,2.8 -2.1,5 -2.1,9.8 1.2,18.2 -7.9,28.6 -4.9,5.8 -13.7,7.3 -24.2,7.8 -5.2,0 -6.7,2.7 -7.1,3.7 17.5,-0.8 30.3,12.3 28.9,24.7 -1.4,11.2 -12.2,18 -23.3,16.5 10,-9.6 7.3,-21.2 -5.2,-25.3 -8.3,-2.6 -15.7,-1.1 -20.5,2.4 -5.4,4.7 -8.4,13.5 -8.4,22.7 0.3,8.2 6,23.6 6,23.6 3.8,-9.7 16.2,-0.3 15.1,-17.4 9.7,12.7 2.6,20.8 -1.4,31 9.9,1.6 14.1,-2.9 16,-12.1 8,15.5 -1.2,21.2 -5.4,33.1 8.2,-0.4 11.2,-2.9 15.3,-9.8 5.4,10.8 -1.8,17.9 -9.4,25.9 6.4,-1.8 14.9,2.9 17.6,11.5 -6.1,-3.1 -8.6,-2.9 -10.9,-2 -2.2,2.3 -4.1,3.9 -3.3,6.8 1.8,7.5 6.1,12.3 9.6,17.5 6.6,8.3 12.2,15.5 11.1,30.6 -0.6,7.7 -0.9,13.8 -9.1,21.4 9.5,-0.3 13.2,4.6 14.8,8.4 -0.1,2.9 -2,6.1 -2.5,8.9 -0.2,1.1 2.3,5.7 2.3,5.7 -3.9,-0.8 -7,-2.6 -7.2,-7.9 -0.6,0.5 -1.5,1.4 -1.6,2 1.6,4.4 3.3,7.7 3.4,11.9 -0.1,3.5 -0.7,6.3 -4.7,9 -3.4,2.2 -7.7,0.2 -13,0.2 -2.5,1.2 -4.2,3.2 -5.7,5.3 -0.9,-4.4 0.5,-6.3 2.9,-8.2 2.4,-3.1 4.5,-2.6 6.8,-5.1 2.2,-1.9 2.6,-4.1 -0.2,-9.5 -2.6,6 -8.1,6.6 -11.8,5.3 -3.7,-2 -5.9,-5.4 -6,-10.7 2.4,2.9 5,4 7.5,3.4 2,-1.5 4.2,-3.2 2.1,-7.3 -0.9,-1.4 -2.9,-2.9 -3.9,-3.7 z"
         id="path384-55-6-6" />
      <path
         class="detail"
         d="m 450,182.5 c 3.4,1 7.2,3.9 8.5,8.6 0.4,0.4 0.2,0.6 0.1,1 -0.1,0.3 -0.2,0.6 0.2,0.8 l -1.2,-0.1 c 0.1,-0.1 0.3,-0.4 0.3,-0.7 0.1,-0.2 -0.3,-0.7 -0.3,-0.7 -1.9,-6.2 -6.5,-8.5 -11.9,-8.8 -5.5,-0.3 -10.3,2.2 -13.1,6.1 -0.3,0.9 -0.7,1.9 -1.2,2.8 -0.6,-0.1 0.3,-2.3 0.1,-3.4 3.6,-3.9 8.3,-6.6 14,-6.5 1.7,0.1 2.9,0.4 4.5,0.9 z m 17.2,-10.4 c 2.1,1 3.4,2.7 5.1,6 1.1,3.2 1.5,6.9 -0.4,10.2 -0.1,-3.1 1.9,-4.6 -0.2,-8.9 -1.2,-3.1 -4.3,-6.5 -6.2,-7.4 z m -9.1,-0.5 c 0,0 1.1,0.3 1.7,0.4 3.4,1 5.9,2.5 6.9,6 1.1,1.9 1.2,4.9 0.8,7.4 0.1,2.7 -1.2,7 -0.1,9.3 l 1.1,8.2 c -1.9,-3.2 -2.3,-7.1 -2.7,-10.5 0.2,-1.8 1.2,-4.3 1,-7.1 0.5,-2.4 0.6,-4.2 -0.7,-6 -1.5,-3.5 -3.8,-5.5 -7.2,-6.5 -3.4,-1 -7.1,-1.1 -10.2,-0.7 l -0.3,-0.8 c 2.6,-0.1 5.7,-0.2 8,0.1 0.5,0 1.1,0.2 1.7,0.2 z m -6.3,3.5 c 2.9,0.4 6,1.8 8.3,4.1 0.8,0.9 1.3,2.9 1.3,4.2 l 0.5,3.5 c -0.5,-1.7 -1.1,-3.3 -1.3,-4.5 -0.2,-1 -0.6,-1.8 -1.5,-2.6 -2.1,-2.5 -6.6,-3.5 -10.2,-3.3 -4.5,-0.2 -9,1.9 -12.5,4.4 l 0.8,-2 c 3.6,-2.5 7.8,-3.9 12.1,-3.9 1.2,0 1.8,0 2.5,0.1 z m -0.8,8.2 1,0.5 c 0,0 -2.6,1.6 -4.2,4.1 -2.1,2.2 -3.4,5.2 -4.3,7.4 -1.8,2.9 -2,6.4 -1.6,10.3 0.4,3.7 0.5,7.6 -1.2,10.7 -0.9,2.3 -2,3.4 -3.7,4.3 -1.4,0.9 -1.8,1.7 -3.5,2.8 -3.7,1.3 -10.3,2.1 -15,3.4 -5.4,1 -10.3,2.1 -13.3,3.5 -2.3,1 -3.7,3.2 -5.6,4.5 -1.9,1.6 -2.5,3.2 -2.5,3.2 0.2,-2 1.6,-3.9 2,-5 0.6,-1.5 2.4,-2.6 4.6,-3.8 3.1,-1.3 9.1,-2.3 15.1,-3.2 4.7,-1.2 10.2,-2.3 12.5,-3.8 2.2,-0.8 3.5,-2 5,-2.8 0.9,-0.9 1.4,-1.7 2.7,-3.6 1.8,-2.9 2.2,-5.4 1.8,-9.1 -0.3,-3.7 -0.9,-8.6 1.2,-11.8 0.8,-2.4 3.1,-6.5 5.3,-8.7 2,-2.2 3.7,-2.9 3.7,-2.9 z m -9.6,-0.9 2.4,0.1 c 0,0 -3.3,1.8 -4.1,3.7 -1.9,1.8 -3.2,3.4 -3.3,5.3 -1.6,2.7 -1.6,6.9 -1.8,10.6 -0.2,3.7 -0.5,7.5 -1.9,10.6 -1.6,4.4 -5.4,5.9 -8.7,8.2 -3.6,1.2 -7.7,1.8 -11.7,2.5 -4.5,0.5 -8.4,1.2 -11.4,2.4 -3.1,1.5 -5.6,4.7 -8,7.2 -1.2,1.4 -1.1,2.7 -1.5,3.7 -1.4,3.6 -1.1,-1.9 1,-4.1 1.8,-2.8 4.3,-7.1 7.9,-8.6 3,-1.4 7.9,-1.3 11.4,-2.1 4.4,-0.4 8.9,-0.5 11.9,-1.7 3.3,-2.2 5.8,-4.1 8.1,-7.9 1.1,-2.8 1.4,-6.5 1.1,-10.4 0.8,-3.6 0.6,-8.9 2.5,-11.9 0.7,-1.9 1.7,-2.6 3.2,-4.6 1.1,-1.9 2.9,-3 2.9,-3 z m 14.6,5 0.5,0.6 c 0,0 -1,0.8 -1.8,3 -2,1.6 -3.6,4 -3.6,5.8 -1.9,2.8 -1.4,6.3 -2.1,9.5 0.4,3.5 0.9,7 -0.3,10.1 -1.3,3 -2.7,6.7 -5.9,8.4 -5.3,3.7 -13.4,3.8 -19.7,5.6 -4.4,1.7 -10.6,3.1 -14.2,6.2 -4.3,2.8 -9.8,8.5 -9.8,8.5 1.4,-3.4 7.3,-8.5 9.2,-10.1 3.8,-3.3 9.9,-4.3 14.6,-5.8 6,-2.2 13.8,-1.7 18.9,-5.2 2.6,-1.7 3.9,-5.1 5.2,-8.1 1.2,-2.9 0.8,-6.5 0.9,-9.9 0.1,-3.4 0.5,-7.3 1.7,-10.6 0.7,-1.8 2.9,-3.9 4.3,-5.8 1.5,-1.8 2.1,-2.2 2.1,-2.2 z m -53.6,-6.8 c 1.2,0.1 2.3,0.6 3.3,1 2.7,1.3 5.9,4 6.5,7 1.1,4.7 0.1,10.6 -2.2,14.7 -6.2,7.4 -12.5,12.3 -16.7,18 -2.7,3.7 -4.3,7.9 -6.6,11.9 0.7,-4.8 4.3,-10.6 5.8,-12.8 4.2,-5.7 10.1,-9.6 15.7,-17.1 2.6,-3.8 3.4,-9.9 2.6,-14.3 -1.3,-2.9 -3.3,-5.4 -5.9,-6.9 -2.3,-0.9 -5.7,-1.1 -8.8,-1.1 -3.1,0 -5.3,0.6 -5.3,0.6 l -0.2,-0.9 c 0,0 2.1,-0.5 5.7,-0.4 1.4,-0.2 3.2,-0.1 5.1,0.1 0,0 0.5,0.2 1,0.2 z m 9.4,36.4 -1.1,1.1 c -4.5,0.3 -8.4,0.8 -10.5,3.4 -0.9,0.5 -2.5,1.3 -3,2.5 0.9,-2.2 1.8,-2.7 2.7,-3.4 2.9,-2.7 7.4,-3.1 11.9,-3.6 z m 6.1,20.1 0.4,0.7 c -6.5,2.2 -11.8,4.5 -15.9,6.8 5.1,-3.1 10.3,-6.9 15.5,-7.5 z m 2.7,7.4 c 3.4,0.3 7.8,2.1 10.1,3.7 7,4.5 10.2,13.3 6.7,20.1 -1.7,4.3 -6.9,8 -14.1,10.7 l -0.3,-0.7 c 7.5,-3.3 11.7,-6.2 13.4,-10.4 3.2,-6.4 -0.2,-14.8 -7.1,-19.2 -7.1,-4.9 -20.2,-5.4 -32.5,2.3 10,-7.9 19.4,-6.7 22,-6.8 0.5,0.1 1.1,0.2 1.8,0.3 z"
         id="path386-4-1-2"
         style="fill:#cc0000;stroke:none" />
      <path
         class="detail"
         d="m 308.4,317.8 c 0,0 0.3,5.4 -0.3,8.3 -0.6,2.2 -1.3,4 -2.8,6 -0.7,0.9 -1.9,2.1 -3,2.8 -1.1,0.9 -2,1.7 -2,1.7 l -0.5,-0.8 c 0,0 0.8,-0.6 1.9,-1.4 1,-0.9 2.3,-2.1 2.9,-2.8 1,-1.2 1.6,-2.3 2.1,-3.8 0.3,-0.9 0.6,-1.9 0.7,-2.7 0.6,-1.4 0.9,-4.6 1,-7.3 z"
         id="path388-8-9-9"
         style="fill:#cc0000;stroke:none" />
      <path
         class="detail"
         d="m 304.6,420.6 c 0,0 1.4,1.4 0.7,3 -0.3,1.2 -1.1,2.1 -1.9,3.2 -0.8,0.4 -3,2.8 -3.8,3.9 l -1.2,3.2 c -0.6,0 -0.6,0 -0.6,-0.6 -0.5,-0.2 -0.5,-0.2 -0.5,-0.2 0,0 0.1,-0.6 0.2,-1.2 0.2,-0.5 1.5,-1.4 2.3,-2.4 0.8,-1 3,-3.5 3.2,-4 0,0 0.7,-0.5 1.4,-0.9 0.1,-0.6 0.3,-1.2 0.3,-1.8 0.9,-0.9 -0.1,-2.2 -0.1,-2.2 z m -3.6,0.5 c 0,0 -0.7,0.4 -1.3,0.3 -0.7,0.2 -1.2,0.2 -1.2,0.2 -1.4,1.4 -2.9,3 -3.1,4 -0.3,1.2 -0.4,1.8 -0.6,2.8 -0.2,0.6 0.5,3.2 0.5,3.2 l -1.5,-1.5 c 0,0 0.2,-0.6 0.4,-1.8 0.2,-1 -0.3,-1.7 0.5,-2.2 0.5,-2.2 1.4,-4.5 3.9,-4.9 z m 7,11.3 c 0,0 0.1,2.9 -0.3,4.7 0.2,1.7 1.1,3.1 1.8,4.4 0.4,1.3 2.2,1.7 2.9,3.6 1,1.3 1.2,2.6 2.1,3.9 -0.1,0.6 -0.3,1.2 -0.3,1.8 0,0 -0.2,0.5 -0.2,0.5 0,0 -0.1,0.5 -0.6,0.4 l 0.3,-1.1 c 0,0 0,0 0,0 0,0 0,0 0,0 0.1,-0.6 0.1,-0.6 -0.4,-1.2 0.3,-1.1 -1,-3.3 -1.4,-4.4 -1.1,-0.8 -3.1,-2.4 -3.8,-4.3 -0.5,-0.8 -1.7,-3.3 -1.4,-5 0.5,-2.3 1.1,-2.1 1.3,-3.3 z m -4.1,5.6 c 0,0 -0.2,1.1 -0.4,1.7 0.4,1.3 0.1,2.3 0.5,3.1 0.4,1.2 2.6,2.2 3.5,3.5 1.4,1.6 3,2.4 3.4,3.2 0.7,2.5 -0.2,4 0,5.8 -0.2,1.2 -1.1,2.2 -2,3.7 -0.2,1.1 -0.4,2.2 -0.4,2.2 l -1,-0.8 c 0,0 0.1,-0.6 0.8,-1.5 0.9,-1.6 1.2,-2.7 1.9,-3.2 -0.1,-2.3 0.2,-4 -0.1,-5.2 -0.5,-0.7 -1.9,-2.2 -3.3,-3.6 -1,-1.5 -3.1,-2.4 -3.4,-3.7 -0.5,-3.1 -0.3,-4.2 0.5,-5.2 z"
         id="path390-0-4-1"
         style="fill:#cc0000;stroke:none" />
      <path
         class="detail"
         d="m 442.7,454 c 0.7,1.9 1.4,3.9 1.8,5.1 0.9,1.9 1.9,5.1 1.4,7.4 0.1,2.2 -0.2,4 -1.7,5.4 -1.8,2.6 -3.4,2.2 -5.2,2.5 -1.3,0.9 -3.6,0.5 -5.6,1.2 -1.7,0.1 -3.6,0.4 -5.1,2.4 -0.8,0.4 -1.6,1.4 -1.2,2.7 -0.7,0.4 -0.9,1 -0.9,1 h -0.5 c 0,0 0.1,-0.6 0.4,-1.8 0.2,-1.2 1,-2.1 1.7,-2.5 1.3,-1 3.5,-2.8 5.1,-2.5 2.2,-1.4 3.8,-1 6.3,-1.7 1.8,-0.3 3,0 3.9,-1.5 1.6,-2 1.9,-3.7 2.3,-5.4 -0.1,-2.3 -1.5,-4.5 -1.6,-6.8 -0.3,-1.8 -1.4,-3.8 -1.6,-5.6 -1.3,-2.6 -4.5,-6.7 -4.5,-6.7 1.9,1.5 4.2,4.8 5,6.8 z"
         id="path392-7-4-6"
         style="fill:#cc0000;stroke:none" />
      <path
         class="detail"
         d="m 333.6,540.5 c 0,0 -0.1,0.6 -0.7,0.4 -0.1,0.6 -0.3,1.1 -0.3,1.1 -1.3,1 -2.4,1.3 -4.3,2 -2.6,0.7 -5,0.8 -6.6,0.4 -1.3,0.4 -2.5,0.7 -3.2,1.1 -0.2,0.6 -0.7,0.5 -0.7,0.5 0,0 0,0 0,0 0,0 0,0 0,0 0,0 0,0 0.1,-0.6 -0.2,1.2 -1.7,-0.3 -0.3,-1.2 0.6,0.1 2.5,-0.7 3.8,-1 1.8,-0.2 4,0.3 5.7,0.6 0,0 2.6,-1.2 3.3,-1.6 0.7,-0.5 3.2,-1.7 3.2,-1.7 z m 25.3,5.8 c -0.2,1.2 -1.3,3.8 -1.2,5.6 1.4,1.5 1.5,3.3 3.1,4.8 l -1.1,2.1 c -1.3,-2 -2,-4.5 -2.7,-6.5 -0.2,-1.7 0.8,-3.8 1.9,-6 z m -11.7,-0.6 c 0,0 -1.3,3.2 -2.8,4.7 -2,1.4 -5.8,2.8 -7.2,4.4 -0.4,1 -0.7,2.8 -0.9,3.9 -0.3,1.1 -0.5,2.2 -0.5,2.2 l -1.1,-0.3 c 0,0 0.3,-1.2 0.5,-2.2 0.2,-1 0.4,-2.8 1.4,-3.8 1.7,-2.6 6.7,-3.8 8.2,-5.4 z"
         id="path394-27-7-1"
         style="fill:#cc0000;stroke:none" />
      <path
         class="secondary"
         d="m 380.6,550.5 c -1.4,-1.7 -4.2,-0.4 -5.8,1.5 -1.5,1.8 -2.5,6.4 -0.4,6.8 5,1.5 8,5.9 10.1,10.1 2.9,-6.6 1.1,-13.5 -3.9,-18.4 z m -39.4,14.2 c -0.4,-2.2 2.4,-3.2 4.8,-3.1 2.4,-0.1 6.6,2.3 5.5,4 -2.3,4.8 -1.1,9.9 0.9,14.3 -6.9,-2.1 -10.8,-8.1 -11.2,-15.2 z m -22.2,-12 c 1.5,-1.5 4,0.2 5.2,2.4 1.4,2 1.5,6.7 -0.6,6.8 -5.1,0.6 -8.8,4.3 -11.4,8.6 -2,-7.1 0.9,-13.6 6.8,-17.8 z m -6.7,-26.3 c 2.1,-0.2 3,2.6 2.7,5.1 -0.2,2.4 -2.8,6.4 -4.7,5 -4.4,-2.5 -9.6,-1.7 -14.2,-0.1 2.7,-6.7 9,-10.2 16.2,-10 z"
         id="path396-4-77-9"
         style="fill:#ff9900" />
      <path
         d="m 234.3,228.4 c -8.5,23.3 -30.1,32.6 -35.9,35.9 -7.3,4.6 -34.6,11.3 -38.7,-0.3 -0.7,-2.3 0,-5.1 -0.4,-8 -0.5,-2.6 -1,-4.9 -3.1,-6.3 -9.3,-5.9 -18.2,3.4 -18.2,12.9 -4,-3 -8,-3.3 -11.2,-1.7 -6.7,3 -10.2,13.2 -2.6,18.9 2,1.4 6.9,-0.3 8,2.1 0,0 1.4,2.3 2.3,3.2 0.7,0.9 2.2,2.5 2.2,2.5 0,0 -5.9,1.1 -7.2,2.5 -8,9.8 6.9,23.3 16.9,16.6 1.7,-1.9 2.5,-3.2 4.4,-4.9 2.2,-2.2 10.3,-4.3 10.3,-4.3 -3.8,7.2 -0.9,9.1 -1.4,11.4 0.1,1.2 -1,3.2 -2.6,4.6 9.5,-1.2 13.7,-4.4 17.6,-13.4 0.9,5.2 1.6,9.2 -0.7,14.3 0,0 7.4,-1.9 10.5,-5.6 3.4,-2.3 8.1,-11.4 8.1,-11.4 2.1,4.3 1.6,7.7 -0.5,12.9 8,-4.5 12.6,-7.8 13.7,-16.8 0.4,-1.7 2.4,-2.7 2.4,-2.7 -0.3,7.1 5.8,5.9 2.6,13.4 9,-5.2 9.9,-6.4 14.9,-19.8 3.3,4.2 3.9,7.5 1.8,12.1 3.8,-1.4 11.9,-6 9.5,-14.8 4.9,1.9 5.8,4.3 6.3,7.4 2.5,-2 5.1,-7.2 1.9,-16.8"
         id="path398-9-38-3" />
      <path
         class="detail"
         d="m 277.5,242.6 c 0,0 0.3,2.9 0.5,4.7 0.3,1.1 0.9,3.2 1.5,4.1 0.5,0.4 0.8,0.9 1.4,1.6 0.4,0.5 1,1 0.9,1.9 v 0 c 0.4,2.2 -0.6,3.8 -2.1,4.9 -1.8,1.2 -4.4,1.8 -6.9,2.4 -2.5,0.5 -4.8,0.7 -6.1,1.2 -3.8,1.2 -8.8,3.8 -11.3,7.4 v 0 c -0.1,0.1 -1.4,2.1 -2.1,3.8 -0.6,1.1 -0.7,2.4 -1,3.6 0,1.3 0,2.2 0,2.2 v 0.6 l -0.6,-0.1 c -1.5,-0.6 -2.7,-1.7 -3.7,-3.1 -0.8,-0.8 -1.4,-1.8 -2,-2.5 l -0.7,-1.6 -0.1,-1.5 0.9,1.3 c 0.6,1.2 1.5,2.6 2.6,3.9 0.8,1 1.7,1.9 2.8,2.3 -0.1,-0.3 0,-0.6 0.1,-1.6 0,-1.3 0.3,-2.8 0.8,-3.8 1,-1.8 2.3,-3.9 2.3,-3.9 v 0 0 c 2.6,-3.8 7.8,-6.6 11.7,-7.8 1.4,-0.5 3.8,-0.8 6.2,-1.3 2.6,-0.5 5,-1.2 6.5,-2.1 1.5,-1.1 2.1,-2.3 1.9,-4.1 v 0 c -0.1,-0.7 -0.3,-1.1 -0.7,-1.6 -0.6,-0.5 -1.1,-1 -1.4,-1.7 -0.9,-1.1 -1.5,-4.1 -1.5,-5.3 z"
         id="path400-5-8-6"
         style="fill:#cc0000;stroke:none" />
      <path
         class="detail"
         d="m 137,287.3 c 0,0 4.8,0.3 6.6,0 l 10.8,-0.9 c 0,0 -7.8,1.6 -11.2,2.1 -2,-0.2 -6.7,-0.4 -6.7,-0.4 z m 1.1,-25.2 c 0,0 2.5,0.9 5.1,4.3 3.2,4 5.6,7.2 10.1,9.4 2.3,1 6.9,1.7 6.9,1.7 -4.1,0.7 -7.5,-0.5 -10.9,-2.5 -2.9,-1.8 -4.9,-5.7 -7,-8 -3.1,-3.4 -4.1,-3.6 -4.1,-3.6 z"
         id="path402-1-9-1"
         style="fill:#cc0000;stroke:none" />
      <path
         class="secondary"
         d="m 129.2,293.7 c 1.8,-1.2 4.1,0.8 5.1,3 1.1,2.2 0.8,6.9 -1.5,6.8 -5.1,0 -9.2,3.2 -12.3,7.1 -1.2,-7.2 2.6,-13.3 8.7,-16.9 z m -3.6,-31 c 2.1,0.3 2.2,3.4 1.4,5.7 -0.7,2.2 -4.2,5.5 -5.7,3.8 -3.6,-3.7 -8.9,-4 -13.8,-3.6 4.3,-6 11.2,-7.8 18.1,-5.9 z M 151.2,250 c 1.6,1.5 0.2,4.2 -1.8,5.7 -1.8,1.5 -6.4,2.5 -6.8,0.3 -1.3,-5 -5.6,-8.2 -10,-10.2 6.8,-2.9 13.6,-0.7 18.6,4.2 z"
         id="path404-6-2-1"
         style="fill:#ff9900" />
      <g
         id="head-3-4-5">
        <path
           class="secondary"
           d="m 260.7,77.72 c 11.6,-3.57 2.8,-18.56 37.6,-23.52 -5.9,5.33 -5.4,6.83 -6,10.34 8.4,-7.3 19.4,-10.75 31.7,-6.87 -11.9,3.45 -15.6,4.89 -18,9.48 9.1,-4.66 18.2,-4.4 32.7,-0.52 -4.4,1.95 -6.9,3.93 -8.4,6.73 32.8,3.68 8.6,41.14 44.5,60.74 -7.1,2.8 -16.3,0.6 -24,-5.4 7.7,6.4 13.9,19.3 11.7,28.5 -3.4,13.4 1.6,17.6 -1.5,29.3 -9.1,34.5 -18,45.5 -7.5,66.6 -26.2,-11.1 -22.2,-23 -24.4,-38.8 -9.5,17.6 -2.4,30.6 9.8,44.6 -19,-1.4 -28.2,-14.7 -35.9,-27.1 -6.9,20.1 4.7,23.8 -6.6,43.7 2.4,-25.5 -13.9,-19.9 -23.3,-43.2 7.3,24.6 -2.9,26.8 2,40.5 -11.9,-6.5 -8.6,-25.3 -19.9,-33.3 -1.2,9.9 0,18.6 2.5,26.7 -13.7,-9.2 -17.7,-9.6 -21.5,-32.3 -6.9,11 -6.9,21.9 -4.6,32.6 -10.7,-9.4 -15.1,-24.7 -9.7,-34 -5.3,-0.5 -9.2,10.4 -9.2,17.5 -23.2,-55.7 41.5,-65.8 45,-102.6 l 12.2,-4.3 5.1,-40.6 z"
           id="path406-80-4-9"
           style="fill:#ff9900" />
        <path
           id="mouth-9-5-6"
           style="fill:#552200"
           d="m 258.4,117.1 c 4.6,3.9 3.2,20.4 0.2,34.4 0,0 11.5,-10.8 14.2,-13.3 2.2,-1.9 3.8,-5 4.4,-8.2 0.6,-3.2 0.2,-7 -1.5,-9.8 -1.7,-2.9 -4.6,-5 -7.7,-5.6 -3.2,-0.8 -9.6,2.5 -9.6,2.5 z" />
        <path
           id="tongue-7-7-8"
           style="fill:#ff5555"
           d="m 219,129.9 c 0,0 -0.6,5.3 1.3,8.1 2.1,3.5 5.5,6.3 9.8,6.4 6.7,0.4 15.7,-6.5 22.5,-7.4 10,-1.7 27.5,4 27.5,4 l -4.3,-13.8 c 0,0 -15.7,-2.9 -24.4,-1.6 -7.4,1.4 -14.7,9.7 -22.1,11.6 -2.2,0.3 -3.5,-0.5 -5.4,-1.5 -2.4,-1.1 -4.9,-5.8 -4.9,-5.8 z" />
        <path
           id="teeth-2-0-9"
           style="fill:#ffffff"
           d="m 253.3,117.2 c -0.4,4 -2,6.3 -0.9,11.3 -4.9,-1.6 -6.7,-4.9 -6.9,-10.9 z m -9.4,-1.5 c -0.8,4 -2.6,6 -1.8,11.3 -4.8,-1.9 -6.4,-5.5 -6.3,-11.3 z m 18,32.1 c -1.3,-3.6 -3.5,-5.3 -3.7,-10.6 -4.5,3 -5.4,6.8 -4,12.3 z" />
        <path
           id="face-5-8-6"
           d="m 324.7,118.1 c 7,-3.7 14.2,-14.9 10.4,-26.67 -2.6,-8.1 -12.9,-9.18 -23,-2.79 -4.7,-10.68 -34.4,-15.45 -51.4,-10.92 -4.1,1.28 -7.2,3.14 -7.6,7.09 -6.4,2.32 -19.6,3.25 -23.9,7.66 -2.5,2.67 -0.2,7.53 1.6,8.63 -3.8,4.4 -0.8,17 4.8,15.2 6.7,7.3 22.7,3.7 25.9,2.4 0,0 5.4,-1.4 7.8,-0.1 2.5,1.1 4.2,3.9 4.9,6.8 0.6,3.3 -3.5,11.7 -5.6,14.4 -2.1,2.5 -3.8,7.3 -7,7.4 -3.8,0 -3.7,-0.2 -9.4,-2 -3,-0.9 -8.9,-1.5 -11.2,0.5 -0.8,1 -0.8,3.1 -1.1,4 -1.2,3.3 -3,3.7 -3.8,6.3 -2,7.2 1.4,9.3 -3.6,11.5 6.9,2 13.9,-2.4 15.6,-6.8 0.3,1.1 1,2.5 0.3,5.1 5,0.5 5,-4.5 7.3,-7.1 -0.1,1.6 0.3,3.1 1.8,5.1 2,-2.4 3.5,-5.8 6.5,-7.2 13.5,1.8 11.6,-13.4 12.3,-18 3.5,4.9 9.3,7.3 15.8,7.5 6.8,0.2 8.1,-3.8 15.6,-1.2 1.2,-1.9 1.4,-3.9 0.3,-6.5 2.5,0.9 4.9,1.3 7.5,0.2 0.8,-2.3 0.2,-4.3 -0.5,-6.5 2.2,0.2 4.1,1.1 6.3,-0.3 -0.4,-2 0.4,-3.1 -1.3,-6.2 2.2,0.8 4.1,-0.1 6.4,-0.9 -0.5,-2.2 1.2,-3.2 -1.7,-6.6 z" />
        <path
           style="fill:#552200;stroke:none"
           d="m 237.3,118.2 4.9,1.1 c -8.2,-4.2 -8.2,-15.7 -6.3,-17.7 l -1,0.4 c -1.9,1.4 -1.4,12.4 2.4,16.2 z"
           id="path412-1-4-3" />
        <path
           class="detail"
           d="m 331.6,92.32 c -1.1,-2.32 -3.3,-2.94 -5,-3.23 -1.8,-0.34 -3.6,-0.11 -5.4,0.58 -4.2,1.41 -8.4,4.31 -12.5,12.03 l -0.8,1.6 1.4,-0.7 c 1.8,-0.7 3.6,-1.5 5.1,-1.7 -0.8,1.8 -1.5,3.5 -1.4,5.5 l 0.1,0.8 0.8,-0.3 c 1.2,-0.6 2.3,-1.1 3.8,-1.3 -0.9,1.6 -1.8,3.2 -1.9,5.2 v 0.7 l 0.6,-0.2 c 1.3,-0.1 2,-0.4 3.6,-0.5 -0.5,1.7 -0.7,2.7 0.3,3 0,-1.1 0.4,-2.3 1,-3.5 l 0.3,-1 -0.8,0.1 c -2.4,0.1 -2.7,0.4 -3.6,0.7 0.4,-1.6 1.2,-3.4 2,-5.2 l 0.4,-0.8 h -0.8 c -2,0 -3.2,0.5 -4.4,1.3 0.1,-1.7 0.7,-3.2 1.4,-4.9 l 0.3,-0.84 -0.6,-0.11 c -1.6,-0.24 -3.2,0.34 -4.9,1.15 3.7,-6.26 7.3,-8.81 10.9,-9.97 2.2,-0.7 6.9,-1.26 10.1,1.59 z m -19.3,-3.21 -0.5,-0.94 c -1.9,1.16 -3.5,2.43 -5,3.6 -1.7,1.63 -2.5,3.37 -3,5.34 1.8,-2.56 4.3,-5.34 8.5,-8 z m -46.8,18.79 c -0.2,-4.3 -2.7,-8.01 -6.4,-9.4 2.9,2.2 5.1,5.6 5.2,9.4 0,2.9 -1.2,6.5 -3.7,8.6 3.6,-1.4 4.9,-5.3 4.9,-8.6 z"
           id="path414-3-5-6"
           style="fill:#cc0000;stroke:none" />
        <path
           style="fill:#552200;stroke:none"
           d="m 249.4,111.2 c -0.8,0 -1.4,0.5 -1.4,1.3 0,0.7 0.6,1.3 1.4,1.3 0.6,0 1.5,-0.6 1.5,-1.3 0,-0.8 -0.9,-1.3 -1.5,-1.3 z m 5.3,-0.4 c -0.7,0 -1.4,0.5 -1.4,1.3 0,0.7 0.7,1.4 1.4,1.4 0.7,0 1.3,-0.7 1.3,-1.4 0,-0.8 -0.6,-1.3 -1.3,-1.3 z m 3.6,-1.6 c -0.6,0 -1.4,0.6 -1.4,1.5 0,0.6 0.8,1.3 1.4,1.3 0.9,0 1.4,-0.7 1.4,-1.3 0,-0.9 -0.5,-1.5 -1.4,-1.5 z m -9,-2.6 c -0.8,0 -1.3,0.6 -1.3,1.3 0,0.8 0.5,1.4 1.3,1.4 0.7,0 1.3,-0.6 1.3,-1.4 0,-0.7 -0.6,-1.3 -1.3,-1.3 z m 5.1,-0.5 c -0.9,0 -1.4,0.5 -1.4,1.3 0,0.7 0.5,1.3 1.4,1.3 0.8,0 1.4,-0.6 1.4,-1.3 0,-0.8 -0.6,-1.3 -1.4,-1.3 z m 4.3,-2.4 c -0.8,0 -1.4,0.6 -1.4,1.3 0,0.9 0.6,1.5 1.4,1.5 0.6,0 1.4,-0.6 1.4,-1.5 0,-0.7 -0.8,-1.3 -1.4,-1.3 z M 229.1,92.58 c -1.5,2.67 -0.6,5.69 1.2,8.02 0.9,0.7 1.3,1 2.2,0.8 0,0 0.5,2 0.8,2.7 0.6,1.5 1.5,2.4 1.5,2.4 0,0 0.6,-2.2 1,-3.2 0.5,-1.1 1.1,-1.8 2.4,-2.2 1.4,-0.9 3.5,0.1 4.7,-1 0.8,-0.55 1.8,-3.33 1.8,-3.33 0,0 -2.4,0 -5,-0.59 -1.9,-0.34 -6,1.86 -6,1.86 -2.2,-1.4 -4.2,-2.67 -4.6,-5.46 z"
           id="path416-94-4-3" />
        <g
           id="eye-1-0-3">
          <path
             class="detail"
             d="m 258.7,90.34 c -1.4,-0.38 -1.3,-0.94 -1.3,-0.94 l -0.3,-0.92 1,0.27 v 0 0 c 0,0 3.5,1.07 9,0.55 2.3,-0.24 5.3,-1.75 8,-2.26 1.3,-0.2 2.8,-0.32 3.8,0.52 1.2,0.81 2,2.15 2.4,4.32 -1.2,-0.14 -1.5,-1.94 -3,-3.16 -0.7,-0.52 -1.6,-0.51 -2.8,-0.27 -2.4,0.48 -5.4,1.96 -8.2,2.27 -5.2,0.47 -7.3,0.1 -8.6,-0.38 z"
             id="path418-1-7-5"
             style="fill:#cc0000;stroke:none" />
          <path
             style="fill:#ffffff"
             d="m 262.5,93.62 c 0.5,2.03 4.4,4.91 7.8,4.2 3.5,-0.67 5.3,-4.8 4.8,-6.91 -0.6,-2.06 -3.3,-1.05 -6.8,-0.29 -3.4,0.72 -6.3,0.87 -5.8,3 z"
             id="path420-56-4-6" />
          <path
             style="fill:#552200;stroke:none"
             d="m 264.4,94.53 a 3.006,2.752 63.05 0 0 3.2,2.71 3.006,2.752 63.05 0 0 2.4,-3.28 3.006,2.752 63.05 0 0 -3.3,-2.62 3.006,2.752 63.05 0 0 -2.3,3.19 z"
             id="path422-1-5-3" />
          <path
             style="fill:#000000;stroke:none"
             d="m 266.7,93.05 c 0.7,0 1.6,0.42 1.6,1.27 0.2,0.86 -0.3,1.49 -1.2,1.55 -0.8,0.12 -1.5,-0.47 -1.6,-1.23 -0.1,-0.82 0.5,-1.51 1.2,-1.59 z"
             id="path424-48-5-0" />
          <path
             style="fill:#ffffff;stroke:none"
             d="m 265.9,92.74 c 0.5,-0.1 1.1,0.3 1.2,0.9 0.1,0.61 -0.4,1.05 -0.9,1.1 -0.5,0.1 -1,-0.32 -1.1,-0.9 0,-0.61 0.4,-1.08 0.8,-1.1 z"
             id="path426-6-8-2" />
        </g>
        <path
           style="fill:#ff9900;stroke:none"
           d="m 316.8,78.84 -4.7,9.8 c -9,16.46 -7.7,23.76 12.6,29.46 12.7,1.6 10.9,23.6 9.5,26.4 -15,27.6 -55.7,11.5 -58.5,-7.7 23.1,-12.9 3.6,-24.1 -4.8,-25.5 14.6,0.2 43.8,-28.06 25.4,-28.48 -23.8,-0.54 -9.8,-7.32 -33.8,-4.84 4.7,-5.09 6.5,-4.34 9.1,-5.34 l 9,-2.78"
           id="path429-7-2-7" />
      </g>
    </g>
    <g
       class="lion"
       id="g432-0-6-1"
       style="display:inline;fill:#ffcc00;stroke:#cc0000"
       transform="matrix(0.32805,0,0,0.32805,39.587998,-5.1388601)">
      <path
         style="display:inline;fill:#cc0000;stroke:#ffffff;stroke-width:0.239098;stroke-linecap:round;stroke-linejoin:round"
         d="m 280.32156,43.347183 c -7.32729,3.24534 -11.80388,11.79087 -8.66476,21.775149 3.3599,10.718696 16.1856,22.445654 40.62301,25.546161 15.32136,-19.854277 16.48293,-37.465756 11.59558,-47.551198 -4.55603,-9.377192 -13.5619,-12.223285 -20.99884,-9.272401 -5.85981,2.465491 -8.03333,7.161041 -8.93347,10.652495 -3.02226,-1.838123 -7.76479,-3.622065 -13.62152,-1.150206 z"
         id="path3413-4"
         transform="matrix(3.0483158,0,0,3.0483158,-846.87447,15.664868)" />
      <path
         d="m 208.4,467.3 c 0,0 -0.2,2.3 -1,3.4 -1.3,2.1 -3.4,4.7 -5.8,5.5 -3,1.6 -5.9,0.6 -8.7,0.3 -2.1,-1.5 -5.2,-4.8 -5.2,-4.8 0,0 -3.5,5.5 -6.6,6.8 -3,1.4 -7.1,1.5 -10.5,0.5 -3.8,-0.9 -7,-4.1 -8.4,-7.3 -0.8,-2.4 0.1,-6.3 0.1,-6.3 0,0 -4,1.3 -5.9,1 -2.9,0.3 -5.7,-0.6 -7.2,-2.5 -2.6,-3.2 -3.1,-6.1 -2.2,-10.1 0.4,-1.7 3.4,-4.3 3.4,-4.3 0,0 -1.9,-2.6 -2.3,-3.7 -0.8,-2.4 0.6,-5.2 0.6,-5.2 0,-2.3 3.2,-4.7 6.2,-4.5 7.4,-0.3 10.9,4.9 18.7,6.8 15.3,2.4 30,-3.4 41.6,-13 3.7,-3.6 6.7,-7.9 9,-12.9 2.1,-3.7 2.8,-10 2.9,-14.7 -1,-7.6 -5.4,-13.9 -7.4,-22.2 -0.7,-3.6 -1.3,-12.9 -1.3,-12.9 0,0 -5,2.9 -5.9,5.1 -0.8,2.3 -0.3,6.9 -1,9.7 -1,2.3 -2.8,3.6 -5.2,4 -2.4,1.5 -5.3,0 -7.6,1.6 -1.9,0.7 -4.1,4.6 -4.1,4.6 0,0 -0.7,-4.1 0.1,-5.7 1.6,-4 6.5,-5.7 7.4,-9.1 0.3,-3.4 -1.8,-4.8 -2.6,-7.8 -0.8,-2.3 -0.6,-4.1 -0.5,-5.8 1.1,-4 7.5,-8.4 7.5,-8.4 0,0 -1.2,-0.7 -2.2,-1.4 -1.1,-0.7 -4.7,0 -4.7,0 8.3,-11.3 12.1,-13.5 25.6,-10.3 0,0 0.4,-4 1.4,-7.4 0.9,-2.8 1.9,-6.1 4.4,-8.1 1.8,-0.9 4.9,-3 4.9,-3 0,0 2.2,-3.2 3,-4.8 1.5,-3.8 4.1,-6.4 7.8,-7.8 3.8,-2.4 7.2,-2.6 11.9,-2.1 14.6,2.4 28.8,5.1 43.8,0 l 7.9,77.3 c -10.3,-2.4 -21.8,-2.1 -31.3,-4.9 -3.4,-0.9 -9.8,-5.6 -13,-8.5 0,0 0.4,7.6 -1.4,13.3 -2.4,4.3 -6.3,9.7 -4.8,15 1,2.3 3.6,4.5 6.2,7.1 2.1,2.6 3.4,6.2 3.5,9.6 0.3,2.3 -0.1,5.8 -1.9,6.7 -7.5,4.3 -15.4,7.6 -17.7,13 -2.3,9.6 -1.4,17.2 -10.6,22 1.1,-4.6 0.2,-7.6 -1.7,-11.2 -1,8.4 -3.1,11.8 -8.8,16.8 0,-5.1 -0.1,-9.2 -1.3,-13.4 -2.2,9 -4.7,14.5 -13.2,17.6 2.3,-4.4 2.8,-8.4 1,-13.2 -2.7,3.8 -2.2,9 -6.9,9.6 z"
         id="path369-6-6-8" />
      <path
         class="detail"
         d="m 154,448.2 c 1.7,-0.3 3.4,0.3 5.7,0.1 1.7,0.7 3.2,1.6 5.2,1.1 2.2,0.3 6.4,-0.9 6.4,-0.9 -1.4,2.1 -5.6,2.3 -6.6,2.1 -1.8,0.4 -3.4,-0.4 -5.7,-0.7 -1.7,-0.7 -3.4,-1.5 -5.1,-1.2 -0.6,0 -1.8,0.5 -2.4,0.3 -0.5,0.6 -1.1,0.5 -1.1,0.5 l -2.1,-2.5 c 0,0 1.4,1.9 2.8,1 0.6,-0.1 1.8,0.1 2.9,0.2 z m 22.8,7.3 c 0,0 -0.7,1.1 -1.3,1.6 -1.2,0.4 -1.8,1.1 -3.2,1.9 -1.1,0.5 -3.5,0.2 -4.6,0.6 -1.2,0.5 -2.4,1.5 -3.7,1.9 0,0.5 -0.9,1.7 -1,2.8 -0.7,1.1 -0.7,1.6 -0.7,1.6 l -4.6,0.7 c 0,0 3,-1.5 3.7,-2.5 0.1,-0.6 1.3,-1.6 2.1,-3.1 1.1,-0.5 2.4,-1.6 3.6,-2 1.9,-0.9 4.3,-0.7 5.4,-1.1 0.6,-0.5 1.9,-1 2.5,-1.5 z m 19.4,2.4 c -4.1,0 -6.7,2.6 -7.9,4.6 -1.7,2.8 -2,5.6 -0.1,9.4 l -1.3,1 c -1.8,-3.2 -1.4,-7.8 0.2,-10.4 4.2,-6.5 8.5,-4.8 9.1,-4.6 z m 11,5.1 c 1.1,0.8 0.9,2 1.5,2.5 -0.2,1.2 0.2,1.9 0.2,1.9 l -1,0.4 c 0,0 0.1,-1.1 -0.5,-1.8 0.1,-1.1 -0.3,-2.4 -0.8,-3 -0.4,-1.2 -3.7,-3.3 -3.7,-3.3 1.7,0.2 4.4,2.7 4.3,3.3 z"
         id="path371-8-75-1"
         style="fill:#cc0000;stroke:none" />
      <path
         class="detail"
         d="m 218.1,360.2 c 0,0 -2,1.1 -3.2,1.9 -1.3,1.1 -2.6,2.1 -3.8,2.6 -0.7,1.5 -2.2,3.7 -2.3,5.4 -0.7,1.2 -0.3,2.8 -0.5,4 0.4,1.8 0.3,3 0.1,4.7 -0.2,1.6 -1,3.3 -2.9,4.3 -0.6,0.5 -1.8,0.9 -2.4,0.9 -1.1,-0.2 -2.4,-0.3 -2.4,0.3 -1.9,0.9 -2.9,0.7 -3.6,1.9 -0.8,0.5 -0.9,1.7 -1.6,3.2 -0.1,1.2 -0.1,1.8 -0.1,1.8 l -1.4,0.4 c 0,0 0.2,-1.2 1,-2.3 0.2,-1.6 0.9,-3.3 1.5,-3.9 1.3,-1 2.5,-1.4 3.8,-2.3 0.6,0 1.8,0.1 2.3,0.2 1.1,0.1 1.7,0.2 2.4,-0.9 1.2,-0.9 2,-2.1 2.9,-4.2 0.1,-1.3 -0.4,-2.5 -0.2,-4.2 -0.4,-1.2 -0.2,-2.8 -0.1,-4 0.8,-1.6 1.6,-3.9 3,-6 1.4,-1 2.4,-1.5 3.8,-2.4 z"
         id="path373-3-80-0"
         style="fill:#cc0000;stroke:none" />
      <path
         class="secondary"
         d="m 203.9,471.5 c 0.2,-1.8 -3.2,-2.3 -5.5,-2 -1.9,1.1 -5.8,4 -4.2,5.8 3.6,4 3.5,9.3 3,13.8 6.3,-4 8.3,-10.7 6.7,-17.6 z m -40.3,-2.6 c 0.9,-1.5 4.3,-1.1 5.8,0.7 2.2,1.6 3.9,5.7 1.6,6.7 -5,2.3 -6.7,7.3 -8.4,11.7 -3.8,-6.3 -3.1,-13.1 1,-19.1 z m -15.6,-15 c 2,-1 3.5,1.5 3.8,3.9 0.8,2.4 -0.9,6.9 -3.1,6 -5,-1.2 -9.9,1.2 -13.8,3.7 0.9,-7.5 6.1,-12.1 13.1,-13.6 z m 3.8,-16.3 c 1.7,-0.4 3.1,2.7 2.8,4.9 -0.2,2.3 -3.1,6.5 -4.7,5.3 -4.5,-2.8 -9.7,-1.7 -14.3,0.1 2.8,-7.3 9,-10.6 16.2,-10.3 z"
         id="path375-7-2-9"
         style="fill:#ff9900" />
      <path
         d="m 165.4,102.2 c -5.2,-4.08 -14,-2 -18.6,3.9 -1,-4.9 -4.3,-7.48 -7.9,-8.18 -7,-1.9 -16.2,3.88 -13.7,12.88 0.7,2.5 5.6,4.3 5.1,6.8 0,0 -0.4,2.7 -0.5,4 0.1,1.2 0.4,2.9 0.4,2.9 0,0 -5.2,-2.7 -7.2,-2.3 -12.4,2.6 -9.8,21.7 2.4,22.2 2.2,0.1 4.3,0.3 6.7,0.2 3.1,-0.6 7.9,0.8 8.3,2.5 0.3,0.5 0.4,1.6 0.7,2.3 7.8,4.7 7.7,12 1.2,14.9 9.1,2.3 11.3,2.3 19.8,-0.4 l 0.2,0.3 c -1.7,5 -3.8,9.6 -7.8,12.2 7.5,3 16.6,-3.8 22.9,-4.5 0.6,3.4 0.3,6.9 1.6,9.9 1.1,2.7 2.7,5.2 5.5,7.3 1,-5 2.3,-7.8 7.5,-9.6 -3.8,11.2 -3.2,18.2 4.2,27.7 -0.7,-7.8 3.3,-5.6 8.6,-14.3 -2,9.9 -3.3,18.8 5.9,25.9 0.1,-4.5 0.5,-8.6 4.1,-11.6 -0.4,9.6 0.7,17.5 9.2,23.5 -0.1,-5.2 0.3,-9.2 4.9,-12.5 -0.2,9.4 2,16.4 10.3,21.7 -2.4,-7.4 2.8,-7.5 3.3,-15.1 0,0 9,18.6 14,22.9 7.1,6.3 17.5,17.7 17.5,17.7 l 19.2,-48 c -19,-14.4 -24,-29.6 -43.4,-43.4 -31.2,-4.1 -62.5,-23.9 -82.7,-48.6 -0.4,-2.7 -1,-8.6 0.3,-11.4 1,-2.1 2.5,-4.1 1.5,-6.6 -0.8,-2.2 -1.8,-4 -3.5,-5.2 z"
         id="path377-75-0-9" />
      <path
         class="detail"
         d="m 130.5,124.1 c 0,0 3.6,1.8 4.9,2.5 l 8.3,3 c 0,0 -6.4,-0.9 -9,-2 -1.5,-0.8 -4.9,-2.8 -4.9,-2.8 z M 147,106.2 c 0,0 1.6,1.7 2.1,5.3 0.4,4.1 0.7,7.3 3.2,10.7 1.1,1.7 4.6,4.6 4.6,4.6 -3.6,-1.8 -5.8,-4.2 -7.6,-7 -1.5,-2.7 -0.9,-6 -1.5,-8.5 -0.7,-3.7 -1.3,-4.1 -1.3,-4.1 z"
         id="path379-84-5-2"
         style="fill:#cc0000;stroke:none" />
      <path
         class="secondary"
         d="m 121.9,125 c 2,0.3 2.3,3.1 1.6,5.5 -0.8,2.2 -4.3,5.6 -5.8,4 -3.7,-3.8 -9,-3.8 -13.8,-3.2 4.1,-6 11,-8.2 18,-6.3 z m 14.8,-25.98 c 1.8,1.18 0.8,3.98 -1,5.68 -1.6,1.6 -6.1,3.1 -6.8,1.2 -1.7,-5 -6.3,-7.68 -11.1,-8.98 6.6,-3.7 13.5,-2.4 18.9,2.1 z m 28.9,6.68 c 0.2,2.1 -2.8,3.1 -5.1,2.7 -2.5,-0.2 -6.3,-2.9 -5,-4.7 2.7,-4.38 1.8,-9.68 0.4,-14.2 6.6,2.72 9.9,9.12 9.7,16.2 z"
         id="path381-7-2-98"
         style="fill:#ff9900" />
      <path
         id="groin-9-0-8"
         d="m 294.9,317.6 10.3,18 c 0,0 -3.4,10.5 -8.5,13.3 -0.2,-7.5 -6,-16.4 -9.2,-23.4 -1.2,-3.3 4.7,-6.2 7.4,-7.9 z" />
      <path
         d="m 423.1,446.4 c -3.4,-0.7 -5.6,-1.7 -8.6,-1.2 -4.9,-1.5 -10,-2.7 -14,-5.9 -8.3,-5.2 -13.6,-13.9 -17.8,-21.8 -6,-10.6 -8.9,-24.8 -13.7,-35.2 -3.6,-7.7 -7.7,-14 -10.9,-21 -2.7,-4.2 -8.1,-9.3 -8.1,-9.3 0,0 3.8,10.1 4.3,16.1 0.9,7.3 1.3,13.3 1.1,20.2 0.1,7.6 -1.8,16.7 -0.9,23.8 1.8,8 4.9,15.7 9.1,23.6 3.3,4.9 7.6,9.3 12,13.1 3.4,3.7 8.9,8.3 8.9,8.3 1.8,2.2 4.8,2.2 6.9,3.9 7.2,4.3 9.5,10.2 8.3,15.8 -2.7,-4.1 -6.3,-3.7 -10.7,-2.2 9.4,6 12.3,11.4 10.4,23.3 -2.3,-8.2 -10.4,-6.4 -15.5,-9.7 5,10.3 12.7,12.5 13.6,19.2 1.7,2.7 2.1,6.4 -1.3,14.3 -1.1,-3.1 -1.8,-4.9 -3.1,-7 -3.2,-2.4 -7.2,-2.2 -10.8,-7.6 0,0 -0.9,4.1 0.3,6.6 1.9,2.8 2.5,2.8 4.7,5.7 1.7,2.7 3.5,6 4.1,9 0.9,6.7 -2.8,16.5 -2.8,16.5 0,0 -2.3,-3.9 -3.7,-5.4 -2.1,-1.7 -5.7,-0.7 -8.4,-2.3 -2,-1.1 -4.7,-5.3 -4.7,-5.3 0,0 0,3.1 0.2,4.9 -0.2,1.1 -3.1,4 -3.1,4 0,0 6.3,0.1 9,4.3 2.9,2.8 3.2,7 1.3,10.1 -2.7,4.8 -7.8,6.6 -14.1,3.4 -2.4,0.2 -5.6,-1.5 -5.6,-1.5 0,0 0.6,2.9 -0.4,4.6 -0.2,1.7 -1.2,3.2 -2.9,5.2 -2.3,3.1 -6.5,3.3 -9.9,3.2 -3.5,-0.8 -6.8,-1.5 -8.4,-5.2 -1,-0.8 -2.5,-4.7 -2.5,-4.7 0,0 -3.8,4.6 -6.3,4.7 -4.7,0.1 -9,-1.9 -11.2,-4.8 -1.9,-2.8 -2.4,-5.8 -2.4,-8.7 -0.1,-2.5 1.4,-4.3 1.8,-6.1 0,0 -2,-0.9 -3.7,-1.4 -1.6,-1 -2.4,-2.9 -3.6,-5.4 -0.7,-2.5 -0.6,-5.4 0.7,-8.7 2.4,-3.6 5,-4.7 9,-3.9 2.8,-0.1 6.4,2.9 8.2,5.2 3.2,2.4 7.3,2.1 11,1 3.4,0.7 6,-3.4 9,-6.3 5.4,-9.4 6.4,-22.7 6.1,-32.2 -0.1,-11.1 0.3,-24 0.3,-24 0,0 -9.6,-7.3 -14.1,-11.2 -6.2,-7 -18.9,-22.1 -18.9,-22.1 2.9,5.4 4.2,8.6 4.1,11.6 0.5,5.9 -3.1,9.2 -4.8,14.1 -0.5,2.3 -0.2,3.5 0.2,4.8 -4.3,-2.1 -3.9,-3.8 -4.6,-6.2 -1,-3.8 0.4,-7.6 -2,-10.4 -0.4,5.1 -2.6,7.7 -6.9,10.8 0,0 1.6,-4.9 -0.8,-7.8 -2.2,-2.7 -6.1,-4.2 -7.6,-7.5 -3.1,-3 -4.4,-7.4 -1.1,-12.4 0,0 -4.7,-2.8 -5.6,-6.4 -1.6,-4 -0.2,-7.8 1,-11.1 2.6,-4.1 8.1,-10 8.1,-10 0,0 -10.8,-15.7 -14,-26.5 -1.6,-6.1 -2,-12.6 -1.3,-18.9 1.1,-5.2 2.7,-10.1 4.8,-14.3 3.2,-4.1 9.8,-10.4 9.8,-10.4 0,0 -4.9,-13.2 -8.6,-18.1 -3.1,-4.8 -6,-8.3 -9.9,-11.5 -4.5,-3.4 -10.1,-5 -14.9,-7.8 -6.3,-3.6 -10.4,-6.3 -15,-11.9 -3.5,-3.2 -4.3,-4.9 -10,-12.1 -4.2,-5.7 -25.9,-38.3 -17.6,-49.9 3.8,-5.4 14.1,-16.9 17.2,-23.3 5.3,-14.5 22.2,-31 22.2,-31 l 27.7,0.2 c 42.5,5.2 49.3,1.3 49.4,23.7 -6,42.1 -4.1,92.9 7.7,121.1 7.7,18.7 21.2,36.9 28.2,56.5 2.3,5.9 4.8,11 7.7,17.4 2.5,7.1 4.7,15.8 8.1,22.4 4,6.1 7.6,13.8 14,16.9 0,0 6.5,3.1 11.2,3.6 3.9,0.8 8.5,0.5 11.5,-2.3 5.8,-4.7 5.9,-9.3 7.1,-13.7 0.8,-9.6 -6.7,-18.9 -13.1,-28.9 -2.7,-4.1 -5.9,-9.9 -8,-13.7 -15,-29 -30.9,-58.4 -40.5,-89.7 -3,-9.8 -3.9,-19.5 -2.7,-28.9 2.9,-20.7 14.8,-33.4 25.9,-49.9 5.7,-9.7 4.1,-20.9 -7.9,-23.4 6,-5.5 13.8,-6.4 19.6,-3.8 5.3,2.1 8.1,5.7 9.6,9.9 3,9.1 -2.5,21 -8,30.4 4,-0.5 8.1,-1.8 10.8,-3.6 6.7,-6.1 6.5,-16.2 9.6,-25.3 3.4,-10.2 11.4,-17.3 22.3,-18.6 5.4,-0.7 14.5,1.2 18.8,5.6 2.7,2.6 3.4,5.6 3.5,9.6 -0.4,5.8 -3.9,11.2 -4.3,17 0.4,3.4 2.2,7.1 2.2,7.1 -0.2,0.3 -9.2,-0.2 -13.4,-6.9 -1.8,-3.2 -2.5,-10.3 -2.5,-10.3 -1.5,1.9 -2.5,2.8 -2.1,5 -2.1,9.8 1.2,18.2 -7.9,28.6 -4.9,5.8 -13.7,7.3 -24.2,7.8 -5.2,0 -6.7,2.7 -7.1,3.7 17.5,-0.8 30.3,12.3 28.9,24.7 -1.4,11.2 -12.2,18 -23.3,16.5 10,-9.6 7.3,-21.2 -5.2,-25.3 -8.3,-2.6 -15.7,-1.1 -20.5,2.4 -5.4,4.7 -8.4,13.5 -8.4,22.7 0.3,8.2 6,23.6 6,23.6 3.8,-9.7 16.2,-0.3 15.1,-17.4 9.7,12.7 2.6,20.8 -1.4,31 9.9,1.6 14.1,-2.9 16,-12.1 8,15.5 -1.2,21.2 -5.4,33.1 8.2,-0.4 11.2,-2.9 15.3,-9.8 5.4,10.8 -1.8,17.9 -9.4,25.9 6.4,-1.8 14.9,2.9 17.6,11.5 -6.1,-3.1 -8.6,-2.9 -10.9,-2 -2.2,2.3 -4.1,3.9 -3.3,6.8 1.8,7.5 6.1,12.3 9.6,17.5 6.6,8.3 12.2,15.5 11.1,30.6 -0.6,7.7 -0.9,13.8 -9.1,21.4 9.5,-0.3 13.2,4.6 14.8,8.4 -0.1,2.9 -2,6.1 -2.5,8.9 -0.2,1.1 2.3,5.7 2.3,5.7 -3.9,-0.8 -7,-2.6 -7.2,-7.9 -0.6,0.5 -1.5,1.4 -1.6,2 1.6,4.4 3.3,7.7 3.4,11.9 -0.1,3.5 -0.7,6.3 -4.7,9 -3.4,2.2 -7.7,0.2 -13,0.2 -2.5,1.2 -4.2,3.2 -5.7,5.3 -0.9,-4.4 0.5,-6.3 2.9,-8.2 2.4,-3.1 4.5,-2.6 6.8,-5.1 2.2,-1.9 2.6,-4.1 -0.2,-9.5 -2.6,6 -8.1,6.6 -11.8,5.3 -3.7,-2 -5.9,-5.4 -6,-10.7 2.4,2.9 5,4 7.5,3.4 2,-1.5 4.2,-3.2 2.1,-7.3 -0.9,-1.4 -2.9,-2.9 -3.9,-3.7 z"
         id="path384-55-6-3" />
      <path
         class="detail"
         d="m 450,182.5 c 3.4,1 7.2,3.9 8.5,8.6 0.4,0.4 0.2,0.6 0.1,1 -0.1,0.3 -0.2,0.6 0.2,0.8 l -1.2,-0.1 c 0.1,-0.1 0.3,-0.4 0.3,-0.7 0.1,-0.2 -0.3,-0.7 -0.3,-0.7 -1.9,-6.2 -6.5,-8.5 -11.9,-8.8 -5.5,-0.3 -10.3,2.2 -13.1,6.1 -0.3,0.9 -0.7,1.9 -1.2,2.8 -0.6,-0.1 0.3,-2.3 0.1,-3.4 3.6,-3.9 8.3,-6.6 14,-6.5 1.7,0.1 2.9,0.4 4.5,0.9 z m 17.2,-10.4 c 2.1,1 3.4,2.7 5.1,6 1.1,3.2 1.5,6.9 -0.4,10.2 -0.1,-3.1 1.9,-4.6 -0.2,-8.9 -1.2,-3.1 -4.3,-6.5 -6.2,-7.4 z m -9.1,-0.5 c 0,0 1.1,0.3 1.7,0.4 3.4,1 5.9,2.5 6.9,6 1.1,1.9 1.2,4.9 0.8,7.4 0.1,2.7 -1.2,7 -0.1,9.3 l 1.1,8.2 c -1.9,-3.2 -2.3,-7.1 -2.7,-10.5 0.2,-1.8 1.2,-4.3 1,-7.1 0.5,-2.4 0.6,-4.2 -0.7,-6 -1.5,-3.5 -3.8,-5.5 -7.2,-6.5 -3.4,-1 -7.1,-1.1 -10.2,-0.7 l -0.3,-0.8 c 2.6,-0.1 5.7,-0.2 8,0.1 0.5,0 1.1,0.2 1.7,0.2 z m -6.3,3.5 c 2.9,0.4 6,1.8 8.3,4.1 0.8,0.9 1.3,2.9 1.3,4.2 l 0.5,3.5 c -0.5,-1.7 -1.1,-3.3 -1.3,-4.5 -0.2,-1 -0.6,-1.8 -1.5,-2.6 -2.1,-2.5 -6.6,-3.5 -10.2,-3.3 -4.5,-0.2 -9,1.9 -12.5,4.4 l 0.8,-2 c 3.6,-2.5 7.8,-3.9 12.1,-3.9 1.2,0 1.8,0 2.5,0.1 z m -0.8,8.2 1,0.5 c 0,0 -2.6,1.6 -4.2,4.1 -2.1,2.2 -3.4,5.2 -4.3,7.4 -1.8,2.9 -2,6.4 -1.6,10.3 0.4,3.7 0.5,7.6 -1.2,10.7 -0.9,2.3 -2,3.4 -3.7,4.3 -1.4,0.9 -1.8,1.7 -3.5,2.8 -3.7,1.3 -10.3,2.1 -15,3.4 -5.4,1 -10.3,2.1 -13.3,3.5 -2.3,1 -3.7,3.2 -5.6,4.5 -1.9,1.6 -2.5,3.2 -2.5,3.2 0.2,-2 1.6,-3.9 2,-5 0.6,-1.5 2.4,-2.6 4.6,-3.8 3.1,-1.3 9.1,-2.3 15.1,-3.2 4.7,-1.2 10.2,-2.3 12.5,-3.8 2.2,-0.8 3.5,-2 5,-2.8 0.9,-0.9 1.4,-1.7 2.7,-3.6 1.8,-2.9 2.2,-5.4 1.8,-9.1 -0.3,-3.7 -0.9,-8.6 1.2,-11.8 0.8,-2.4 3.1,-6.5 5.3,-8.7 2,-2.2 3.7,-2.9 3.7,-2.9 z m -9.6,-0.9 2.4,0.1 c 0,0 -3.3,1.8 -4.1,3.7 -1.9,1.8 -3.2,3.4 -3.3,5.3 -1.6,2.7 -1.6,6.9 -1.8,10.6 -0.2,3.7 -0.5,7.5 -1.9,10.6 -1.6,4.4 -5.4,5.9 -8.7,8.2 -3.6,1.2 -7.7,1.8 -11.7,2.5 -4.5,0.5 -8.4,1.2 -11.4,2.4 -3.1,1.5 -5.6,4.7 -8,7.2 -1.2,1.4 -1.1,2.7 -1.5,3.7 -1.4,3.6 -1.1,-1.9 1,-4.1 1.8,-2.8 4.3,-7.1 7.9,-8.6 3,-1.4 7.9,-1.3 11.4,-2.1 4.4,-0.4 8.9,-0.5 11.9,-1.7 3.3,-2.2 5.8,-4.1 8.1,-7.9 1.1,-2.8 1.4,-6.5 1.1,-10.4 0.8,-3.6 0.6,-8.9 2.5,-11.9 0.7,-1.9 1.7,-2.6 3.2,-4.6 1.1,-1.9 2.9,-3 2.9,-3 z m 14.6,5 0.5,0.6 c 0,0 -1,0.8 -1.8,3 -2,1.6 -3.6,4 -3.6,5.8 -1.9,2.8 -1.4,6.3 -2.1,9.5 0.4,3.5 0.9,7 -0.3,10.1 -1.3,3 -2.7,6.7 -5.9,8.4 -5.3,3.7 -13.4,3.8 -19.7,5.6 -4.4,1.7 -10.6,3.1 -14.2,6.2 -4.3,2.8 -9.8,8.5 -9.8,8.5 1.4,-3.4 7.3,-8.5 9.2,-10.1 3.8,-3.3 9.9,-4.3 14.6,-5.8 6,-2.2 13.8,-1.7 18.9,-5.2 2.6,-1.7 3.9,-5.1 5.2,-8.1 1.2,-2.9 0.8,-6.5 0.9,-9.9 0.1,-3.4 0.5,-7.3 1.7,-10.6 0.7,-1.8 2.9,-3.9 4.3,-5.8 1.5,-1.8 2.1,-2.2 2.1,-2.2 z m -53.6,-6.8 c 1.2,0.1 2.3,0.6 3.3,1 2.7,1.3 5.9,4 6.5,7 1.1,4.7 0.1,10.6 -2.2,14.7 -6.2,7.4 -12.5,12.3 -16.7,18 -2.7,3.7 -4.3,7.9 -6.6,11.9 0.7,-4.8 4.3,-10.6 5.8,-12.8 4.2,-5.7 10.1,-9.6 15.7,-17.1 2.6,-3.8 3.4,-9.9 2.6,-14.3 -1.3,-2.9 -3.3,-5.4 -5.9,-6.9 -2.3,-0.9 -5.7,-1.1 -8.8,-1.1 -3.1,0 -5.3,0.6 -5.3,0.6 l -0.2,-0.9 c 0,0 2.1,-0.5 5.7,-0.4 1.4,-0.2 3.2,-0.1 5.1,0.1 0,0 0.5,0.2 1,0.2 z m 9.4,36.4 -1.1,1.1 c -4.5,0.3 -8.4,0.8 -10.5,3.4 -0.9,0.5 -2.5,1.3 -3,2.5 0.9,-2.2 1.8,-2.7 2.7,-3.4 2.9,-2.7 7.4,-3.1 11.9,-3.6 z m 6.1,20.1 0.4,0.7 c -6.5,2.2 -11.8,4.5 -15.9,6.8 5.1,-3.1 10.3,-6.9 15.5,-7.5 z m 2.7,7.4 c 3.4,0.3 7.8,2.1 10.1,3.7 7,4.5 10.2,13.3 6.7,20.1 -1.7,4.3 -6.9,8 -14.1,10.7 l -0.3,-0.7 c 7.5,-3.3 11.7,-6.2 13.4,-10.4 3.2,-6.4 -0.2,-14.8 -7.1,-19.2 -7.1,-4.9 -20.2,-5.4 -32.5,2.3 10,-7.9 19.4,-6.7 22,-6.8 0.5,0.1 1.1,0.2 1.8,0.3 z"
         id="path386-4-1-3"
         style="fill:#cc0000;stroke:none" />
      <path
         class="detail"
         d="m 308.4,317.8 c 0,0 0.3,5.4 -0.3,8.3 -0.6,2.2 -1.3,4 -2.8,6 -0.7,0.9 -1.9,2.1 -3,2.8 -1.1,0.9 -2,1.7 -2,1.7 l -0.5,-0.8 c 0,0 0.8,-0.6 1.9,-1.4 1,-0.9 2.3,-2.1 2.9,-2.8 1,-1.2 1.6,-2.3 2.1,-3.8 0.3,-0.9 0.6,-1.9 0.7,-2.7 0.6,-1.4 0.9,-4.6 1,-7.3 z"
         id="path388-8-9-1"
         style="fill:#cc0000;stroke:none" />
      <path
         class="detail"
         d="m 304.6,420.6 c 0,0 1.4,1.4 0.7,3 -0.3,1.2 -1.1,2.1 -1.9,3.2 -0.8,0.4 -3,2.8 -3.8,3.9 l -1.2,3.2 c -0.6,0 -0.6,0 -0.6,-0.6 -0.5,-0.2 -0.5,-0.2 -0.5,-0.2 0,0 0.1,-0.6 0.2,-1.2 0.2,-0.5 1.5,-1.4 2.3,-2.4 0.8,-1 3,-3.5 3.2,-4 0,0 0.7,-0.5 1.4,-0.9 0.1,-0.6 0.3,-1.2 0.3,-1.8 0.9,-0.9 -0.1,-2.2 -0.1,-2.2 z m -3.6,0.5 c 0,0 -0.7,0.4 -1.3,0.3 -0.7,0.2 -1.2,0.2 -1.2,0.2 -1.4,1.4 -2.9,3 -3.1,4 -0.3,1.2 -0.4,1.8 -0.6,2.8 -0.2,0.6 0.5,3.2 0.5,3.2 l -1.5,-1.5 c 0,0 0.2,-0.6 0.4,-1.8 0.2,-1 -0.3,-1.7 0.5,-2.2 0.5,-2.2 1.4,-4.5 3.9,-4.9 z m 7,11.3 c 0,0 0.1,2.9 -0.3,4.7 0.2,1.7 1.1,3.1 1.8,4.4 0.4,1.3 2.2,1.7 2.9,3.6 1,1.3 1.2,2.6 2.1,3.9 -0.1,0.6 -0.3,1.2 -0.3,1.8 0,0 -0.2,0.5 -0.2,0.5 0,0 -0.1,0.5 -0.6,0.4 l 0.3,-1.1 c 0,0 0,0 0,0 0,0 0,0 0,0 0.1,-0.6 0.1,-0.6 -0.4,-1.2 0.3,-1.1 -1,-3.3 -1.4,-4.4 -1.1,-0.8 -3.1,-2.4 -3.8,-4.3 -0.5,-0.8 -1.7,-3.3 -1.4,-5 0.5,-2.3 1.1,-2.1 1.3,-3.3 z m -4.1,5.6 c 0,0 -0.2,1.1 -0.4,1.7 0.4,1.3 0.1,2.3 0.5,3.1 0.4,1.2 2.6,2.2 3.5,3.5 1.4,1.6 3,2.4 3.4,3.2 0.7,2.5 -0.2,4 0,5.8 -0.2,1.2 -1.1,2.2 -2,3.7 -0.2,1.1 -0.4,2.2 -0.4,2.2 l -1,-0.8 c 0,0 0.1,-0.6 0.8,-1.5 0.9,-1.6 1.2,-2.7 1.9,-3.2 -0.1,-2.3 0.2,-4 -0.1,-5.2 -0.5,-0.7 -1.9,-2.2 -3.3,-3.6 -1,-1.5 -3.1,-2.4 -3.4,-3.7 -0.5,-3.1 -0.3,-4.2 0.5,-5.2 z"
         id="path390-0-4-9"
         style="fill:#cc0000;stroke:none" />
      <path
         class="detail"
         d="m 442.7,454 c 0.7,1.9 1.4,3.9 1.8,5.1 0.9,1.9 1.9,5.1 1.4,7.4 0.1,2.2 -0.2,4 -1.7,5.4 -1.8,2.6 -3.4,2.2 -5.2,2.5 -1.3,0.9 -3.6,0.5 -5.6,1.2 -1.7,0.1 -3.6,0.4 -5.1,2.4 -0.8,0.4 -1.6,1.4 -1.2,2.7 -0.7,0.4 -0.9,1 -0.9,1 h -0.5 c 0,0 0.1,-0.6 0.4,-1.8 0.2,-1.2 1,-2.1 1.7,-2.5 1.3,-1 3.5,-2.8 5.1,-2.5 2.2,-1.4 3.8,-1 6.3,-1.7 1.8,-0.3 3,0 3.9,-1.5 1.6,-2 1.9,-3.7 2.3,-5.4 -0.1,-2.3 -1.5,-4.5 -1.6,-6.8 -0.3,-1.8 -1.4,-3.8 -1.6,-5.6 -1.3,-2.6 -4.5,-6.7 -4.5,-6.7 1.9,1.5 4.2,4.8 5,6.8 z"
         id="path392-7-4-4"
         style="fill:#cc0000;stroke:none" />
      <path
         class="detail"
         d="m 333.6,540.5 c 0,0 -0.1,0.6 -0.7,0.4 -0.1,0.6 -0.3,1.1 -0.3,1.1 -1.3,1 -2.4,1.3 -4.3,2 -2.6,0.7 -5,0.8 -6.6,0.4 -1.3,0.4 -2.5,0.7 -3.2,1.1 -0.2,0.6 -0.7,0.5 -0.7,0.5 0,0 0,0 0,0 0,0 0,0 0,0 0,0 0,0 0.1,-0.6 -0.2,1.2 -1.7,-0.3 -0.3,-1.2 0.6,0.1 2.5,-0.7 3.8,-1 1.8,-0.2 4,0.3 5.7,0.6 0,0 2.6,-1.2 3.3,-1.6 0.7,-0.5 3.2,-1.7 3.2,-1.7 z m 25.3,5.8 c -0.2,1.2 -1.3,3.8 -1.2,5.6 1.4,1.5 1.5,3.3 3.1,4.8 l -1.1,2.1 c -1.3,-2 -2,-4.5 -2.7,-6.5 -0.2,-1.7 0.8,-3.8 1.9,-6 z m -11.7,-0.6 c 0,0 -1.3,3.2 -2.8,4.7 -2,1.4 -5.8,2.8 -7.2,4.4 -0.4,1 -0.7,2.8 -0.9,3.9 -0.3,1.1 -0.5,2.2 -0.5,2.2 l -1.1,-0.3 c 0,0 0.3,-1.2 0.5,-2.2 0.2,-1 0.4,-2.8 1.4,-3.8 1.7,-2.6 6.7,-3.8 8.2,-5.4 z"
         id="path394-27-7-6"
         style="fill:#cc0000;stroke:none" />
      <path
         class="secondary"
         d="m 380.6,550.5 c -1.4,-1.7 -4.2,-0.4 -5.8,1.5 -1.5,1.8 -2.5,6.4 -0.4,6.8 5,1.5 8,5.9 10.1,10.1 2.9,-6.6 1.1,-13.5 -3.9,-18.4 z m -39.4,14.2 c -0.4,-2.2 2.4,-3.2 4.8,-3.1 2.4,-0.1 6.6,2.3 5.5,4 -2.3,4.8 -1.1,9.9 0.9,14.3 -6.9,-2.1 -10.8,-8.1 -11.2,-15.2 z m -22.2,-12 c 1.5,-1.5 4,0.2 5.2,2.4 1.4,2 1.5,6.7 -0.6,6.8 -5.1,0.6 -8.8,4.3 -11.4,8.6 -2,-7.1 0.9,-13.6 6.8,-17.8 z m -6.7,-26.3 c 2.1,-0.2 3,2.6 2.7,5.1 -0.2,2.4 -2.8,6.4 -4.7,5 -4.4,-2.5 -9.6,-1.7 -14.2,-0.1 2.7,-6.7 9,-10.2 16.2,-10 z"
         id="path396-4-77-1"
         style="fill:#ff9900" />
      <path
         d="m 234.3,228.4 c -8.5,23.3 -30.1,32.6 -35.9,35.9 -7.3,4.6 -34.6,11.3 -38.7,-0.3 -0.7,-2.3 0,-5.1 -0.4,-8 -0.5,-2.6 -1,-4.9 -3.1,-6.3 -9.3,-5.9 -18.2,3.4 -18.2,12.9 -4,-3 -8,-3.3 -11.2,-1.7 -6.7,3 -10.2,13.2 -2.6,18.9 2,1.4 6.9,-0.3 8,2.1 0,0 1.4,2.3 2.3,3.2 0.7,0.9 2.2,2.5 2.2,2.5 0,0 -5.9,1.1 -7.2,2.5 -8,9.8 6.9,23.3 16.9,16.6 1.7,-1.9 2.5,-3.2 4.4,-4.9 2.2,-2.2 10.3,-4.3 10.3,-4.3 -3.8,7.2 -0.9,9.1 -1.4,11.4 0.1,1.2 -1,3.2 -2.6,4.6 9.5,-1.2 13.7,-4.4 17.6,-13.4 0.9,5.2 1.6,9.2 -0.7,14.3 0,0 7.4,-1.9 10.5,-5.6 3.4,-2.3 8.1,-11.4 8.1,-11.4 2.1,4.3 1.6,7.7 -0.5,12.9 8,-4.5 12.6,-7.8 13.7,-16.8 0.4,-1.7 2.4,-2.7 2.4,-2.7 -0.3,7.1 5.8,5.9 2.6,13.4 9,-5.2 9.9,-6.4 14.9,-19.8 3.3,4.2 3.9,7.5 1.8,12.1 3.8,-1.4 11.9,-6 9.5,-14.8 4.9,1.9 5.8,4.3 6.3,7.4 2.5,-2 5.1,-7.2 1.9,-16.8"
         id="path398-9-38-7" />
      <path
         class="detail"
         d="m 277.5,242.6 c 0,0 0.3,2.9 0.5,4.7 0.3,1.1 0.9,3.2 1.5,4.1 0.5,0.4 0.8,0.9 1.4,1.6 0.4,0.5 1,1 0.9,1.9 v 0 c 0.4,2.2 -0.6,3.8 -2.1,4.9 -1.8,1.2 -4.4,1.8 -6.9,2.4 -2.5,0.5 -4.8,0.7 -6.1,1.2 -3.8,1.2 -8.8,3.8 -11.3,7.4 v 0 c -0.1,0.1 -1.4,2.1 -2.1,3.8 -0.6,1.1 -0.7,2.4 -1,3.6 0,1.3 0,2.2 0,2.2 v 0.6 l -0.6,-0.1 c -1.5,-0.6 -2.7,-1.7 -3.7,-3.1 -0.8,-0.8 -1.4,-1.8 -2,-2.5 l -0.7,-1.6 -0.1,-1.5 0.9,1.3 c 0.6,1.2 1.5,2.6 2.6,3.9 0.8,1 1.7,1.9 2.8,2.3 -0.1,-0.3 0,-0.6 0.1,-1.6 0,-1.3 0.3,-2.8 0.8,-3.8 1,-1.8 2.3,-3.9 2.3,-3.9 v 0 0 c 2.6,-3.8 7.8,-6.6 11.7,-7.8 1.4,-0.5 3.8,-0.8 6.2,-1.3 2.6,-0.5 5,-1.2 6.5,-2.1 1.5,-1.1 2.1,-2.3 1.9,-4.1 v 0 c -0.1,-0.7 -0.3,-1.1 -0.7,-1.6 -0.6,-0.5 -1.1,-1 -1.4,-1.7 -0.9,-1.1 -1.5,-4.1 -1.5,-5.3 z"
         id="path400-5-8-3"
         style="fill:#cc0000;stroke:none" />
      <path
         class="detail"
         d="m 137,287.3 c 0,0 4.8,0.3 6.6,0 l 10.8,-0.9 c 0,0 -7.8,1.6 -11.2,2.1 -2,-0.2 -6.7,-0.4 -6.7,-0.4 z m 1.1,-25.2 c 0,0 2.5,0.9 5.1,4.3 3.2,4 5.6,7.2 10.1,9.4 2.3,1 6.9,1.7 6.9,1.7 -4.1,0.7 -7.5,-0.5 -10.9,-2.5 -2.9,-1.8 -4.9,-5.7 -7,-8 -3.1,-3.4 -4.1,-3.6 -4.1,-3.6 z"
         id="path402-1-9-8"
         style="fill:#cc0000;stroke:none" />
      <path
         class="secondary"
         d="m 129.2,293.7 c 1.8,-1.2 4.1,0.8 5.1,3 1.1,2.2 0.8,6.9 -1.5,6.8 -5.1,0 -9.2,3.2 -12.3,7.1 -1.2,-7.2 2.6,-13.3 8.7,-16.9 z m -3.6,-31 c 2.1,0.3 2.2,3.4 1.4,5.7 -0.7,2.2 -4.2,5.5 -5.7,3.8 -3.6,-3.7 -8.9,-4 -13.8,-3.6 4.3,-6 11.2,-7.8 18.1,-5.9 z M 151.2,250 c 1.6,1.5 0.2,4.2 -1.8,5.7 -1.8,1.5 -6.4,2.5 -6.8,0.3 -1.3,-5 -5.6,-8.2 -10,-10.2 6.8,-2.9 13.6,-0.7 18.6,4.2 z"
         id="path404-6-2-7"
         style="fill:#ff9900" />
      <g
         id="head-3-4-8">
        <path
           class="secondary"
           d="m 260.7,77.72 c 11.6,-3.57 2.8,-18.56 37.6,-23.52 -5.9,5.33 -5.4,6.83 -6,10.34 8.4,-7.3 19.4,-10.75 31.7,-6.87 -11.9,3.45 -15.6,4.89 -18,9.48 9.1,-4.66 18.2,-4.4 32.7,-0.52 -4.4,1.95 -6.9,3.93 -8.4,6.73 32.8,3.68 8.6,41.14 44.5,60.74 -7.1,2.8 -16.3,0.6 -24,-5.4 7.7,6.4 13.9,19.3 11.7,28.5 -3.4,13.4 1.6,17.6 -1.5,29.3 -9.1,34.5 -18,45.5 -7.5,66.6 -26.2,-11.1 -22.2,-23 -24.4,-38.8 -9.5,17.6 -2.4,30.6 9.8,44.6 -19,-1.4 -28.2,-14.7 -35.9,-27.1 -6.9,20.1 4.7,23.8 -6.6,43.7 2.4,-25.5 -13.9,-19.9 -23.3,-43.2 7.3,24.6 -2.9,26.8 2,40.5 -11.9,-6.5 -8.6,-25.3 -19.9,-33.3 -1.2,9.9 0,18.6 2.5,26.7 -13.7,-9.2 -17.7,-9.6 -21.5,-32.3 -6.9,11 -6.9,21.9 -4.6,32.6 -10.7,-9.4 -15.1,-24.7 -9.7,-34 -5.3,-0.5 -9.2,10.4 -9.2,17.5 -23.2,-55.7 41.5,-65.8 45,-102.6 l 12.2,-4.3 5.1,-40.6 z"
           id="path406-80-4-8"
           style="fill:#ff9900" />
        <path
           id="mouth-9-5-3"
           style="fill:#552200"
           d="m 258.4,117.1 c 4.6,3.9 3.2,20.4 0.2,34.4 0,0 11.5,-10.8 14.2,-13.3 2.2,-1.9 3.8,-5 4.4,-8.2 0.6,-3.2 0.2,-7 -1.5,-9.8 -1.7,-2.9 -4.6,-5 -7.7,-5.6 -3.2,-0.8 -9.6,2.5 -9.6,2.5 z" />
        <path
           id="tongue-7-7-9"
           style="fill:#ff5555"
           d="m 219,129.9 c 0,0 -0.6,5.3 1.3,8.1 2.1,3.5 5.5,6.3 9.8,6.4 6.7,0.4 15.7,-6.5 22.5,-7.4 10,-1.7 27.5,4 27.5,4 l -4.3,-13.8 c 0,0 -15.7,-2.9 -24.4,-1.6 -7.4,1.4 -14.7,9.7 -22.1,11.6 -2.2,0.3 -3.5,-0.5 -5.4,-1.5 -2.4,-1.1 -4.9,-5.8 -4.9,-5.8 z" />
        <path
           id="teeth-2-0-1"
           style="fill:#ffffff"
           d="m 253.3,117.2 c -0.4,4 -2,6.3 -0.9,11.3 -4.9,-1.6 -6.7,-4.9 -6.9,-10.9 z m -9.4,-1.5 c -0.8,4 -2.6,6 -1.8,11.3 -4.8,-1.9 -6.4,-5.5 -6.3,-11.3 z m 18,32.1 c -1.3,-3.6 -3.5,-5.3 -3.7,-10.6 -4.5,3 -5.4,6.8 -4,12.3 z" />
        <path
           id="face-5-8-7"
           d="m 324.7,118.1 c 7,-3.7 14.2,-14.9 10.4,-26.67 -2.6,-8.1 -12.9,-9.18 -23,-2.79 -4.7,-10.68 -34.4,-15.45 -51.4,-10.92 -4.1,1.28 -7.2,3.14 -7.6,7.09 -6.4,2.32 -19.6,3.25 -23.9,7.66 -2.5,2.67 -0.2,7.53 1.6,8.63 -3.8,4.4 -0.8,17 4.8,15.2 6.7,7.3 22.7,3.7 25.9,2.4 0,0 5.4,-1.4 7.8,-0.1 2.5,1.1 4.2,3.9 4.9,6.8 0.6,3.3 -3.5,11.7 -5.6,14.4 -2.1,2.5 -3.8,7.3 -7,7.4 -3.8,0 -3.7,-0.2 -9.4,-2 -3,-0.9 -8.9,-1.5 -11.2,0.5 -0.8,1 -0.8,3.1 -1.1,4 -1.2,3.3 -3,3.7 -3.8,6.3 -2,7.2 1.4,9.3 -3.6,11.5 6.9,2 13.9,-2.4 15.6,-6.8 0.3,1.1 1,2.5 0.3,5.1 5,0.5 5,-4.5 7.3,-7.1 -0.1,1.6 0.3,3.1 1.8,5.1 2,-2.4 3.5,-5.8 6.5,-7.2 13.5,1.8 11.6,-13.4 12.3,-18 3.5,4.9 9.3,7.3 15.8,7.5 6.8,0.2 8.1,-3.8 15.6,-1.2 1.2,-1.9 1.4,-3.9 0.3,-6.5 2.5,0.9 4.9,1.3 7.5,0.2 0.8,-2.3 0.2,-4.3 -0.5,-6.5 2.2,0.2 4.1,1.1 6.3,-0.3 -0.4,-2 0.4,-3.1 -1.3,-6.2 2.2,0.8 4.1,-0.1 6.4,-0.9 -0.5,-2.2 1.2,-3.2 -1.7,-6.6 z" />
        <path
           style="fill:#552200;stroke:none"
           d="m 237.3,118.2 4.9,1.1 c -8.2,-4.2 -8.2,-15.7 -6.3,-17.7 l -1,0.4 c -1.9,1.4 -1.4,12.4 2.4,16.2 z"
           id="path412-1-4-5" />
        <path
           class="detail"
           d="m 331.6,92.32 c -1.1,-2.32 -3.3,-2.94 -5,-3.23 -1.8,-0.34 -3.6,-0.11 -5.4,0.58 -4.2,1.41 -8.4,4.31 -12.5,12.03 l -0.8,1.6 1.4,-0.7 c 1.8,-0.7 3.6,-1.5 5.1,-1.7 -0.8,1.8 -1.5,3.5 -1.4,5.5 l 0.1,0.8 0.8,-0.3 c 1.2,-0.6 2.3,-1.1 3.8,-1.3 -0.9,1.6 -1.8,3.2 -1.9,5.2 v 0.7 l 0.6,-0.2 c 1.3,-0.1 2,-0.4 3.6,-0.5 -0.5,1.7 -0.7,2.7 0.3,3 0,-1.1 0.4,-2.3 1,-3.5 l 0.3,-1 -0.8,0.1 c -2.4,0.1 -2.7,0.4 -3.6,0.7 0.4,-1.6 1.2,-3.4 2,-5.2 l 0.4,-0.8 h -0.8 c -2,0 -3.2,0.5 -4.4,1.3 0.1,-1.7 0.7,-3.2 1.4,-4.9 l 0.3,-0.84 -0.6,-0.11 c -1.6,-0.24 -3.2,0.34 -4.9,1.15 3.7,-6.26 7.3,-8.81 10.9,-9.97 2.2,-0.7 6.9,-1.26 10.1,1.59 z m -19.3,-3.21 -0.5,-0.94 c -1.9,1.16 -3.5,2.43 -5,3.6 -1.7,1.63 -2.5,3.37 -3,5.34 1.8,-2.56 4.3,-5.34 8.5,-8 z m -46.8,18.79 c -0.2,-4.3 -2.7,-8.01 -6.4,-9.4 2.9,2.2 5.1,5.6 5.2,9.4 0,2.9 -1.2,6.5 -3.7,8.6 3.6,-1.4 4.9,-5.3 4.9,-8.6 z"
           id="path414-3-5-4"
           style="fill:#cc0000;stroke:none" />
        <path
           style="fill:#552200;stroke:none"
           d="m 249.4,111.2 c -0.8,0 -1.4,0.5 -1.4,1.3 0,0.7 0.6,1.3 1.4,1.3 0.6,0 1.5,-0.6 1.5,-1.3 0,-0.8 -0.9,-1.3 -1.5,-1.3 z m 5.3,-0.4 c -0.7,0 -1.4,0.5 -1.4,1.3 0,0.7 0.7,1.4 1.4,1.4 0.7,0 1.3,-0.7 1.3,-1.4 0,-0.8 -0.6,-1.3 -1.3,-1.3 z m 3.6,-1.6 c -0.6,0 -1.4,0.6 -1.4,1.5 0,0.6 0.8,1.3 1.4,1.3 0.9,0 1.4,-0.7 1.4,-1.3 0,-0.9 -0.5,-1.5 -1.4,-1.5 z m -9,-2.6 c -0.8,0 -1.3,0.6 -1.3,1.3 0,0.8 0.5,1.4 1.3,1.4 0.7,0 1.3,-0.6 1.3,-1.4 0,-0.7 -0.6,-1.3 -1.3,-1.3 z m 5.1,-0.5 c -0.9,0 -1.4,0.5 -1.4,1.3 0,0.7 0.5,1.3 1.4,1.3 0.8,0 1.4,-0.6 1.4,-1.3 0,-0.8 -0.6,-1.3 -1.4,-1.3 z m 4.3,-2.4 c -0.8,0 -1.4,0.6 -1.4,1.3 0,0.9 0.6,1.5 1.4,1.5 0.6,0 1.4,-0.6 1.4,-1.5 0,-0.7 -0.8,-1.3 -1.4,-1.3 z M 229.1,92.58 c -1.5,2.67 -0.6,5.69 1.2,8.02 0.9,0.7 1.3,1 2.2,0.8 0,0 0.5,2 0.8,2.7 0.6,1.5 1.5,2.4 1.5,2.4 0,0 0.6,-2.2 1,-3.2 0.5,-1.1 1.1,-1.8 2.4,-2.2 1.4,-0.9 3.5,0.1 4.7,-1 0.8,-0.55 1.8,-3.33 1.8,-3.33 0,0 -2.4,0 -5,-0.59 -1.9,-0.34 -6,1.86 -6,1.86 -2.2,-1.4 -4.2,-2.67 -4.6,-5.46 z"
           id="path416-94-4-6" />
        <g
           id="eye-1-0-9">
          <path
             class="detail"
             d="m 258.7,90.34 c -1.4,-0.38 -1.3,-0.94 -1.3,-0.94 l -0.3,-0.92 1,0.27 v 0 0 c 0,0 3.5,1.07 9,0.55 2.3,-0.24 5.3,-1.75 8,-2.26 1.3,-0.2 2.8,-0.32 3.8,0.52 1.2,0.81 2,2.15 2.4,4.32 -1.2,-0.14 -1.5,-1.94 -3,-3.16 -0.7,-0.52 -1.6,-0.51 -2.8,-0.27 -2.4,0.48 -5.4,1.96 -8.2,2.27 -5.2,0.47 -7.3,0.1 -8.6,-0.38 z"
             id="path418-1-7-6"
             style="fill:#cc0000;stroke:none" />
          <path
             style="fill:#ffffff"
             d="m 262.5,93.62 c 0.5,2.03 4.4,4.91 7.8,4.2 3.5,-0.67 5.3,-4.8 4.8,-6.91 -0.6,-2.06 -3.3,-1.05 -6.8,-0.29 -3.4,0.72 -6.3,0.87 -5.8,3 z"
             id="path420-56-4-7" />
          <path
             style="fill:#552200;stroke:none"
             d="m 264.4,94.53 a 3.006,2.752 63.05 0 0 3.2,2.71 3.006,2.752 63.05 0 0 2.4,-3.28 3.006,2.752 63.05 0 0 -3.3,-2.62 3.006,2.752 63.05 0 0 -2.3,3.19 z"
             id="path422-1-5-5" />
          <path
             style="fill:#000000;stroke:none"
             d="m 266.7,93.05 c 0.7,0 1.6,0.42 1.6,1.27 0.2,0.86 -0.3,1.49 -1.2,1.55 -0.8,0.12 -1.5,-0.47 -1.6,-1.23 -0.1,-0.82 0.5,-1.51 1.2,-1.59 z"
             id="path424-48-5-5" />
          <path
             style="fill:#ffffff;stroke:none"
             d="m 265.9,92.74 c 0.5,-0.1 1.1,0.3 1.2,0.9 0.1,0.61 -0.4,1.05 -0.9,1.1 -0.5,0.1 -1,-0.32 -1.1,-0.9 0,-0.61 0.4,-1.08 0.8,-1.1 z"
             id="path426-6-8-8" />
        </g>
        <path
           style="fill:#ff9900;stroke:none"
           d="m 316.8,78.84 -4.7,9.8 c -9,16.46 -7.7,23.76 12.6,29.46 12.7,1.6 10.9,23.6 9.5,26.4 -15,27.6 -55.7,11.5 -58.5,-7.7 23.1,-12.9 3.6,-24.1 -4.8,-25.5 14.6,0.2 43.8,-28.06 25.4,-28.48 -23.8,-0.54 -9.8,-7.32 -33.8,-4.84 4.7,-5.09 6.5,-4.34 9.1,-5.34 l 9,-2.78"
           id="path429-7-2-8" />
      </g>
    </g>
    <g
       class="lion"
       id="g432-0-6"
       style="display:inline;fill:#ffcc00;stroke:#cc0000"
       transform="matrix(0.32805,0,0,0.32805,39.587998,237.81777)">
      <path
         style="display:inline;fill:#cc0000;stroke:#ffffff;stroke-width:0.239098;stroke-linecap:round;stroke-linejoin:round"
         d="m 280.32156,43.347183 c -7.32729,3.24534 -11.80388,11.79087 -8.66476,21.775149 3.3599,10.718696 16.1856,22.445654 40.62301,25.546161 15.32136,-19.854277 16.48293,-37.465756 11.59558,-47.551198 -4.55603,-9.377192 -13.5619,-12.223285 -20.99884,-9.272401 -5.85981,2.465491 -8.03333,7.161041 -8.93347,10.652495 -3.02226,-1.838123 -7.76479,-3.622065 -13.62152,-1.150206 z"
         id="path3413"
         transform="matrix(3.0483158,0,0,3.0483158,-846.87447,15.664868)" />
      <path
         d="m 208.4,467.3 c 0,0 -0.2,2.3 -1,3.4 -1.3,2.1 -3.4,4.7 -5.8,5.5 -3,1.6 -5.9,0.6 -8.7,0.3 -2.1,-1.5 -5.2,-4.8 -5.2,-4.8 0,0 -3.5,5.5 -6.6,6.8 -3,1.4 -7.1,1.5 -10.5,0.5 -3.8,-0.9 -7,-4.1 -8.4,-7.3 -0.8,-2.4 0.1,-6.3 0.1,-6.3 0,0 -4,1.3 -5.9,1 -2.9,0.3 -5.7,-0.6 -7.2,-2.5 -2.6,-3.2 -3.1,-6.1 -2.2,-10.1 0.4,-1.7 3.4,-4.3 3.4,-4.3 0,0 -1.9,-2.6 -2.3,-3.7 -0.8,-2.4 0.6,-5.2 0.6,-5.2 0,-2.3 3.2,-4.7 6.2,-4.5 7.4,-0.3 10.9,4.9 18.7,6.8 15.3,2.4 30,-3.4 41.6,-13 3.7,-3.6 6.7,-7.9 9,-12.9 2.1,-3.7 2.8,-10 2.9,-14.7 -1,-7.6 -5.4,-13.9 -7.4,-22.2 -0.7,-3.6 -1.3,-12.9 -1.3,-12.9 0,0 -5,2.9 -5.9,5.1 -0.8,2.3 -0.3,6.9 -1,9.7 -1,2.3 -2.8,3.6 -5.2,4 -2.4,1.5 -5.3,0 -7.6,1.6 -1.9,0.7 -4.1,4.6 -4.1,4.6 0,0 -0.7,-4.1 0.1,-5.7 1.6,-4 6.5,-5.7 7.4,-9.1 0.3,-3.4 -1.8,-4.8 -2.6,-7.8 -0.8,-2.3 -0.6,-4.1 -0.5,-5.8 1.1,-4 7.5,-8.4 7.5,-8.4 0,0 -1.2,-0.7 -2.2,-1.4 -1.1,-0.7 -4.7,0 -4.7,0 8.3,-11.3 12.1,-13.5 25.6,-10.3 0,0 0.4,-4 1.4,-7.4 0.9,-2.8 1.9,-6.1 4.4,-8.1 1.8,-0.9 4.9,-3 4.9,-3 0,0 2.2,-3.2 3,-4.8 1.5,-3.8 4.1,-6.4 7.8,-7.8 3.8,-2.4 7.2,-2.6 11.9,-2.1 14.6,2.4 28.8,5.1 43.8,0 l 7.9,77.3 c -10.3,-2.4 -21.8,-2.1 -31.3,-4.9 -3.4,-0.9 -9.8,-5.6 -13,-8.5 0,0 0.4,7.6 -1.4,13.3 -2.4,4.3 -6.3,9.7 -4.8,15 1,2.3 3.6,4.5 6.2,7.1 2.1,2.6 3.4,6.2 3.5,9.6 0.3,2.3 -0.1,5.8 -1.9,6.7 -7.5,4.3 -15.4,7.6 -17.7,13 -2.3,9.6 -1.4,17.2 -10.6,22 1.1,-4.6 0.2,-7.6 -1.7,-11.2 -1,8.4 -3.1,11.8 -8.8,16.8 0,-5.1 -0.1,-9.2 -1.3,-13.4 -2.2,9 -4.7,14.5 -13.2,17.6 2.3,-4.4 2.8,-8.4 1,-13.2 -2.7,3.8 -2.2,9 -6.9,9.6 z"
         id="path369-6-6" />
      <path
         class="detail"
         d="m 154,448.2 c 1.7,-0.3 3.4,0.3 5.7,0.1 1.7,0.7 3.2,1.6 5.2,1.1 2.2,0.3 6.4,-0.9 6.4,-0.9 -1.4,2.1 -5.6,2.3 -6.6,2.1 -1.8,0.4 -3.4,-0.4 -5.7,-0.7 -1.7,-0.7 -3.4,-1.5 -5.1,-1.2 -0.6,0 -1.8,0.5 -2.4,0.3 -0.5,0.6 -1.1,0.5 -1.1,0.5 l -2.1,-2.5 c 0,0 1.4,1.9 2.8,1 0.6,-0.1 1.8,0.1 2.9,0.2 z m 22.8,7.3 c 0,0 -0.7,1.1 -1.3,1.6 -1.2,0.4 -1.8,1.1 -3.2,1.9 -1.1,0.5 -3.5,0.2 -4.6,0.6 -1.2,0.5 -2.4,1.5 -3.7,1.9 0,0.5 -0.9,1.7 -1,2.8 -0.7,1.1 -0.7,1.6 -0.7,1.6 l -4.6,0.7 c 0,0 3,-1.5 3.7,-2.5 0.1,-0.6 1.3,-1.6 2.1,-3.1 1.1,-0.5 2.4,-1.6 3.6,-2 1.9,-0.9 4.3,-0.7 5.4,-1.1 0.6,-0.5 1.9,-1 2.5,-1.5 z m 19.4,2.4 c -4.1,0 -6.7,2.6 -7.9,4.6 -1.7,2.8 -2,5.6 -0.1,9.4 l -1.3,1 c -1.8,-3.2 -1.4,-7.8 0.2,-10.4 4.2,-6.5 8.5,-4.8 9.1,-4.6 z m 11,5.1 c 1.1,0.8 0.9,2 1.5,2.5 -0.2,1.2 0.2,1.9 0.2,1.9 l -1,0.4 c 0,0 0.1,-1.1 -0.5,-1.8 0.1,-1.1 -0.3,-2.4 -0.8,-3 -0.4,-1.2 -3.7,-3.3 -3.7,-3.3 1.7,0.2 4.4,2.7 4.3,3.3 z"
         id="path371-8-75"
         style="fill:#cc0000;stroke:none" />
      <path
         class="detail"
         d="m 218.1,360.2 c 0,0 -2,1.1 -3.2,1.9 -1.3,1.1 -2.6,2.1 -3.8,2.6 -0.7,1.5 -2.2,3.7 -2.3,5.4 -0.7,1.2 -0.3,2.8 -0.5,4 0.4,1.8 0.3,3 0.1,4.7 -0.2,1.6 -1,3.3 -2.9,4.3 -0.6,0.5 -1.8,0.9 -2.4,0.9 -1.1,-0.2 -2.4,-0.3 -2.4,0.3 -1.9,0.9 -2.9,0.7 -3.6,1.9 -0.8,0.5 -0.9,1.7 -1.6,3.2 -0.1,1.2 -0.1,1.8 -0.1,1.8 l -1.4,0.4 c 0,0 0.2,-1.2 1,-2.3 0.2,-1.6 0.9,-3.3 1.5,-3.9 1.3,-1 2.5,-1.4 3.8,-2.3 0.6,0 1.8,0.1 2.3,0.2 1.1,0.1 1.7,0.2 2.4,-0.9 1.2,-0.9 2,-2.1 2.9,-4.2 0.1,-1.3 -0.4,-2.5 -0.2,-4.2 -0.4,-1.2 -0.2,-2.8 -0.1,-4 0.8,-1.6 1.6,-3.9 3,-6 1.4,-1 2.4,-1.5 3.8,-2.4 z"
         id="path373-3-80"
         style="fill:#cc0000;stroke:none" />
      <path
         class="secondary"
         d="m 203.9,471.5 c 0.2,-1.8 -3.2,-2.3 -5.5,-2 -1.9,1.1 -5.8,4 -4.2,5.8 3.6,4 3.5,9.3 3,13.8 6.3,-4 8.3,-10.7 6.7,-17.6 z m -40.3,-2.6 c 0.9,-1.5 4.3,-1.1 5.8,0.7 2.2,1.6 3.9,5.7 1.6,6.7 -5,2.3 -6.7,7.3 -8.4,11.7 -3.8,-6.3 -3.1,-13.1 1,-19.1 z m -15.6,-15 c 2,-1 3.5,1.5 3.8,3.9 0.8,2.4 -0.9,6.9 -3.1,6 -5,-1.2 -9.9,1.2 -13.8,3.7 0.9,-7.5 6.1,-12.1 13.1,-13.6 z m 3.8,-16.3 c 1.7,-0.4 3.1,2.7 2.8,4.9 -0.2,2.3 -3.1,6.5 -4.7,5.3 -4.5,-2.8 -9.7,-1.7 -14.3,0.1 2.8,-7.3 9,-10.6 16.2,-10.3 z"
         id="path375-7-2"
         style="fill:#ff9900" />
      <path
         d="m 165.4,102.2 c -5.2,-4.08 -14,-2 -18.6,3.9 -1,-4.9 -4.3,-7.48 -7.9,-8.18 -7,-1.9 -16.2,3.88 -13.7,12.88 0.7,2.5 5.6,4.3 5.1,6.8 0,0 -0.4,2.7 -0.5,4 0.1,1.2 0.4,2.9 0.4,2.9 0,0 -5.2,-2.7 -7.2,-2.3 -12.4,2.6 -9.8,21.7 2.4,22.2 2.2,0.1 4.3,0.3 6.7,0.2 3.1,-0.6 7.9,0.8 8.3,2.5 0.3,0.5 0.4,1.6 0.7,2.3 7.8,4.7 7.7,12 1.2,14.9 9.1,2.3 11.3,2.3 19.8,-0.4 l 0.2,0.3 c -1.7,5 -3.8,9.6 -7.8,12.2 7.5,3 16.6,-3.8 22.9,-4.5 0.6,3.4 0.3,6.9 1.6,9.9 1.1,2.7 2.7,5.2 5.5,7.3 1,-5 2.3,-7.8 7.5,-9.6 -3.8,11.2 -3.2,18.2 4.2,27.7 -0.7,-7.8 3.3,-5.6 8.6,-14.3 -2,9.9 -3.3,18.8 5.9,25.9 0.1,-4.5 0.5,-8.6 4.1,-11.6 -0.4,9.6 0.7,17.5 9.2,23.5 -0.1,-5.2 0.3,-9.2 4.9,-12.5 -0.2,9.4 2,16.4 10.3,21.7 -2.4,-7.4 2.8,-7.5 3.3,-15.1 0,0 9,18.6 14,22.9 7.1,6.3 17.5,17.7 17.5,17.7 l 19.2,-48 c -19,-14.4 -24,-29.6 -43.4,-43.4 -31.2,-4.1 -62.5,-23.9 -82.7,-48.6 -0.4,-2.7 -1,-8.6 0.3,-11.4 1,-2.1 2.5,-4.1 1.5,-6.6 -0.8,-2.2 -1.8,-4 -3.5,-5.2 z"
         id="path377-75-0" />
      <path
         class="detail"
         d="m 130.5,124.1 c 0,0 3.6,1.8 4.9,2.5 l 8.3,3 c 0,0 -6.4,-0.9 -9,-2 -1.5,-0.8 -4.9,-2.8 -4.9,-2.8 z M 147,106.2 c 0,0 1.6,1.7 2.1,5.3 0.4,4.1 0.7,7.3 3.2,10.7 1.1,1.7 4.6,4.6 4.6,4.6 -3.6,-1.8 -5.8,-4.2 -7.6,-7 -1.5,-2.7 -0.9,-6 -1.5,-8.5 -0.7,-3.7 -1.3,-4.1 -1.3,-4.1 z"
         id="path379-84-5"
         style="fill:#cc0000;stroke:none" />
      <path
         class="secondary"
         d="m 121.9,125 c 2,0.3 2.3,3.1 1.6,5.5 -0.8,2.2 -4.3,5.6 -5.8,4 -3.7,-3.8 -9,-3.8 -13.8,-3.2 4.1,-6 11,-8.2 18,-6.3 z m 14.8,-25.98 c 1.8,1.18 0.8,3.98 -1,5.68 -1.6,1.6 -6.1,3.1 -6.8,1.2 -1.7,-5 -6.3,-7.68 -11.1,-8.98 6.6,-3.7 13.5,-2.4 18.9,2.1 z m 28.9,6.68 c 0.2,2.1 -2.8,3.1 -5.1,2.7 -2.5,-0.2 -6.3,-2.9 -5,-4.7 2.7,-4.38 1.8,-9.68 0.4,-14.2 6.6,2.72 9.9,9.12 9.7,16.2 z"
         id="path381-7-2"
         style="fill:#ff9900" />
      <path
         id="groin-9-0"
         d="m 294.9,317.6 10.3,18 c 0,0 -3.4,10.5 -8.5,13.3 -0.2,-7.5 -6,-16.4 -9.2,-23.4 -1.2,-3.3 4.7,-6.2 7.4,-7.9 z" />
      <path
         d="m 423.1,446.4 c -3.4,-0.7 -5.6,-1.7 -8.6,-1.2 -4.9,-1.5 -10,-2.7 -14,-5.9 -8.3,-5.2 -13.6,-13.9 -17.8,-21.8 -6,-10.6 -8.9,-24.8 -13.7,-35.2 -3.6,-7.7 -7.7,-14 -10.9,-21 -2.7,-4.2 -8.1,-9.3 -8.1,-9.3 0,0 3.8,10.1 4.3,16.1 0.9,7.3 1.3,13.3 1.1,20.2 0.1,7.6 -1.8,16.7 -0.9,23.8 1.8,8 4.9,15.7 9.1,23.6 3.3,4.9 7.6,9.3 12,13.1 3.4,3.7 8.9,8.3 8.9,8.3 1.8,2.2 4.8,2.2 6.9,3.9 7.2,4.3 9.5,10.2 8.3,15.8 -2.7,-4.1 -6.3,-3.7 -10.7,-2.2 9.4,6 12.3,11.4 10.4,23.3 -2.3,-8.2 -10.4,-6.4 -15.5,-9.7 5,10.3 12.7,12.5 13.6,19.2 1.7,2.7 2.1,6.4 -1.3,14.3 -1.1,-3.1 -1.8,-4.9 -3.1,-7 -3.2,-2.4 -7.2,-2.2 -10.8,-7.6 0,0 -0.9,4.1 0.3,6.6 1.9,2.8 2.5,2.8 4.7,5.7 1.7,2.7 3.5,6 4.1,9 0.9,6.7 -2.8,16.5 -2.8,16.5 0,0 -2.3,-3.9 -3.7,-5.4 -2.1,-1.7 -5.7,-0.7 -8.4,-2.3 -2,-1.1 -4.7,-5.3 -4.7,-5.3 0,0 0,3.1 0.2,4.9 -0.2,1.1 -3.1,4 -3.1,4 0,0 6.3,0.1 9,4.3 2.9,2.8 3.2,7 1.3,10.1 -2.7,4.8 -7.8,6.6 -14.1,3.4 -2.4,0.2 -5.6,-1.5 -5.6,-1.5 0,0 0.6,2.9 -0.4,4.6 -0.2,1.7 -1.2,3.2 -2.9,5.2 -2.3,3.1 -6.5,3.3 -9.9,3.2 -3.5,-0.8 -6.8,-1.5 -8.4,-5.2 -1,-0.8 -2.5,-4.7 -2.5,-4.7 0,0 -3.8,4.6 -6.3,4.7 -4.7,0.1 -9,-1.9 -11.2,-4.8 -1.9,-2.8 -2.4,-5.8 -2.4,-8.7 -0.1,-2.5 1.4,-4.3 1.8,-6.1 0,0 -2,-0.9 -3.7,-1.4 -1.6,-1 -2.4,-2.9 -3.6,-5.4 -0.7,-2.5 -0.6,-5.4 0.7,-8.7 2.4,-3.6 5,-4.7 9,-3.9 2.8,-0.1 6.4,2.9 8.2,5.2 3.2,2.4 7.3,2.1 11,1 3.4,0.7 6,-3.4 9,-6.3 5.4,-9.4 6.4,-22.7 6.1,-32.2 -0.1,-11.1 0.3,-24 0.3,-24 0,0 -9.6,-7.3 -14.1,-11.2 -6.2,-7 -18.9,-22.1 -18.9,-22.1 2.9,5.4 4.2,8.6 4.1,11.6 0.5,5.9 -3.1,9.2 -4.8,14.1 -0.5,2.3 -0.2,3.5 0.2,4.8 -4.3,-2.1 -3.9,-3.8 -4.6,-6.2 -1,-3.8 0.4,-7.6 -2,-10.4 -0.4,5.1 -2.6,7.7 -6.9,10.8 0,0 1.6,-4.9 -0.8,-7.8 -2.2,-2.7 -6.1,-4.2 -7.6,-7.5 -3.1,-3 -4.4,-7.4 -1.1,-12.4 0,0 -4.7,-2.8 -5.6,-6.4 -1.6,-4 -0.2,-7.8 1,-11.1 2.6,-4.1 8.1,-10 8.1,-10 0,0 -10.8,-15.7 -14,-26.5 -1.6,-6.1 -2,-12.6 -1.3,-18.9 1.1,-5.2 2.7,-10.1 4.8,-14.3 3.2,-4.1 9.8,-10.4 9.8,-10.4 0,0 -4.9,-13.2 -8.6,-18.1 -3.1,-4.8 -6,-8.3 -9.9,-11.5 -4.5,-3.4 -10.1,-5 -14.9,-7.8 -6.3,-3.6 -10.4,-6.3 -15,-11.9 -3.5,-3.2 -4.3,-4.9 -10,-12.1 -4.2,-5.7 -25.9,-38.3 -17.6,-49.9 3.8,-5.4 14.1,-16.9 17.2,-23.3 5.3,-14.5 22.2,-31 22.2,-31 l 27.7,0.2 c 42.5,5.2 49.3,1.3 49.4,23.7 -6,42.1 -4.1,92.9 7.7,121.1 7.7,18.7 21.2,36.9 28.2,56.5 2.3,5.9 4.8,11 7.7,17.4 2.5,7.1 4.7,15.8 8.1,22.4 4,6.1 7.6,13.8 14,16.9 0,0 6.5,3.1 11.2,3.6 3.9,0.8 8.5,0.5 11.5,-2.3 5.8,-4.7 5.9,-9.3 7.1,-13.7 0.8,-9.6 -6.7,-18.9 -13.1,-28.9 -2.7,-4.1 -5.9,-9.9 -8,-13.7 -15,-29 -30.9,-58.4 -40.5,-89.7 -3,-9.8 -3.9,-19.5 -2.7,-28.9 2.9,-20.7 14.8,-33.4 25.9,-49.9 5.7,-9.7 4.1,-20.9 -7.9,-23.4 6,-5.5 13.8,-6.4 19.6,-3.8 5.3,2.1 8.1,5.7 9.6,9.9 3,9.1 -2.5,21 -8,30.4 4,-0.5 8.1,-1.8 10.8,-3.6 6.7,-6.1 6.5,-16.2 9.6,-25.3 3.4,-10.2 11.4,-17.3 22.3,-18.6 5.4,-0.7 14.5,1.2 18.8,5.6 2.7,2.6 3.4,5.6 3.5,9.6 -0.4,5.8 -3.9,11.2 -4.3,17 0.4,3.4 2.2,7.1 2.2,7.1 -0.2,0.3 -9.2,-0.2 -13.4,-6.9 -1.8,-3.2 -2.5,-10.3 -2.5,-10.3 -1.5,1.9 -2.5,2.8 -2.1,5 -2.1,9.8 1.2,18.2 -7.9,28.6 -4.9,5.8 -13.7,7.3 -24.2,7.8 -5.2,0 -6.7,2.7 -7.1,3.7 17.5,-0.8 30.3,12.3 28.9,24.7 -1.4,11.2 -12.2,18 -23.3,16.5 10,-9.6 7.3,-21.2 -5.2,-25.3 -8.3,-2.6 -15.7,-1.1 -20.5,2.4 -5.4,4.7 -8.4,13.5 -8.4,22.7 0.3,8.2 6,23.6 6,23.6 3.8,-9.7 16.2,-0.3 15.1,-17.4 9.7,12.7 2.6,20.8 -1.4,31 9.9,1.6 14.1,-2.9 16,-12.1 8,15.5 -1.2,21.2 -5.4,33.1 8.2,-0.4 11.2,-2.9 15.3,-9.8 5.4,10.8 -1.8,17.9 -9.4,25.9 6.4,-1.8 14.9,2.9 17.6,11.5 -6.1,-3.1 -8.6,-2.9 -10.9,-2 -2.2,2.3 -4.1,3.9 -3.3,6.8 1.8,7.5 6.1,12.3 9.6,17.5 6.6,8.3 12.2,15.5 11.1,30.6 -0.6,7.7 -0.9,13.8 -9.1,21.4 9.5,-0.3 13.2,4.6 14.8,8.4 -0.1,2.9 -2,6.1 -2.5,8.9 -0.2,1.1 2.3,5.7 2.3,5.7 -3.9,-0.8 -7,-2.6 -7.2,-7.9 -0.6,0.5 -1.5,1.4 -1.6,2 1.6,4.4 3.3,7.7 3.4,11.9 -0.1,3.5 -0.7,6.3 -4.7,9 -3.4,2.2 -7.7,0.2 -13,0.2 -2.5,1.2 -4.2,3.2 -5.7,5.3 -0.9,-4.4 0.5,-6.3 2.9,-8.2 2.4,-3.1 4.5,-2.6 6.8,-5.1 2.2,-1.9 2.6,-4.1 -0.2,-9.5 -2.6,6 -8.1,6.6 -11.8,5.3 -3.7,-2 -5.9,-5.4 -6,-10.7 2.4,2.9 5,4 7.5,3.4 2,-1.5 4.2,-3.2 2.1,-7.3 -0.9,-1.4 -2.9,-2.9 -3.9,-3.7 z"
         id="path384-55-6" />
      <path
         class="detail"
         d="m 450,182.5 c 3.4,1 7.2,3.9 8.5,8.6 0.4,0.4 0.2,0.6 0.1,1 -0.1,0.3 -0.2,0.6 0.2,0.8 l -1.2,-0.1 c 0.1,-0.1 0.3,-0.4 0.3,-0.7 0.1,-0.2 -0.3,-0.7 -0.3,-0.7 -1.9,-6.2 -6.5,-8.5 -11.9,-8.8 -5.5,-0.3 -10.3,2.2 -13.1,6.1 -0.3,0.9 -0.7,1.9 -1.2,2.8 -0.6,-0.1 0.3,-2.3 0.1,-3.4 3.6,-3.9 8.3,-6.6 14,-6.5 1.7,0.1 2.9,0.4 4.5,0.9 z m 17.2,-10.4 c 2.1,1 3.4,2.7 5.1,6 1.1,3.2 1.5,6.9 -0.4,10.2 -0.1,-3.1 1.9,-4.6 -0.2,-8.9 -1.2,-3.1 -4.3,-6.5 -6.2,-7.4 z m -9.1,-0.5 c 0,0 1.1,0.3 1.7,0.4 3.4,1 5.9,2.5 6.9,6 1.1,1.9 1.2,4.9 0.8,7.4 0.1,2.7 -1.2,7 -0.1,9.3 l 1.1,8.2 c -1.9,-3.2 -2.3,-7.1 -2.7,-10.5 0.2,-1.8 1.2,-4.3 1,-7.1 0.5,-2.4 0.6,-4.2 -0.7,-6 -1.5,-3.5 -3.8,-5.5 -7.2,-6.5 -3.4,-1 -7.1,-1.1 -10.2,-0.7 l -0.3,-0.8 c 2.6,-0.1 5.7,-0.2 8,0.1 0.5,0 1.1,0.2 1.7,0.2 z m -6.3,3.5 c 2.9,0.4 6,1.8 8.3,4.1 0.8,0.9 1.3,2.9 1.3,4.2 l 0.5,3.5 c -0.5,-1.7 -1.1,-3.3 -1.3,-4.5 -0.2,-1 -0.6,-1.8 -1.5,-2.6 -2.1,-2.5 -6.6,-3.5 -10.2,-3.3 -4.5,-0.2 -9,1.9 -12.5,4.4 l 0.8,-2 c 3.6,-2.5 7.8,-3.9 12.1,-3.9 1.2,0 1.8,0 2.5,0.1 z m -0.8,8.2 1,0.5 c 0,0 -2.6,1.6 -4.2,4.1 -2.1,2.2 -3.4,5.2 -4.3,7.4 -1.8,2.9 -2,6.4 -1.6,10.3 0.4,3.7 0.5,7.6 -1.2,10.7 -0.9,2.3 -2,3.4 -3.7,4.3 -1.4,0.9 -1.8,1.7 -3.5,2.8 -3.7,1.3 -10.3,2.1 -15,3.4 -5.4,1 -10.3,2.1 -13.3,3.5 -2.3,1 -3.7,3.2 -5.6,4.5 -1.9,1.6 -2.5,3.2 -2.5,3.2 0.2,-2 1.6,-3.9 2,-5 0.6,-1.5 2.4,-2.6 4.6,-3.8 3.1,-1.3 9.1,-2.3 15.1,-3.2 4.7,-1.2 10.2,-2.3 12.5,-3.8 2.2,-0.8 3.5,-2 5,-2.8 0.9,-0.9 1.4,-1.7 2.7,-3.6 1.8,-2.9 2.2,-5.4 1.8,-9.1 -0.3,-3.7 -0.9,-8.6 1.2,-11.8 0.8,-2.4 3.1,-6.5 5.3,-8.7 2,-2.2 3.7,-2.9 3.7,-2.9 z m -9.6,-0.9 2.4,0.1 c 0,0 -3.3,1.8 -4.1,3.7 -1.9,1.8 -3.2,3.4 -3.3,5.3 -1.6,2.7 -1.6,6.9 -1.8,10.6 -0.2,3.7 -0.5,7.5 -1.9,10.6 -1.6,4.4 -5.4,5.9 -8.7,8.2 -3.6,1.2 -7.7,1.8 -11.7,2.5 -4.5,0.5 -8.4,1.2 -11.4,2.4 -3.1,1.5 -5.6,4.7 -8,7.2 -1.2,1.4 -1.1,2.7 -1.5,3.7 -1.4,3.6 -1.1,-1.9 1,-4.1 1.8,-2.8 4.3,-7.1 7.9,-8.6 3,-1.4 7.9,-1.3 11.4,-2.1 4.4,-0.4 8.9,-0.5 11.9,-1.7 3.3,-2.2 5.8,-4.1 8.1,-7.9 1.1,-2.8 1.4,-6.5 1.1,-10.4 0.8,-3.6 0.6,-8.9 2.5,-11.9 0.7,-1.9 1.7,-2.6 3.2,-4.6 1.1,-1.9 2.9,-3 2.9,-3 z m 14.6,5 0.5,0.6 c 0,0 -1,0.8 -1.8,3 -2,1.6 -3.6,4 -3.6,5.8 -1.9,2.8 -1.4,6.3 -2.1,9.5 0.4,3.5 0.9,7 -0.3,10.1 -1.3,3 -2.7,6.7 -5.9,8.4 -5.3,3.7 -13.4,3.8 -19.7,5.6 -4.4,1.7 -10.6,3.1 -14.2,6.2 -4.3,2.8 -9.8,8.5 -9.8,8.5 1.4,-3.4 7.3,-8.5 9.2,-10.1 3.8,-3.3 9.9,-4.3 14.6,-5.8 6,-2.2 13.8,-1.7 18.9,-5.2 2.6,-1.7 3.9,-5.1 5.2,-8.1 1.2,-2.9 0.8,-6.5 0.9,-9.9 0.1,-3.4 0.5,-7.3 1.7,-10.6 0.7,-1.8 2.9,-3.9 4.3,-5.8 1.5,-1.8 2.1,-2.2 2.1,-2.2 z m -53.6,-6.8 c 1.2,0.1 2.3,0.6 3.3,1 2.7,1.3 5.9,4 6.5,7 1.1,4.7 0.1,10.6 -2.2,14.7 -6.2,7.4 -12.5,12.3 -16.7,18 -2.7,3.7 -4.3,7.9 -6.6,11.9 0.7,-4.8 4.3,-10.6 5.8,-12.8 4.2,-5.7 10.1,-9.6 15.7,-17.1 2.6,-3.8 3.4,-9.9 2.6,-14.3 -1.3,-2.9 -3.3,-5.4 -5.9,-6.9 -2.3,-0.9 -5.7,-1.1 -8.8,-1.1 -3.1,0 -5.3,0.6 -5.3,0.6 l -0.2,-0.9 c 0,0 2.1,-0.5 5.7,-0.4 1.4,-0.2 3.2,-0.1 5.1,0.1 0,0 0.5,0.2 1,0.2 z m 9.4,36.4 -1.1,1.1 c -4.5,0.3 -8.4,0.8 -10.5,3.4 -0.9,0.5 -2.5,1.3 -3,2.5 0.9,-2.2 1.8,-2.7 2.7,-3.4 2.9,-2.7 7.4,-3.1 11.9,-3.6 z m 6.1,20.1 0.4,0.7 c -6.5,2.2 -11.8,4.5 -15.9,6.8 5.1,-3.1 10.3,-6.9 15.5,-7.5 z m 2.7,7.4 c 3.4,0.3 7.8,2.1 10.1,3.7 7,4.5 10.2,13.3 6.7,20.1 -1.7,4.3 -6.9,8 -14.1,10.7 l -0.3,-0.7 c 7.5,-3.3 11.7,-6.2 13.4,-10.4 3.2,-6.4 -0.2,-14.8 -7.1,-19.2 -7.1,-4.9 -20.2,-5.4 -32.5,2.3 10,-7.9 19.4,-6.7 22,-6.8 0.5,0.1 1.1,0.2 1.8,0.3 z"
         id="path386-4-1"
         style="fill:#cc0000;stroke:none" />
      <path
         class="detail"
         d="m 308.4,317.8 c 0,0 0.3,5.4 -0.3,8.3 -0.6,2.2 -1.3,4 -2.8,6 -0.7,0.9 -1.9,2.1 -3,2.8 -1.1,0.9 -2,1.7 -2,1.7 l -0.5,-0.8 c 0,0 0.8,-0.6 1.9,-1.4 1,-0.9 2.3,-2.1 2.9,-2.8 1,-1.2 1.6,-2.3 2.1,-3.8 0.3,-0.9 0.6,-1.9 0.7,-2.7 0.6,-1.4 0.9,-4.6 1,-7.3 z"
         id="path388-8-9"
         style="fill:#cc0000;stroke:none" />
      <path
         class="detail"
         d="m 304.6,420.6 c 0,0 1.4,1.4 0.7,3 -0.3,1.2 -1.1,2.1 -1.9,3.2 -0.8,0.4 -3,2.8 -3.8,3.9 l -1.2,3.2 c -0.6,0 -0.6,0 -0.6,-0.6 -0.5,-0.2 -0.5,-0.2 -0.5,-0.2 0,0 0.1,-0.6 0.2,-1.2 0.2,-0.5 1.5,-1.4 2.3,-2.4 0.8,-1 3,-3.5 3.2,-4 0,0 0.7,-0.5 1.4,-0.9 0.1,-0.6 0.3,-1.2 0.3,-1.8 0.9,-0.9 -0.1,-2.2 -0.1,-2.2 z m -3.6,0.5 c 0,0 -0.7,0.4 -1.3,0.3 -0.7,0.2 -1.2,0.2 -1.2,0.2 -1.4,1.4 -2.9,3 -3.1,4 -0.3,1.2 -0.4,1.8 -0.6,2.8 -0.2,0.6 0.5,3.2 0.5,3.2 l -1.5,-1.5 c 0,0 0.2,-0.6 0.4,-1.8 0.2,-1 -0.3,-1.7 0.5,-2.2 0.5,-2.2 1.4,-4.5 3.9,-4.9 z m 7,11.3 c 0,0 0.1,2.9 -0.3,4.7 0.2,1.7 1.1,3.1 1.8,4.4 0.4,1.3 2.2,1.7 2.9,3.6 1,1.3 1.2,2.6 2.1,3.9 -0.1,0.6 -0.3,1.2 -0.3,1.8 0,0 -0.2,0.5 -0.2,0.5 0,0 -0.1,0.5 -0.6,0.4 l 0.3,-1.1 c 0,0 0,0 0,0 0,0 0,0 0,0 0.1,-0.6 0.1,-0.6 -0.4,-1.2 0.3,-1.1 -1,-3.3 -1.4,-4.4 -1.1,-0.8 -3.1,-2.4 -3.8,-4.3 -0.5,-0.8 -1.7,-3.3 -1.4,-5 0.5,-2.3 1.1,-2.1 1.3,-3.3 z m -4.1,5.6 c 0,0 -0.2,1.1 -0.4,1.7 0.4,1.3 0.1,2.3 0.5,3.1 0.4,1.2 2.6,2.2 3.5,3.5 1.4,1.6 3,2.4 3.4,3.2 0.7,2.5 -0.2,4 0,5.8 -0.2,1.2 -1.1,2.2 -2,3.7 -0.2,1.1 -0.4,2.2 -0.4,2.2 l -1,-0.8 c 0,0 0.1,-0.6 0.8,-1.5 0.9,-1.6 1.2,-2.7 1.9,-3.2 -0.1,-2.3 0.2,-4 -0.1,-5.2 -0.5,-0.7 -1.9,-2.2 -3.3,-3.6 -1,-1.5 -3.1,-2.4 -3.4,-3.7 -0.5,-3.1 -0.3,-4.2 0.5,-5.2 z"
         id="path390-0-4"
         style="fill:#cc0000;stroke:none" />
      <path
         class="detail"
         d="m 442.7,454 c 0.7,1.9 1.4,3.9 1.8,5.1 0.9,1.9 1.9,5.1 1.4,7.4 0.1,2.2 -0.2,4 -1.7,5.4 -1.8,2.6 -3.4,2.2 -5.2,2.5 -1.3,0.9 -3.6,0.5 -5.6,1.2 -1.7,0.1 -3.6,0.4 -5.1,2.4 -0.8,0.4 -1.6,1.4 -1.2,2.7 -0.7,0.4 -0.9,1 -0.9,1 h -0.5 c 0,0 0.1,-0.6 0.4,-1.8 0.2,-1.2 1,-2.1 1.7,-2.5 1.3,-1 3.5,-2.8 5.1,-2.5 2.2,-1.4 3.8,-1 6.3,-1.7 1.8,-0.3 3,0 3.9,-1.5 1.6,-2 1.9,-3.7 2.3,-5.4 -0.1,-2.3 -1.5,-4.5 -1.6,-6.8 -0.3,-1.8 -1.4,-3.8 -1.6,-5.6 -1.3,-2.6 -4.5,-6.7 -4.5,-6.7 1.9,1.5 4.2,4.8 5,6.8 z"
         id="path392-7-4"
         style="fill:#cc0000;stroke:none" />
      <path
         class="detail"
         d="m 333.6,540.5 c 0,0 -0.1,0.6 -0.7,0.4 -0.1,0.6 -0.3,1.1 -0.3,1.1 -1.3,1 -2.4,1.3 -4.3,2 -2.6,0.7 -5,0.8 -6.6,0.4 -1.3,0.4 -2.5,0.7 -3.2,1.1 -0.2,0.6 -0.7,0.5 -0.7,0.5 0,0 0,0 0,0 0,0 0,0 0,0 0,0 0,0 0.1,-0.6 -0.2,1.2 -1.7,-0.3 -0.3,-1.2 0.6,0.1 2.5,-0.7 3.8,-1 1.8,-0.2 4,0.3 5.7,0.6 0,0 2.6,-1.2 3.3,-1.6 0.7,-0.5 3.2,-1.7 3.2,-1.7 z m 25.3,5.8 c -0.2,1.2 -1.3,3.8 -1.2,5.6 1.4,1.5 1.5,3.3 3.1,4.8 l -1.1,2.1 c -1.3,-2 -2,-4.5 -2.7,-6.5 -0.2,-1.7 0.8,-3.8 1.9,-6 z m -11.7,-0.6 c 0,0 -1.3,3.2 -2.8,4.7 -2,1.4 -5.8,2.8 -7.2,4.4 -0.4,1 -0.7,2.8 -0.9,3.9 -0.3,1.1 -0.5,2.2 -0.5,2.2 l -1.1,-0.3 c 0,0 0.3,-1.2 0.5,-2.2 0.2,-1 0.4,-2.8 1.4,-3.8 1.7,-2.6 6.7,-3.8 8.2,-5.4 z"
         id="path394-27-7"
         style="fill:#cc0000;stroke:none" />
      <path
         class="secondary"
         d="m 380.6,550.5 c -1.4,-1.7 -4.2,-0.4 -5.8,1.5 -1.5,1.8 -2.5,6.4 -0.4,6.8 5,1.5 8,5.9 10.1,10.1 2.9,-6.6 1.1,-13.5 -3.9,-18.4 z m -39.4,14.2 c -0.4,-2.2 2.4,-3.2 4.8,-3.1 2.4,-0.1 6.6,2.3 5.5,4 -2.3,4.8 -1.1,9.9 0.9,14.3 -6.9,-2.1 -10.8,-8.1 -11.2,-15.2 z m -22.2,-12 c 1.5,-1.5 4,0.2 5.2,2.4 1.4,2 1.5,6.7 -0.6,6.8 -5.1,0.6 -8.8,4.3 -11.4,8.6 -2,-7.1 0.9,-13.6 6.8,-17.8 z m -6.7,-26.3 c 2.1,-0.2 3,2.6 2.7,5.1 -0.2,2.4 -2.8,6.4 -4.7,5 -4.4,-2.5 -9.6,-1.7 -14.2,-0.1 2.7,-6.7 9,-10.2 16.2,-10 z"
         id="path396-4-77"
         style="fill:#ff9900" />
      <path
         d="m 234.3,228.4 c -8.5,23.3 -30.1,32.6 -35.9,35.9 -7.3,4.6 -34.6,11.3 -38.7,-0.3 -0.7,-2.3 0,-5.1 -0.4,-8 -0.5,-2.6 -1,-4.9 -3.1,-6.3 -9.3,-5.9 -18.2,3.4 -18.2,12.9 -4,-3 -8,-3.3 -11.2,-1.7 -6.7,3 -10.2,13.2 -2.6,18.9 2,1.4 6.9,-0.3 8,2.1 0,0 1.4,2.3 2.3,3.2 0.7,0.9 2.2,2.5 2.2,2.5 0,0 -5.9,1.1 -7.2,2.5 -8,9.8 6.9,23.3 16.9,16.6 1.7,-1.9 2.5,-3.2 4.4,-4.9 2.2,-2.2 10.3,-4.3 10.3,-4.3 -3.8,7.2 -0.9,9.1 -1.4,11.4 0.1,1.2 -1,3.2 -2.6,4.6 9.5,-1.2 13.7,-4.4 17.6,-13.4 0.9,5.2 1.6,9.2 -0.7,14.3 0,0 7.4,-1.9 10.5,-5.6 3.4,-2.3 8.1,-11.4 8.1,-11.4 2.1,4.3 1.6,7.7 -0.5,12.9 8,-4.5 12.6,-7.8 13.7,-16.8 0.4,-1.7 2.4,-2.7 2.4,-2.7 -0.3,7.1 5.8,5.9 2.6,13.4 9,-5.2 9.9,-6.4 14.9,-19.8 3.3,4.2 3.9,7.5 1.8,12.1 3.8,-1.4 11.9,-6 9.5,-14.8 4.9,1.9 5.8,4.3 6.3,7.4 2.5,-2 5.1,-7.2 1.9,-16.8"
         id="path398-9-38" />
      <path
         class="detail"
         d="m 277.5,242.6 c 0,0 0.3,2.9 0.5,4.7 0.3,1.1 0.9,3.2 1.5,4.1 0.5,0.4 0.8,0.9 1.4,1.6 0.4,0.5 1,1 0.9,1.9 v 0 c 0.4,2.2 -0.6,3.8 -2.1,4.9 -1.8,1.2 -4.4,1.8 -6.9,2.4 -2.5,0.5 -4.8,0.7 -6.1,1.2 -3.8,1.2 -8.8,3.8 -11.3,7.4 v 0 c -0.1,0.1 -1.4,2.1 -2.1,3.8 -0.6,1.1 -0.7,2.4 -1,3.6 0,1.3 0,2.2 0,2.2 v 0.6 l -0.6,-0.1 c -1.5,-0.6 -2.7,-1.7 -3.7,-3.1 -0.8,-0.8 -1.4,-1.8 -2,-2.5 l -0.7,-1.6 -0.1,-1.5 0.9,1.3 c 0.6,1.2 1.5,2.6 2.6,3.9 0.8,1 1.7,1.9 2.8,2.3 -0.1,-0.3 0,-0.6 0.1,-1.6 0,-1.3 0.3,-2.8 0.8,-3.8 1,-1.8 2.3,-3.9 2.3,-3.9 v 0 0 c 2.6,-3.8 7.8,-6.6 11.7,-7.8 1.4,-0.5 3.8,-0.8 6.2,-1.3 2.6,-0.5 5,-1.2 6.5,-2.1 1.5,-1.1 2.1,-2.3 1.9,-4.1 v 0 c -0.1,-0.7 -0.3,-1.1 -0.7,-1.6 -0.6,-0.5 -1.1,-1 -1.4,-1.7 -0.9,-1.1 -1.5,-4.1 -1.5,-5.3 z"
         id="path400-5-8"
         style="fill:#cc0000;stroke:none" />
      <path
         class="detail"
         d="m 137,287.3 c 0,0 4.8,0.3 6.6,0 l 10.8,-0.9 c 0,0 -7.8,1.6 -11.2,2.1 -2,-0.2 -6.7,-0.4 -6.7,-0.4 z m 1.1,-25.2 c 0,0 2.5,0.9 5.1,4.3 3.2,4 5.6,7.2 10.1,9.4 2.3,1 6.9,1.7 6.9,1.7 -4.1,0.7 -7.5,-0.5 -10.9,-2.5 -2.9,-1.8 -4.9,-5.7 -7,-8 -3.1,-3.4 -4.1,-3.6 -4.1,-3.6 z"
         id="path402-1-9"
         style="fill:#cc0000;stroke:none" />
      <path
         class="secondary"
         d="m 129.2,293.7 c 1.8,-1.2 4.1,0.8 5.1,3 1.1,2.2 0.8,6.9 -1.5,6.8 -5.1,0 -9.2,3.2 -12.3,7.1 -1.2,-7.2 2.6,-13.3 8.7,-16.9 z m -3.6,-31 c 2.1,0.3 2.2,3.4 1.4,5.7 -0.7,2.2 -4.2,5.5 -5.7,3.8 -3.6,-3.7 -8.9,-4 -13.8,-3.6 4.3,-6 11.2,-7.8 18.1,-5.9 z M 151.2,250 c 1.6,1.5 0.2,4.2 -1.8,5.7 -1.8,1.5 -6.4,2.5 -6.8,0.3 -1.3,-5 -5.6,-8.2 -10,-10.2 6.8,-2.9 13.6,-0.7 18.6,4.2 z"
         id="path404-6-2"
         style="fill:#ff9900" />
      <g
         id="head-3-4">
        <path
           class="secondary"
           d="m 260.7,77.72 c 11.6,-3.57 2.8,-18.56 37.6,-23.52 -5.9,5.33 -5.4,6.83 -6,10.34 8.4,-7.3 19.4,-10.75 31.7,-6.87 -11.9,3.45 -15.6,4.89 -18,9.48 9.1,-4.66 18.2,-4.4 32.7,-0.52 -4.4,1.95 -6.9,3.93 -8.4,6.73 32.8,3.68 8.6,41.14 44.5,60.74 -7.1,2.8 -16.3,0.6 -24,-5.4 7.7,6.4 13.9,19.3 11.7,28.5 -3.4,13.4 1.6,17.6 -1.5,29.3 -9.1,34.5 -18,45.5 -7.5,66.6 -26.2,-11.1 -22.2,-23 -24.4,-38.8 -9.5,17.6 -2.4,30.6 9.8,44.6 -19,-1.4 -28.2,-14.7 -35.9,-27.1 -6.9,20.1 4.7,23.8 -6.6,43.7 2.4,-25.5 -13.9,-19.9 -23.3,-43.2 7.3,24.6 -2.9,26.8 2,40.5 -11.9,-6.5 -8.6,-25.3 -19.9,-33.3 -1.2,9.9 0,18.6 2.5,26.7 -13.7,-9.2 -17.7,-9.6 -21.5,-32.3 -6.9,11 -6.9,21.9 -4.6,32.6 -10.7,-9.4 -15.1,-24.7 -9.7,-34 -5.3,-0.5 -9.2,10.4 -9.2,17.5 -23.2,-55.7 41.5,-65.8 45,-102.6 l 12.2,-4.3 5.1,-40.6 z"
           id="path406-80-4"
           style="fill:#ff9900" />
        <path
           id="mouth-9-5"
           style="fill:#552200"
           d="m 258.4,117.1 c 4.6,3.9 3.2,20.4 0.2,34.4 0,0 11.5,-10.8 14.2,-13.3 2.2,-1.9 3.8,-5 4.4,-8.2 0.6,-3.2 0.2,-7 -1.5,-9.8 -1.7,-2.9 -4.6,-5 -7.7,-5.6 -3.2,-0.8 -9.6,2.5 -9.6,2.5 z" />
        <path
           id="tongue-7-7"
           style="fill:#ff5555"
           d="m 219,129.9 c 0,0 -0.6,5.3 1.3,8.1 2.1,3.5 5.5,6.3 9.8,6.4 6.7,0.4 15.7,-6.5 22.5,-7.4 10,-1.7 27.5,4 27.5,4 l -4.3,-13.8 c 0,0 -15.7,-2.9 -24.4,-1.6 -7.4,1.4 -14.7,9.7 -22.1,11.6 -2.2,0.3 -3.5,-0.5 -5.4,-1.5 -2.4,-1.1 -4.9,-5.8 -4.9,-5.8 z" />
        <path
           id="teeth-2-0"
           style="fill:#ffffff"
           d="m 253.3,117.2 c -0.4,4 -2,6.3 -0.9,11.3 -4.9,-1.6 -6.7,-4.9 -6.9,-10.9 z m -9.4,-1.5 c -0.8,4 -2.6,6 -1.8,11.3 -4.8,-1.9 -6.4,-5.5 -6.3,-11.3 z m 18,32.1 c -1.3,-3.6 -3.5,-5.3 -3.7,-10.6 -4.5,3 -5.4,6.8 -4,12.3 z" />
        <path
           id="face-5-8"
           d="m 324.7,118.1 c 7,-3.7 14.2,-14.9 10.4,-26.67 -2.6,-8.1 -12.9,-9.18 -23,-2.79 -4.7,-10.68 -34.4,-15.45 -51.4,-10.92 -4.1,1.28 -7.2,3.14 -7.6,7.09 -6.4,2.32 -19.6,3.25 -23.9,7.66 -2.5,2.67 -0.2,7.53 1.6,8.63 -3.8,4.4 -0.8,17 4.8,15.2 6.7,7.3 22.7,3.7 25.9,2.4 0,0 5.4,-1.4 7.8,-0.1 2.5,1.1 4.2,3.9 4.9,6.8 0.6,3.3 -3.5,11.7 -5.6,14.4 -2.1,2.5 -3.8,7.3 -7,7.4 -3.8,0 -3.7,-0.2 -9.4,-2 -3,-0.9 -8.9,-1.5 -11.2,0.5 -0.8,1 -0.8,3.1 -1.1,4 -1.2,3.3 -3,3.7 -3.8,6.3 -2,7.2 1.4,9.3 -3.6,11.5 6.9,2 13.9,-2.4 15.6,-6.8 0.3,1.1 1,2.5 0.3,5.1 5,0.5 5,-4.5 7.3,-7.1 -0.1,1.6 0.3,3.1 1.8,5.1 2,-2.4 3.5,-5.8 6.5,-7.2 13.5,1.8 11.6,-13.4 12.3,-18 3.5,4.9 9.3,7.3 15.8,7.5 6.8,0.2 8.1,-3.8 15.6,-1.2 1.2,-1.9 1.4,-3.9 0.3,-6.5 2.5,0.9 4.9,1.3 7.5,0.2 0.8,-2.3 0.2,-4.3 -0.5,-6.5 2.2,0.2 4.1,1.1 6.3,-0.3 -0.4,-2 0.4,-3.1 -1.3,-6.2 2.2,0.8 4.1,-0.1 6.4,-0.9 -0.5,-2.2 1.2,-3.2 -1.7,-6.6 z" />
        <path
           style="fill:#552200;stroke:none"
           d="m 237.3,118.2 4.9,1.1 c -8.2,-4.2 -8.2,-15.7 -6.3,-17.7 l -1,0.4 c -1.9,1.4 -1.4,12.4 2.4,16.2 z"
           id="path412-1-4" />
        <path
           class="detail"
           d="m 331.6,92.32 c -1.1,-2.32 -3.3,-2.94 -5,-3.23 -1.8,-0.34 -3.6,-0.11 -5.4,0.58 -4.2,1.41 -8.4,4.31 -12.5,12.03 l -0.8,1.6 1.4,-0.7 c 1.8,-0.7 3.6,-1.5 5.1,-1.7 -0.8,1.8 -1.5,3.5 -1.4,5.5 l 0.1,0.8 0.8,-0.3 c 1.2,-0.6 2.3,-1.1 3.8,-1.3 -0.9,1.6 -1.8,3.2 -1.9,5.2 v 0.7 l 0.6,-0.2 c 1.3,-0.1 2,-0.4 3.6,-0.5 -0.5,1.7 -0.7,2.7 0.3,3 0,-1.1 0.4,-2.3 1,-3.5 l 0.3,-1 -0.8,0.1 c -2.4,0.1 -2.7,0.4 -3.6,0.7 0.4,-1.6 1.2,-3.4 2,-5.2 l 0.4,-0.8 h -0.8 c -2,0 -3.2,0.5 -4.4,1.3 0.1,-1.7 0.7,-3.2 1.4,-4.9 l 0.3,-0.84 -0.6,-0.11 c -1.6,-0.24 -3.2,0.34 -4.9,1.15 3.7,-6.26 7.3,-8.81 10.9,-9.97 2.2,-0.7 6.9,-1.26 10.1,1.59 z m -19.3,-3.21 -0.5,-0.94 c -1.9,1.16 -3.5,2.43 -5,3.6 -1.7,1.63 -2.5,3.37 -3,5.34 1.8,-2.56 4.3,-5.34 8.5,-8 z m -46.8,18.79 c -0.2,-4.3 -2.7,-8.01 -6.4,-9.4 2.9,2.2 5.1,5.6 5.2,9.4 0,2.9 -1.2,6.5 -3.7,8.6 3.6,-1.4 4.9,-5.3 4.9,-8.6 z"
           id="path414-3-5"
           style="fill:#cc0000;stroke:none" />
        <path
           style="fill:#552200;stroke:none"
           d="m 249.4,111.2 c -0.8,0 -1.4,0.5 -1.4,1.3 0,0.7 0.6,1.3 1.4,1.3 0.6,0 1.5,-0.6 1.5,-1.3 0,-0.8 -0.9,-1.3 -1.5,-1.3 z m 5.3,-0.4 c -0.7,0 -1.4,0.5 -1.4,1.3 0,0.7 0.7,1.4 1.4,1.4 0.7,0 1.3,-0.7 1.3,-1.4 0,-0.8 -0.6,-1.3 -1.3,-1.3 z m 3.6,-1.6 c -0.6,0 -1.4,0.6 -1.4,1.5 0,0.6 0.8,1.3 1.4,1.3 0.9,0 1.4,-0.7 1.4,-1.3 0,-0.9 -0.5,-1.5 -1.4,-1.5 z m -9,-2.6 c -0.8,0 -1.3,0.6 -1.3,1.3 0,0.8 0.5,1.4 1.3,1.4 0.7,0 1.3,-0.6 1.3,-1.4 0,-0.7 -0.6,-1.3 -1.3,-1.3 z m 5.1,-0.5 c -0.9,0 -1.4,0.5 -1.4,1.3 0,0.7 0.5,1.3 1.4,1.3 0.8,0 1.4,-0.6 1.4,-1.3 0,-0.8 -0.6,-1.3 -1.4,-1.3 z m 4.3,-2.4 c -0.8,0 -1.4,0.6 -1.4,1.3 0,0.9 0.6,1.5 1.4,1.5 0.6,0 1.4,-0.6 1.4,-1.5 0,-0.7 -0.8,-1.3 -1.4,-1.3 z M 229.1,92.58 c -1.5,2.67 -0.6,5.69 1.2,8.02 0.9,0.7 1.3,1 2.2,0.8 0,0 0.5,2 0.8,2.7 0.6,1.5 1.5,2.4 1.5,2.4 0,0 0.6,-2.2 1,-3.2 0.5,-1.1 1.1,-1.8 2.4,-2.2 1.4,-0.9 3.5,0.1 4.7,-1 0.8,-0.55 1.8,-3.33 1.8,-3.33 0,0 -2.4,0 -5,-0.59 -1.9,-0.34 -6,1.86 -6,1.86 -2.2,-1.4 -4.2,-2.67 -4.6,-5.46 z"
           id="path416-94-4" />
        <g
           id="eye-1-0">
          <path
             class="detail"
             d="m 258.7,90.34 c -1.4,-0.38 -1.3,-0.94 -1.3,-0.94 l -0.3,-0.92 1,0.27 v 0 0 c 0,0 3.5,1.07 9,0.55 2.3,-0.24 5.3,-1.75 8,-2.26 1.3,-0.2 2.8,-0.32 3.8,0.52 1.2,0.81 2,2.15 2.4,4.32 -1.2,-0.14 -1.5,-1.94 -3,-3.16 -0.7,-0.52 -1.6,-0.51 -2.8,-0.27 -2.4,0.48 -5.4,1.96 -8.2,2.27 -5.2,0.47 -7.3,0.1 -8.6,-0.38 z"
             id="path418-1-7"
             style="fill:#cc0000;stroke:none" />
          <path
             style="fill:#ffffff"
             d="m 262.5,93.62 c 0.5,2.03 4.4,4.91 7.8,4.2 3.5,-0.67 5.3,-4.8 4.8,-6.91 -0.6,-2.06 -3.3,-1.05 -6.8,-0.29 -3.4,0.72 -6.3,0.87 -5.8,3 z"
             id="path420-56-4" />
          <path
             style="fill:#552200;stroke:none"
             d="m 264.4,94.53 a 3.006,2.752 63.05 0 0 3.2,2.71 3.006,2.752 63.05 0 0 2.4,-3.28 3.006,2.752 63.05 0 0 -3.3,-2.62 3.006,2.752 63.05 0 0 -2.3,3.19 z"
             id="path422-1-5" />
          <path
             style="fill:#000000;stroke:none"
             d="m 266.7,93.05 c 0.7,0 1.6,0.42 1.6,1.27 0.2,0.86 -0.3,1.49 -1.2,1.55 -0.8,0.12 -1.5,-0.47 -1.6,-1.23 -0.1,-0.82 0.5,-1.51 1.2,-1.59 z"
             id="path424-48-5" />
          <path
             style="fill:#ffffff;stroke:none"
             d="m 265.9,92.74 c 0.5,-0.1 1.1,0.3 1.2,0.9 0.1,0.61 -0.4,1.05 -0.9,1.1 -0.5,0.1 -1,-0.32 -1.1,-0.9 0,-0.61 0.4,-1.08 0.8,-1.1 z"
             id="path426-6-8" />
        </g>
        <path
           style="fill:#ff9900;stroke:none"
           d="m 316.8,78.84 -4.7,9.8 c -9,16.46 -7.7,23.76 12.6,29.46 12.7,1.6 10.9,23.6 9.5,26.4 -15,27.6 -55.7,11.5 -58.5,-7.7 23.1,-12.9 3.6,-24.1 -4.8,-25.5 14.6,0.2 43.8,-28.06 25.4,-28.48 -23.8,-0.54 -9.8,-7.32 -33.8,-4.84 4.7,-5.09 6.5,-4.34 9.1,-5.34 l 9,-2.78"
           id="path429-7-2" />
      </g>
    </g>
    <path
       style="stroke:#00ff00"
       d="M 598,2 300,2"
       id="path3021" />
  </g>
  <g
     id="layer1"
     style="display:inline">
    <path
       d="m 2,2 v 257 c 0,286 298,398 298,398 0,0 298,-112 298,-398 V 2 z"
       id="shine"
       style="fill:url(#radialGradient3074);stroke:#000000;stroke-width:3" />
  </g>
</svg>
