<?xml version="1.0" encoding="UTF-8"?>
<svg xmlns="http://www.w3.org/2000/svg" xmlns:xlink="http://www.w3.org/1999/xlink" width="600" height="660">
  <defs>
    <radialGradient id="rg" gradientUnits="userSpaceOnUse" cx="220" cy="220" r="405">
      <stop style="stop-color:#fff;stop-opacity:.3" offset="0" />
      <stop style="stop-color:#fff;stop-opacity:.2" offset=".2" />
      <stop style="stop-color:#666;stop-opacity:.1" offset=".6" />
      <stop style="stop-color:#000;stop-opacity:.13" offset="1" />
    </radialGradient>
    <linearGradient id="border" gradientUnits="userSpaceOnUse" x1="0" x2="600">
      <stop style="stop-color:#008000;" offset="0" />
      <stop style="stop-color:#008000;" offset=".5" />
      <stop style="stop-color:#8b4513;" offset=".5" />
      <stop style="stop-color:#8b4513;" offset="1" />
    </linearGradient>
    <circle id="c" cx="150" cy="300" r="50" />
    <path id="shield" d="m2,2v257c0,286 298,398 298,398c0,0 298-112 298-398V2z" />
       <g id="knight" style="stroke-width:1;stroke-linecap:round;stroke-linejoin:round;">
      <path d="m 398.7987,342.82324 c 0,0 6.06137,8.38321 -3.36976,8.91282 0,0 0.92519,-4.65663 -0.22443,-6.04845 z" />
      <path
         d="m 345.71414,164.9947 c 0,0 3.50377,10.90045 3.65554,12.29388 l 1.80517,1.9295 -11.04737,14.18947 -4.88591,-3.4521 c 0,0 -8.49947,0.93649 -15.88161,-8.15717 l -7.29657,-8.50916 16.92145,-11.26859 z" />
      <path
         d="m 333.83344,158.70084 c 6.90744,-6.47794 10.14479,-4.41766 7.22068,4.58396 -2.91927,9.01455 -9.51831,18.18248 -16.23684,24.79121 -6.71691,6.58935 -9.12272,5.06351 -6.12433,-3.88483 3.02261,-8.95319 8.23467,-19.00594 15.14049,-25.49034 z" />
      <path
         d="m 409.49026,40.943474 -67.02259,120.644346 -7.69699,-4.88429 69.23787,-119.23315 6.68139,-4.477401 -1.19968,7.950495" />
      <path d="m 339.77445,158.96725 65.07533,-116.972645 -66.19428,116.267045 z" style="fill:none;" />
      <path
         d="m 324.56863,188.80421 c 0.22605,-0.20506 0.44241,-0.41658 0.66039,-0.62164 l -7.98279,-0.31001 c -0.0533,0.22121 -0.0807,0.44242 -0.12271,0.65555 z m 3.59096,-3.66846 c 0.20022,-0.21314 0.38751,-0.42465 0.57643,-0.63617 l -10.44189,-0.39236 c -0.0775,0.2099 -0.14047,0.43111 -0.21475,0.6394 z m 3.15501,-3.68462 c 0.16792,-0.21959 0.33746,-0.43595 0.50215,-0.64908 l -12.19861,-0.46502 c -0.0775,0.21959 -0.15016,0.43273 -0.24058,0.65878 z m 2.7675,-3.71044 c 0.14693,-0.21152 0.28902,-0.4295 0.44402,-0.64101 l -13.33855,-0.51023 c -0.0969,0.21798 -0.20022,0.43757 -0.29387,0.64586 z m 2.41066,-3.72659 c 0.12755,-0.20829 0.25511,-0.42627 0.38105,-0.64263 l -13.86654,-0.52153 c -0.12433,0.21959 -0.22928,0.43111 -0.34069,0.64101 z m 2.06512,-3.72983 c 0.1098,-0.22282 0.21636,-0.43918 0.3197,-0.65393 l -13.78419,-0.51184 c -0.13402,0.20829 -0.26158,0.4182 -0.39398,0.63617 z m 1.75189,-3.74112 c 0.0565,-0.14047 0.10495,-0.28256 0.16792,-0.42465 0.0274,-0.0743 0.0678,-0.15501 0.0937,-0.23089 l -13.06729,-0.49247 c -0.14532,0.20667 -0.29225,0.41981 -0.43596,0.63294 z m 1.3563,-3.76373 c 0.0694,-0.21798 0.14693,-0.42949 0.20344,-0.65716 l -11.51724,-0.42626 c -0.19214,0.2099 -0.37298,0.4198 -0.55543,0.63455 z"
         style="fill:none;" />
      <path d="m 352.05039,171.20352 -30.12932,-19.10867 2.52349,-3.97888 30.12932,19.10867 z" />
      <path
         d="m 327.62192,188.3182 c -1.88268,2.95641 -5.79657,3.83316 -8.74813,1.94887 -2.96448,-1.87298 -3.82993,-5.7901 -1.94887,-8.74813 l 0.003,-0.006 c 1.87298,-2.96126 5.78687,-3.83478 8.75458,-1.96018 2.94834,1.87783 3.8267,5.79656 1.94403,8.75943 z" />
      <path
         d="m 320.83558,187.17665 c -1.24328,-0.79118 -1.61464,-2.45264 -0.82831,-3.69915 v 0 c 0.79763,-1.25134 2.45425,-1.61302 3.69914,-0.82508 1.24489,0.78633 1.61787,2.4365 0.82347,3.69269 -0.79279,1.24489 -2.4478,1.6211 -3.6943,0.83154 z" />
      <path
         d="m 327.88527,171.19493 c 0,0 1.83584,3.84607 -3.31325,3.53283 l -9.32617,-4.61464 c 0,0 -0.59903,-2.22336 0.48117,-3.58128 0,0 1.26426,-1.39182 3.31647,-0.36329 z" />
      <path
         d="m 321.67697,161.29395 c 0,0 -2.22175,-0.99301 -3.55706,1.27395 0,0 -1.36437,2.03606 -0.71205,3.21959 l 1.63563,0.38106 8.84178,5.02799 c 0,0 1.33692,0.82185 2.96609,-1.95856 0,0 1.04306,-1.73089 -3.45372,-4.11087 z" />
      <path
         d="m 330.11831,161.09535 -5.68676,-3.98817 c 0,0 -3.82024,-0.29386 -3.859,3.95426 l 1.10442,0.23412 3.49247,2.34123 4.84231,3.30679 c 0,0 0.49892,0.87998 2.14424,-0.23736 0,0 2.95157,-1.69053 -0.37298,-3.35199 z" />
      <path
         d="m 312.06339,173.28912 c 0,0 8.90637,5.53983 9.98818,5.7788 0,0 4.21905,-0.11626 2.23466,-3.68623 l -9.03876,-5.26857 c -0.002,0 -3.60711,-0.66039 -3.18408,3.176 z" />
      <path
         d="m 337.73296,178.9226 c 0,0 -6.03068,-1.75511 -2.36868,-11.68516 l 2.74651,3.00808 c 0,0 -2.90958,-3.12918 -4.54037,-5.06513 0,0 -4.61303,1.48547 -6.20184,1.48224 0,0 -4.55006,-3.0323 0.0339,-4.59204 0,0 4.4112,-1.58074 5.60119,-2.02153 l 9.01293,3.2099 3.69753,1.73736 2.76749,8.92251 0.88805,3.37137 1.80517,1.9295 -11.04737,14.18946 -4.88591,-3.4521" />
      <path
         d="m 341.53706,191.59592 c 0,0 11.18946,11.90152 29.09584,21.02909 l 18.25675,9.82832 c 0,0 5.96771,-8.03768 5.61895,-15.4279 0,0 7.7196,-4.58235 7.7196,-7.38859 0,0 4.91497,19.30626 8.07482,25.62758 0,0 -6.6717,3.50862 -2.10549,8.42682 l -3.51185,11.23467 c 0,0 -5.26373,23.87248 -14.04092,35.80952 0,0 2.80948,4.91658 4.91174,5.97256 0,0 -25.28044,49.14807 -28.43545,52.65668 0,0 -0.35038,4.56782 2.80625,8.78042 0,0 -1.04952,27.38271 -3.15663,47.74495 0,0 -1.05436,10.18031 2.10711,14.04092 0,0 -0.70398,13.34017 -7.0253,17.55761 0,0 -30.54256,12.98818 -32.99843,17.20078 v 4.56136 h 59.68199 l -2.80948,-33.70403 c 0,0 4.5646,-15.44566 5.26696,-18.60228 0,0 9.12919,-23.87893 2.80787,-37.56786 0,0 2.80463,-8.77719 1.40312,-13.69055 0,0 19.65987,-15.44888 25.63082,-22.11897 0,0 12.63941,-16.50002 15.09689,-28.08669 h 10.52908 c 0,0 5.61895,29.49304 20.71585,49.85529 0,0 -0.70398,16.84878 5.61572,22.46773 0,0 -0.35037,11.58667 4.21422,26.68034 0,0 10.88268,34.40639 10.1787,42.48121 0,0 -2.80787,10.88268 2.1071,16.8504 0,0 -3.50861,14.39614 0,16.50163 l 14.39453,3.859 9.82994,4.9182 c 0,0 8.7788,-0.34877 9.47956,-2.45749 v -7.01885 c 0,0 -16.14965,-26.33318 -17.89992,-31.95213 l 1.05113,-26.68195 c 0,0 -2.1071,-38.26539 -6.32132,-44.23633 v -9.47956 l -2.80786,-8.07321 -0.70075,-7.37245 -3.86384,-6.47633 c 0,0 -0.69914,-25.47258 -10.5323,-46.88919 l 5.26696,-3.85899 -6.31971,-20.01025 -11.93543,-34.05763 c 0,0 3.15985,-8.07482 -2.45748,-9.48117 0,0 9.82832,-17.90153 9.82832,-23.17011 0,0 3.86222,-10.5323 5.61734,-11.93704 l 15.80249,17.204 c 0,0 -2.80948,5.96772 2.10388,6.6717 0,0 -0.0565,5.61572 1.72605,5.26373 0,0 0,28.5404 2.93219,47.67229 l 15.00002,-4.16578 c 0,0 1.05274,-9.45372 3.51184,-48.0711 l 4.91497,-10.53231 c 0,0 5.26696,-6.67169 -8.42681,-12.64102 0,0 -12.63942,-14.96934 -14.04092,-15.2067 l -8.78042,-15.03554 c 0,0 -16.14803,-24.52479 -22.46451,-26.63189 0,0 -3.16147,-5.96449 -12.9914,-2.45587 0,0 -10.8843,-11.23791 -7.37407,-25.27883 0,0 20.71746,-29.137817 -13.34178,-39.319745 0,0 -19.65665,-1.052747 -25.27883,11.585052 l -9.47633,18.258365 9.12918,23.517248 c 0,0 4.56459,4.56621 9.47795,3.86546 0,0 2.1071,7.72605 2.1071,11.58343 0,0 -11.93865,-0.34876 -13.69054,7.02369 0,0 -14.74652,6.48279 -14.74652,20.79497 l -6.6717,14.69808 -8.4252,9.79603 -2.80624,-1.7535 -8.77881,3.86061 -0.35199,3.15662 c 0,0 -15.18893,-1.4774 -21.46181,-8.45911 z" />
      <path
         d="m 412.05814,144.77939 c 0,0 -16.06407,21.33103 -15.54093,39.76055 0,0 16.85363,-1.10442 21.59745,-12.40206 0.002,0.002 8.42358,-11.29442 -6.05652,-27.35849 z" />
      <path style="fill:none;"
         d="m 402.02153,183.61475 c 0,0 -1.38214,10.0576 0.20506,16.02531 m -10.8843,-24.89455 5.84014,1.98117 m -2.24273,-9.9042 4.25781,2.28633 m -1.18353,-9.06137 4.00753,1.9731 m -19.10443,22.52101 11.58991,22.48712 m -23.52695,-17.22339 -0.34875,22.82135" />
      <path d="m 423.63996,158.21805 c 0,0 -10.73091,23.76591 -7.04307,70.10935" style="fill:none;" />
      <path d="m 410.30141,225.26604 c 0,0 18.69754,14.39453 56.17337,-4.21583" style="fill:none;" />
      <path d="m 461.20944,128.0178 c -15.0969,4.82616 -29.40424,18.07914 -29.40424,18.07914 l -5.35254,-13.86654"
         style="fill:none;" />
      <path
         d="m 412.76051,139.25248 c 1.08019,10.95049 9.24059,22.04631 21.28258,20.72553 5.39452,-0.59096 12.85578,-3.83961 17.37677,-6.64586 6.6055,-4.10442 12.42628,-10.23198 17.24599,-16.27236 0,0 4.96179,-4.34661 10.38537,-2.92088"
         style="fill:none;" />
      <path
         d="m 475.63141,176.72669 c 0,0 -5.12003,26.87732 -26.97097,19.05438 0,0 -20.48818,-10.71799 -2.96125,-39.55064"
         style="fill:none;" />
      <path d="m 468.93227,230.53138 c 0,0 -30.36818,17.55439 -60.73636,3.16147" style="fill:none;" />
      <path
         d="m 435.93222,295.48033 c -3.77664,0 -4.12863,-7.45964 -4.12863,-7.45964 l -6.61196,-49.25948 -7.35469,18.02747 -12.10012,29.65128 c 0,0 -6.13887,4.8197 -10.18193,0.26964"
         style="fill:none;" />
      <path d="m 481.92044,288.45826 c 0,0 -24.92522,7.02207 -35.45752,7.02207" style="fill:none;" />
      <path style="fill:none;"
         d="m 397.18243,268.61594 13.69541,5.21853 m -7.88916,-22.25784 14.84826,5.21042 m 12.20023,18.05817 c 0,0 23.12812,8.32832 52.6034,-4.6534 m -54.83322,-11.95319 c 0,0 27.34072,6.96395 49.1077,-4.9295" />
      <path
         d="m 399.42034,340.66122 a 3.8186269,3.9687884 0 0 1 -3.81862,3.96879 3.8186269,3.9687884 0 0 1 -3.81863,-3.96879 3.8186269,3.9687884 0 0 1 3.81863,-3.96878 3.8186269,3.9687884 0 0 1 3.81862,3.96878 z" />
      <path
         d="m 400.71851,368.06332 a 4.4677129,4.2142138 0 0 1 -4.46772,4.21422 4.4677129,4.2142138 0 0 1 -4.46771,-4.21422 4.4677129,4.2142138 0 0 1 4.46771,-4.21421 4.4677129,4.2142138 0 0 1 4.46772,4.21421 z" />
      <path style="fill:none;"
         d="m 348.09896,433.64843 c 0,0 6.03069,11.21691 4.18515,15.60389 m -6.0549,0 c 0,0 -1.69538,-10.85685 -3.87837,-12.84447 m -6.70884,3.48278 c 0,0 3.73951,4.44672 4.0027,9.36008 m 15.27289,-18.72338 c 0,0 6.05329,13.28527 5.00055,18.72338 m 3.48924,-23.08937 c 0,0 6.27772,11.34124 4.8197,17.2153 0,0 -0.36006,5.87568 1.33047,5.87568 m -1.33047,-40.30791 c 0,0 7.23037,5.20238 8.54468,10.20454 v 7.89882 c 0,0 10.1674,6.59097 11.27343,16.32887 m -18.48603,-80.57545 c 0,0 8.16201,-3.68784 12.5603,-3.15985 l 11.68354,-0.26319 m 27.61521,-54.06465 c 0,0 -13.36761,24.83641 -26.74007,31.06732 m -20.06838,-9.8477 c 0,0 7.4548,-4.89721 13.3224,3.00162 0,0 4.64048,7.2013 6.74598,6.84608 0,0 -7.89721,11.41067 -15.09367,11.23467 0,0 -9.08397,1.62756 -10.02531,0 m 11.21368,-32.58831 c 0,0 22.15611,7.13672 24.78959,12.75729 m -17.63027,-26.37679 c 0,0 7.62434,-0.83638 12.01617,3.20022 0,0 9.97525,8.95319 17.89022,3.15986 0,0 15.50702,-8.27827 13.34501,-24.39724" />
      <path d="m 418.43044,307.57738 10.50677,9.96376 -4.47859,4.72266 -10.50676,-9.96376 z" />
      <path style="fill:none;"
         d="m 511.21972,449.69796 c 0,0 -14.02639,-1.32239 -14.72876,15.70562 0,0 0.2535,5.68031 -1.1916,6.52638 m 18.26482,-18.13727 c 0,0 -10.23037,0.5506 -13.73737,14.76913 0,0 -0.52637,1.61464 0,4.58235 m 17.51725,-12.91713 c 0,0 -9.0872,2.01507 -12.24706,9.03715 v 5.61734 m -0.002,-37.21588 -7.02207,-5.26373 m -8.78044,21.41338 c 0,0 4.21583,3.68623 4.03984,-1.9295 0,0 -4.21583,-7.90044 4.73897,-19.48387 0,0 0.34876,-51.78317 -5.61895,-59.15885 -2.8886,-3.56674 -1.92789,-7.19646 -1.92789,-7.19646 m -8.60442,-31.59692 c 0,0 9.1308,24.18895 -2.10549,27.27614 m -7.02046,6.07751 c 0,0 17.37677,4.21099 19.65987,5.43973 0,0 6.4957,-6.67008 7.37245,-9.38914 m -32.48335,-12.11788 c 0,0 4.04629,8.17008 23.1814,14.31218 0,0 0.65555,-8.29119 6.82186,-15.90422 m -30.16796,-4.8084 14.74168,-10.88592 10.53231,0.89775 m -31.429,0.35845 c 0,0 1.41281,-2.66093 3.17116,-3.71368 0,0 11.6125,-10.86654 27.48604,-6.13402 m -37.99574,-6.02746 c 0,0 2.60926,-4.24328 4.36276,-4.90528 0,0 14.25405,-10.92466 31.44029,-2.63348" />
      <path style="fill:none;"
         d="m 458.82784,92.229275 -6.04683,-4.236819 -8.95157,4.236819 5.79333,9.460185 4.2126,1.04952" />
      <path
         d="m 453.83376,93.613022 a 2.1054924,1.7551153 0 0 1 -2.10549,1.755115 2.1054924,1.7551153 0 0 1 -2.10549,-1.755115 2.1054924,1.7551153 0 0 1 2.10549,-1.755115 2.1054924,1.7551153 0 0 1 2.10549,1.755115 z" />
      <path
         d="m 443.82944,92.229275 c 0,0 -14.56891,5.599576 -28.61468,-17.22338 0,0 -3.58612,24.873551 -0.34715,41.775615"
         style="fill:none;" />
      <path d="m 424.34556,120.64535 c 0,0 22.11736,-5.26535 25.27721,-18.95589" style="fill:none;" />
      <path style="fill:none;"
         d="m 409.94941,89.398807 1.40637,14.129733 m 25.62921,-5.176543 1.62431,9.303563 m -7.94725,-11.76266 2.10872,15.27289 m -8.42521,-17.552767 c 0,0 1.40635,16.852017 2.1071,19.307877 m -7.11895,-23.522091 c 0,0 -1.40151,11.937041 0.40043,23.522091" />
      <path
         d="m 504.48505,262.7564 -5.20721,10.93112 v 7.54683 l 1.56297,6.50539 c 0,0 3.64424,0 3.64424,-7.02692 l 3.38106,-5.46394 h 11.18947 l 8.3267,9.36815 c 0,0 3.64586,2.86276 5.20722,1.04144 v -1.82131 c 0,0 3.38106,3.38267 5.72552,0.51991 0,0 4.94565,-1.8197 3.64263,-4.42412 0,0 2.08127,-3.12433 -1.04144,-6.50539 l -3.12272,-4.4225 -4.94564,-3.9042 -10.66956,-6.50701 h -5.46556 c 0,-0.002 -10.88752,1.345 -12.22768,4.16255 z" />
      <path style="fill:none;"
         d="m 541.95765,279.93134 -4.94403,-6.76696 -5.72552,-4.42251 m 7.02692,15.61359 -2.34284,-4.16255 -5.20561,-5.2056 -3.25027,-3.38268 m -5.07482,1.55975 3.38106,2.86437 3.38429,4.68407 3.38267,3.12272" />
      <path style="fill:none;"
         d="m 501.55287,215.08411 c 0,0 17.85793,3.15985 21.05492,0 m -22.78098,-5.26373 c 0,0 20.52048,1.27557 23.6109,-2.79172 m -25.71478,-3.87998 21.76218,-15.80089 m -39.17608,-0.0775 m 25.13512,-15.13081 c 0,0 -14.21692,0.46663 -23.52371,13.80357 l -2.86922,-3.51023 c -0.72174,-0.87513 -1.86814,-2.83046 -3.18084,-5.26534 -3.93973,-7.30141 -9.39398,-18.94944 -9.39398,-18.94944 m 34.6066,6.44242 c 0,0 -16.18355,-0.0226 -24.16795,14.40583 m -5.17977,-9.95749 c 0,0 10.43059,-11.16524 24.35364,-12.87676" />
   </g>
  </defs>
  <use id="shine" xlink:href="#shield" fill="#ffffff" />
  <path style="fill:#800080" d="M 2,2 V 259 C 2,545 300,657 300,657 V 2 Z" />
  <use xlink:href="#knight" style="fill:#800080;stroke:#270027;"/>
  <use xlink:href="#knight" style="fill:#ffffff;stroke:#333;" transform="translate(600)scale(-1,1)"/>
  <use id="shine" xlink:href="#shield" fill="url(#rg)" stroke="#000" stroke-width="3" />
</svg>