<?xml version="1.0" encoding="UTF-8" standalone="no"?>
<svg
   width="600"
   height="660"
   version="1.1"
   id="svg61"
   xml:space="preserve"
   sodipodi:docname="House_Greyiron.svg"
   inkscape:version="1.2.1 (9c6d41e410, 2022-07-14)"
   xmlns:inkscape="http://www.inkscape.org/namespaces/inkscape"
   xmlns:sodipodi="http://sodipodi.sourceforge.net/DTD/sodipodi-0.dtd"
   xmlns:xlink="http://www.w3.org/1999/xlink"
   xmlns="http://www.w3.org/2000/svg"
   xmlns:svg="http://www.w3.org/2000/svg"
   xmlns:rdf="http://www.w3.org/1999/02/22-rdf-syntax-ns#"
   xmlns:cc="http://creativecommons.org/ns#"
   xmlns:dc="http://purl.org/dc/elements/1.1/"><sodipodi:namedview
     id="namedview34"
     pagecolor="#ffffff"
     bordercolor="#000000"
     borderopacity="0.25"
     inkscape:showpageshadow="2"
     inkscape:pageopacity="0.0"
     inkscape:pagecheckerboard="0"
     inkscape:deskcolor="#d1d1d1"
     showgrid="false"
     inkscape:zoom="0.89673996"
     inkscape:cx="292.727"
     inkscape:cy="281.01792"
     inkscape:window-width="1920"
     inkscape:window-height="1017"
     inkscape:window-x="-8"
     inkscape:window-y="-8"
     inkscape:window-maximized="1"
     inkscape:current-layer="svg61" /><title
     id="title10656">House Greyiron</title><defs
     id="defs12"><radialGradient
       id="rg"
       gradientUnits="userSpaceOnUse"
       cx="220"
       cy="220"
       r="405"><stop
         style="stop-color:#fff;stop-opacity:.3"
         offset="0"
         id="stop2" /><stop
         style="stop-color:#fff;stop-opacity:.2"
         offset=".2"
         id="stop4" /><stop
         style="stop-color:#666;stop-opacity:.1"
         offset=".6"
         id="stop6" /><stop
         style="stop-color:#000;stop-opacity:.13"
         offset="1"
         id="stop8" /></radialGradient><path
       id="shield"
       d="m2,2v257c0,286 298,398 298,398c0,0 298-112 298-398V2z" /></defs><use
     id="background"
     xlink:href="#shield"
     style="fill:#797977;fill-opacity:1" /><g
     id="head"
     style="fill:#ffffff;stroke:#003000;stroke-width:1;stroke-linecap:round;stroke-linejoin:round"
     transform="matrix(3.0279272,0,0,3.0634563,-610.33686,-22.204051)"><path
       id="face"
       d="m 329.95936,63.196764 c 6.74194,14.254914 0.0131,44.337486 -1.23888,50.284526 -2.04584,9.71497 -18.47071,12.38164 -28.07357,12.38164 -9.60287,0 -26.02774,-2.66667 -28.07357,-12.38164 -1.25234,-5.94704 -7.98083,-36.029612 -1.23888,-50.284526 4.27153,-9.031669 17.4595,-17.629157 29.31245,-17.629157 11.85295,0 25.04091,8.597488 29.31245,17.629157 z" /><path
       id="hair"
       style="fill:#1b2f11;fill-opacity:1;stroke:#000000"
       d="m 305.31978,147.28565 c 4.19313,-0.0169 6.99121,3.72695 11.13662,3.29191 5.00639,-3.66952 5.12289,-1.98687 7.17379,3.24056 2.44866,-4.1304 4.63162,-3.02514 4.26175,-7.7751 2.73165,3.08775 6.51628,2.50856 7.66802,6.46074 3.33156,6.72561 2.03972,-2.68618 1.80663,-5.07348 2.77325,-1.08882 7.8797,5.19194 10.7976,7.78234 -0.89863,-0.87373 -2.06314,-10.19122 -1.45169,-14.36045 3.81225,4.27738 7.59994,12.14641 11.70559,17.74284 0.28588,-0.32749 -1.29368,-7.94039 -1.99855,-10.86025 -3.3791,-7.16015 2.02914,-0.65226 5.29235,1.00205 1.46157,-1.59175 -2.32088,-10.16045 -6.70681,-11.39785 0.18546,-2.13309 -7.33015,-11.50094 -3.52331,-10.91562 2.62013,1.24125 5.65584,1.42044 5.49459,0.96892 -0.9738,-2.72787 -5.37722,-4.1456 -6.28975,-6.01831 0.17961,-4.34135 -10.46365,-11.32804 -4.37685,-13.19025 0.65479,-3.56967 -3.5962,-9.759298 -3.36153,-15.01613 -3.50522,-7.56155 0.36655,-1.551374 3.31923,-1.992319 -3.60608,-5.889059 -5.17882,-10.621271 -7.2798,-17.114168 -0.36996,-5.631739 -4.24357,-10.730712 -4.34451,-16.83631 -2.59234,-4.318204 -1.55221,-5.145592 -5.11266,-8.097069 -1.44706,-1.19955 -3.81785,-2.289396 -6.288,-3.742333 -2.23654,-1.315519 -4.2877,-3.45826 -5.80031,-4.108595 -1.95748,-0.84159 -5.72341,0.22507 -8.88384,0.05961 -4.26297,-0.223199 -7.90968,0.881829 -7.91143,3.263439 v 10.663083 c 0.28911,2.153246 2.24667,-0.04038 6.5952,0.539303 1.8803,0.250669 5.38177,0.927329 7.44097,1.700127 2.62765,0.986121 7.02565,0.52601 9.14184,2.687349 1.87365,1.91352 3.38793,5.938055 3.91992,9.606955 0.38735,2.671285 -0.0804,4.931141 0.32836,7.142428 2.88748,15.626115 -4.41399,46.95433 -5.41672,62.8133 m -26.68244,7.53328 c -4.19314,-0.0169 -6.99121,3.72695 -11.13663,3.29191 -5.00638,-3.66952 -5.12288,-1.98687 -7.17378,3.24056 -2.44866,-4.1304 -4.63162,-3.02514 -4.26175,-7.7751 -2.73165,3.08775 -6.51628,2.50856 -7.66803,6.46074 -3.33155,6.72561 -2.03971,-2.68618 -1.80662,-5.07348 -2.77325,-1.08882 -7.1362,6.0456 -10.79761,7.78234 -1.25129,-7.80566 2.33836,-2.1252 0.7026,-9.70969 -1.65856,1.86092 -2.62904,-0.93464 -4.30649,1.803 -2.17824,3.55494 -0.90178,3.43993 -3.22117,6.60159 -0.28588,-0.32749 -2.13516,-3.2529 -1.43028,-6.17276 3.3791,-7.16015 -2.02914,-0.65226 -5.29244,1.00205 -1.46149,-1.59175 2.32096,-10.16045 6.7069,-11.39785 -0.18546,-2.13309 7.33014,-11.50094 3.52331,-10.91562 -2.62022,1.24125 -5.65584,1.42044 -5.49459,0.96892 0.97371,-2.72787 5.37713,-4.1456 6.28975,-6.01831 -0.17961,-4.34135 10.46365,-11.32804 4.37684,-13.19025 -0.65479,-3.56967 3.59621,-9.759294 3.36154,-15.016126 3.50522,-7.56155 -0.36655,-1.551374 -3.31923,-1.992319 3.60607,-5.889059 5.17882,-10.621271 7.2798,-17.114168 0.36996,-5.631739 4.24356,-10.730712 4.34451,-16.83631 2.59234,-4.318204 1.5522,-5.145592 5.11266,-8.097069 1.44706,-1.19955 3.81784,-2.289396 6.288,-3.742333 2.23653,-1.315519 4.2877,-3.45826 5.80031,-4.108595 1.95747,-0.84159 5.7234,0.22507 8.88383,0.05961 4.26297,-0.223199 7.90969,0.881829 7.91144,3.263439 v 10.663083 c -0.28912,2.153246 -2.24668,-0.04038 -6.59521,0.539303 -1.8803,0.250669 -5.38176,0.927329 -7.44096,1.700127 -2.62765,0.986121 -7.02565,0.52601 -9.14184,2.687349 -1.87366,1.91352 -3.38793,5.938055 -3.91993,9.606955 -0.38735,2.671285 0.0804,4.931141 -0.32835,7.142428 -2.88749,15.626115 4.4139,46.954336 5.41672,62.813306" /><path
       id="beard"
       style="fill:#1b2f11;fill-opacity:1;stroke:#000000"
       d="m 306.66983,172.44026 c 1.72656,4.06529 3.26889,-1.01502 3.6621,-2.99311 -0.28789,-3.20987 1.56846,-1.73973 2.17588,0.21976 1.60962,4.15111 1.76423,-2.07225 1.94358,-3.64837 0.0629,-3.40138 3.20011,2.16156 3.24398,-1.21937 0.91664,-1.31998 0.37293,-5.26616 1.61662,-4.17148 2.3422,3.81421 1.71415,-2.7388 2.70482,-4.33808 0.40107,-3.44972 1.21205,0.65308 2.45783,1.40916 0.76579,-2.81844 1.68522,-6.71823 2.1834,-10.00556 0.45063,-1.68272 0.85651,-8.19231 2.28242,-3.40654 0.94653,-0.34806 1.83354,-7.93088 0.99224,-9.76015 -1.12002,-2.18119 -3.57444,-6.59037 0.13748,-5.25773 2.29439,2.85253 0.49065,-0.43966 1.75514,-1.9136 0.21413,-3.60015 -0.51224,-7.20848 -1.45886,-10.67591 -1.22411,-3.67314 2.5135,-2.43055 3.00591,0.11612 -0.0516,-3.3794 -1.3123,-6.5732 -2.06873,-9.82951 -0.1221,-1.44205 -2.96029,-8.583317 -0.71702,-6.15982 -0.24463,-2.245588 -1.52511,-9.321375 1.43954,-8.005707 -1.03462,-3.182647 0.0358,-7.407282 -2.69171,-9.882986 -1.64642,-0.879111 -3.21059,3.928745 -3.73009,9.771142 -0.63976,7.195654 -8.15213,11.984081 -12.99866,17.341151 -1.39026,1.53676 -1.97137,2.84731 -8.09664,3.64761 -1.51488,0.19793 -1.82349,-1.46402 -3.86215,-1.3168 -2.03867,-0.14722 -2.34727,1.51473 -3.86216,1.3168 -6.12526,-0.8003 -6.70638,-2.11085 -8.09663,-3.64761 -4.84653,-5.35707 -12.3589,-10.145497 -12.99866,-17.341151 -0.5195,-5.842397 -2.08368,-10.650253 -3.7301,-9.771142 -2.72728,2.475704 -0.48366,5.403872 -1.51829,8.58652 0.78196,0.430404 0.42703,3.157852 0.26613,9.302173 2.24327,-2.423497 -0.59492,4.71777 -0.71702,6.15982 -0.75644,3.25631 -2.01717,6.45011 -2.06873,9.82951 0.4924,-2.54667 4.23002,-3.78926 3.00591,-0.11612 -0.94662,3.46743 -1.67299,7.07576 -1.45886,10.67591 1.26448,1.47394 -0.53926,4.76613 1.75514,1.9136 3.71192,-1.33264 1.25749,3.07654 0.13748,5.25773 -0.8413,1.82927 0.0455,9.41209 0.99224,9.76015 1.42591,-4.78577 1.83179,1.72382 2.28242,3.40654 0.49817,3.28733 1.41761,7.18712 2.1834,10.00556 1.24578,-0.75608 2.05676,-4.85888 2.45783,-1.40916 0.99067,1.59928 0.36262,8.15229 2.70482,4.33808 1.2436,-1.09468 2.05195,-1.19656 2.96868,0.12343 0.0437,3.38093 -0.42153,0.52814 -0.3586,3.92951 0.98079,-2.46613 4.30946,0.43758 4.19401,4.98628 0.60751,-1.95949 2.46386,-3.42963 2.17597,-0.21976 0.39321,1.97809 1.93553,7.0584 3.6621,2.99311 2.30873,-4.46158 2.82307,2.19343 6.02292,4.18007 0.26298,-5.76309 3.7141,-8.64165 6.02292,-4.18007 z" /><path
       id="moustache"
       style="fill:#1b2f11;fill-opacity:1;stroke:#000000"
       d="m 302.65665,101.61929 c 0.6894,-1.08066 2.12763,-0.98702 3.25211,-1.0948 1.08287,-0.0302 2.1057,0.38153 3.08247,0.78838 1.02222,0.11788 2.06401,0.41704 2.71286,1.27507 0.44608,1.07235 1.84071,1.103 2.20805,2.1673 0.20495,1.36879 1.79456,1.0976 2.62825,1.84624 0.83825,0.85838 1.83328,1.54905 3.08178,1.60854 1.01409,0.18919 1.87977,0.77479 2.77535,1.2494 -0.31595,0.72566 -1.63165,0.62448 -1.12544,1.6636 0.49197,1.26292 -0.92922,1.44363 -1.81519,1.17343 -0.61642,-0.13743 -0.99223,0.1698 -1.12167,0.68891 -0.70758,-0.0349 -1.57021,-0.59262 -1.74955,0.39526 -0.76177,-0.2145 -1.52345,-0.99743 -2.19197,-0.14198 -1.27786,0.37819 -1.52266,-1.19622 -2.57014,-1.52311 -1.23354,-0.81891 -2.37637,-1.7678 -3.66122,-2.50859 -0.80084,-0.66407 -1.74055,-1.31253 -2.83767,-1.19763 -0.88465,-0.0232 -1.92741,0.13557 -2.56376,-0.63583 -0.57788,-0.79192 -1.74125,-1.08022 -2.03578,-2.06734 0.0245,-1.05819 -0.48008,-2.61672 0.79655,-3.14625 0.36979,-0.19778 0.75749,-0.3589 1.13497,-0.5406 z m -4.01948,0 c -0.6894,-1.08066 -2.12764,-0.98702 -3.25211,-1.0948 -1.08287,-0.0302 -2.1057,0.38153 -3.08247,0.78838 -1.02222,0.11788 -2.06401,0.41704 -2.71286,1.27507 -0.44609,1.07235 -1.84071,1.103 -2.20805,2.1673 -0.20495,1.36879 -1.79456,1.0976 -2.62826,1.84624 -0.83824,0.85838 -1.83328,1.54905 -3.08177,1.60854 -1.01409,0.18919 -1.87977,0.77479 -2.77535,1.2494 0.31595,0.72566 1.63165,0.62448 1.12543,1.6636 -0.49196,1.26292 0.92923,1.44363 1.81519,1.17343 0.61643,-0.13743 0.99224,0.1698 1.12168,0.68891 0.70758,-0.0349 1.57021,-0.59262 1.74955,0.39526 0.76177,-0.2145 1.52345,-0.99743 2.19196,-0.14198 1.27786,0.37819 1.52267,-1.19622 2.57014,-1.52311 1.23355,-0.81891 2.37638,-1.7678 3.66123,-2.50859 0.80083,-0.66407 1.74055,-1.31253 2.83767,-1.19763 0.88465,-0.0232 1.9274,0.13557 2.56375,-0.63583 0.57789,-0.79192 1.74125,-1.08022 2.03579,-2.06734 -0.0245,-1.05819 0.48008,-2.61672 -0.79656,-3.14625 -0.36978,-0.19778 -0.75748,-0.3589 -1.13496,-0.5406 z" /><path
       id="lip"
       d="m 309.30997,110.70426 c 0,-3.33156 -6.33476,-2.92057 -8.66306,-2.92057 -2.3284,0 -8.66307,-0.41099 -8.66307,2.92057 0,3.24337 5.68775,1.17205 8.66307,1.17205 2.97532,0 8.66306,2.07132 8.66306,-1.17205 z"
       style="stroke:#000000" /><path
       id="nose"
       d="m 303.06314,87.336928 c 1.96202,5.610728 -0.35694,7.405272 1.65621,9.517554 1.4981,1.57186 2.42645,3.339158 1.12325,4.605858 -1.51183,0.46982 -1.37732,-0.38535 -3.03353,0.34858 -0.34942,0.15486 -0.50892,1.05441 -2.16216,1.05441 -1.50265,0 -1.85871,-1.06913 -2.20822,-1.22399 -1.65612,-0.73389 -1.00037,0.10623 -2.51228,-0.36359 -0.83571,-0.68608 -0.65121,-2.629827 0.64797,-4.421233 1.72779,-2.382344 -0.33902,-4.964282 1.65621,-9.517554"
       style="stroke:#000000" /><path
       id="eyebrow1"
       style="fill:#1b2f11;fill-opacity:1;stroke:#000000"
       d="m 284.85096,74.159109 c -1.77734,-0.01145 -3.39658,0.892683 -4.48592,2.051287 -1.039,1.105115 -1.37863,2.124719 -1.37863,2.124719 0,0 0.89155,-0.599906 2.11925,-1.031141 1.37391,-0.482599 2.52355,-0.573747 3.69094,-0.523467 0.0725,0.0017 0.14438,0.0052 0.21552,0.01014 2.91143,0.214835 4.78396,2.194682 7.86372,3.630566 2.14485,1.004834 3.42315,0.734605 3.97254,0.467069 0.5465,-0.266112 0.5049,-0.611967 0.5049,-0.611967 0,0 0.0568,-0.312224 -0.35895,-0.689778 -0.53383,-0.484706 -1.15043,-0.679658 -3.01054,-1.541708 -2.68445,-1.251552 -5.07866,-3.596009 -8.77869,-3.869034 -0.11808,-0.0087 -0.23615,-0.01425 -0.35414,-0.01669 z" /><g
       id="eye1"><path
         style="fill:#ddffdd;stroke:#000000"
         d="m 294.41648,83.865798 c 0,0 -0.72079,2.121558 -5.41493,2.217334 -3.15531,0.06432 -6.01363,-2.217334 -6.01363,-2.217334 0,0 3.56771,-3.234889 6.66096,-2.609313 5.3292,1.077748 4.7676,2.609313 4.7676,2.609313 z"
         id="path39" /><circle
         style="fill:#1b2f11;fill-opacity:1;stroke:none"
         cx="289.1441"
         cy="83.746468"
         r="2.3"
         id="circle41" /><circle
         style="fill:#000000;stroke:none"
         cx="289.1441"
         cy="83.746468"
         r="1"
         id="circle43" /><circle
         style="fill:#ffffff;stroke:none"
         cx="289.81256"
         cy="83.091156"
         r="0.44999999"
         id="circle45" /></g><path
       id="eyebrow2"
       style="fill:#1b2f11;fill-opacity:1;stroke:#000000"
       d="m 315.97256,74.135389 c 1.77735,-0.01145 3.39659,0.892683 4.48593,2.051287 1.03899,1.105115 1.37863,2.124719 1.37863,2.124719 0,0 -0.89156,-0.599906 -2.11925,-1.031141 -1.37391,-0.482599 -2.52356,-0.573747 -3.69094,-0.523467 -0.0726,0.0017 -0.14439,0.0052 -0.21553,0.01014 -2.91143,0.214835 -4.78395,2.194681 -7.86371,3.630566 -2.14486,1.004834 -3.42316,0.734605 -3.97255,0.467069 -0.5465,-0.266112 -0.5049,-0.611967 -0.5049,-0.611967 0,0 -0.0568,-0.312224 0.35895,-0.689778 0.53383,-0.484706 1.15043,-0.679658 3.01054,-1.541708 2.68446,-1.251552 5.07866,-3.596009 8.77869,-3.869035 0.11808,-0.0087 0.23616,-0.01425 0.35414,-0.01669 z" /><g
       id="eye2"><path
         style="fill:#ddffdd;stroke:#000000"
         d="m 306.46028,84.184492 c 0,0 0.72079,2.121558 5.41493,2.217334 3.15531,0.06432 6.01363,-2.217334 6.01363,-2.217334 0,0 -3.56771,-3.234889 -6.66096,-2.609313 -5.3292,1.077748 -4.7676,2.609313 -4.7676,2.609313 z"
         id="path49" /><circle
         style="fill:#1b2f11;fill-opacity:1;stroke:none"
         cx="311.73267"
         cy="84.065155"
         r="2.3"
         id="circle51" /><circle
         style="fill:#000000;stroke:none"
         cx="311.73267"
         cy="84.065155"
         r="1"
         id="circle53" /><circle
         style="fill:#ffffff;stroke:none"
         cx="312.40112"
         cy="83.409851"
         r="0.44999999"
         id="circle55" /></g></g><path
     id="crown"
     style="fill:#000000;stroke-width:1.67572"
     d="m 144.78977,55.347354 46.37928,107.890986 c 77.25404,-23.11376 139.0707,-23.11376 216.3583,0 L 453.90663,55.347354 399.80866,78.471157 c 23.15607,38.529623 -23.18963,61.653423 -46.37927,23.113763 -23.18964,23.12045 -46.37928,0 -38.62702,-15.409176 l 15.43738,-15.419213 -30.90833,-30.82839 -30.90833,30.82839 15.47094,15.419213 c 7.7187,15.409176 -15.47094,38.529626 -38.66058,15.409176 -23.15608,38.53966 -69.53535,15.41586 -46.34571,-23.113763 z" /><use
     id="shine"
     xlink:href="#shield"
     style="fill:url(#rg);stroke:#000000;stroke-width:3" /><metadata
     id="metadata10654"><rdf:RDF><cc:Work
         rdf:about=""><dc:title>House Greyiron</dc:title></cc:Work></rdf:RDF></metadata></svg>
