<?xml version="1.0" encoding="UTF-8"?>
<svg xmlns="http://www.w3.org/2000/svg" xmlns:xlink="http://www.w3.org/1999/xlink" width="600" height="660">
  <defs>
    <radialGradient id="rg" gradientUnits="userSpaceOnUse" cx="220" cy="220" r="405">
      <stop style="stop-color:#fff;stop-opacity:.3" offset="0" />
      <stop style="stop-color:#fff;stop-opacity:.2" offset=".2" />
      <stop style="stop-color:#666;stop-opacity:.1" offset=".6" />
      <stop style="stop-color:#000;stop-opacity:.13" offset="1" />
    </radialGradient>
    <clipPath id="clip-shield">
      <path id="shield" d="m2,2v257c0,286 298,398 298,398c0,0 298-112 298-398V2z" />
    </clipPath>
  </defs>
  <use id="field" xlink:href="#shield" style="fill:#217821;" />
  <g style="fill:#87de87;" clip-path="url(#clip-shield)">
    <path id="trees"
      d="m -60,110 36,38.5 -24,-2.75 36,38.5 -24,-2.75 36,38.5 36,-38.5 -24,2.75 36,-38.5 -24,2.75 36,-38.5 36,38.5 -24,-2.75 36,38.5 -24,-2.75 36,38.5 36,-38.5 -24,2.75 36,-38.5 -24,2.75 36,-38.5 36,38.5 -24,-2.75 36,38.5 -24,-2.75 36,38.5 36,-38.5 -24,2.75 36,-38.5 -24,2.75 36,-38.5 36,38.5 -24,-2.75 36,38.5 -24,-2.75 36,38.5 36,-38.5 -24,2.75 36,-38.5 -24,2.75 36,-38.5 36,38.5 -24,-2.75 36,38.5 -24,-2.75 36,38.5 36,-38.5 -24,2.75 36,-38.5 -24,2.75 36,-38.5 36,38.5 -24,-2.75 36,38.5 -24,-2.75 36,38.5 36,-38.5 -24,2.75 36,-38.5 -24,2.75 36,-38.5 h -60 l -36,-38.5 24,2.75 -36,-38.5 24,2.75 -36,-38.5 -36,38.5 24,-2.75 -36,38.5 24,-2.75 -36,38.5 -36,-38.5 24,2.75 -36,-38.5 24,2.75 -36,-38.5 -36,38.5 24,-2.75 -36,38.5 24,-2.75 -36,38.5 -36,-38.5 24,2.75 -36,-38.5 24,2.75 -36,-38.5 -36,38.5 24,-2.75 -36,38.5 24,-2.75 -36,38.5 -36,-38.5 24,2.75 -36,-38.5 24,2.75 -36,-38.5 -36,38.5 24,-2.75 -36,38.5 24,-2.75 -36,38.5 -36,-38.5 24,2.75 -36,-38.5 24,2.75 -36,-38.5 -36,38.5 24,-2.75 -36,38.5 24,-2.75 -36,38.5 z" />
    <use xlink:href="#trees" y="220" />
    <use xlink:href="#trees" y="440" />
  </g>
  <g style="fill:#050505;stroke:#333333;stroke-width:2;stroke-linecap:round;stroke-linejoin:round;">
    <g>
      <path
        d="m 328.88427,175.85193 c 0,0 -24.14664,-6.06749 -41.2482,5.49731 -7.86282,-11.45954 -27.34809,-5.6278 -32.34956,-9.03182 -14.18424,-9.65394 -29.24481,-13.55397 -44.40943,-16.25644 -2.15082,-0.95822 -4.94004,-1.49784 -7.62048,-2.2163 -4.14918,-2.23407 -4.3485,-8.4479 -6.98817,-10.74511 -4.57121,-3.97816 -7.17035,-3.92154 -7.17035,-3.92154 0,0 -4.32988,-10.83914 -14.4207,-13.04976 -10.09071,-2.21062 -17.83929,-1.7387 -23.27419,2.31414 -5.43491,4.0529 -13.57577,-0.16359 -13.54007,12.87638 0.0333,13.03997 14.5068,10.19628 14.5068,10.19628 l -0.50421,-0.93664 v 0 l -3.55666,1.32843 c 0.58075,8.17581 4.86441,9.00548 10.19464,10.86338 12.58987,4.38831 7.09487,17.10245 17.37132,17.8232 -1.19458,5.01164 1.5939,7.65461 2.44409,7.43714 1.08675,-5.07495 6.78709,-3.15215 9.27769,0.0893 0,0 0.78257,4.35713 -5.45055,5.74563 0,0 1.59453,2.43118 3.04542,2.52261 1.45079,0.0914 3.14475,0.0216 4.36034,-0.7737 1.21558,-0.7973 2.03647,-2.72657 3.40357,-2.23249 1.3671,0.49423 2.49123,1.14765 2.49123,1.14765 -5.21944,5.13681 0.71148,6.81508 -3.09519,14.89521 5.64386,-4.28923 7.90377,-5.83376 14.55552,-5.37457 0,0 1.1318,-0.39495 0.3107,1.53446 -3.9626,5.41493 -1.77566,8.35313 -1.71224,13.29276 -0.0221,3.14475 -0.27478,4.35246 -0.27478,4.35246 3.04342,-1.46792 3.83239,-4.03923 5.91181,-6.34826 2.88918,-3.17489 6.96959,-4.66705 8.03702,-4.19175 1.5267,0.73716 3.70681,0.35034 2.73441,0.98808 -6.22661,4.30297 -7.15071,12.09584 -4.31855,16.74081 0.51513,-1.41878 2.50289,-3.69983 7.6881,-3.65192 4.29587,2.54873 -1.11027,6.55185 2.39705,13.7267 -0.88715,-6.4838 11.91235,-15.95544 17.0101,-10.11391 -1.07352,2.73016 5.29736,6.96845 5.29736,6.96845 0.90079,1.02902 -7.20122,-1.34649 -4.853,-2.76757 l -4.80732,7.70115 c 0,0 3.83292,-5.69002 9.0278,-5.92138 -1.79172,2.50262 -2.44514,3.7727 -0.63378,4.93589 6.33087,-9.47568 8.8809,1.42238 30.47005,-9.20676 -3.0136,3.25373 -9.20671,6.84442 -9.52843,12.50848 2.49784,-3.35777 12.16603,-3.99198 17.75875,-2.13781 3.63237,2.22507 3.31926,2.5944 5.32319,0.73579 0.69352,-2.32176 3.2782,-1.83755 3.38331,-0.65753 1.4953,0.35035 -3.80457,4.44699 -3.55005,11.02108 4.68331,-7.09601 6.18166,-3.73789 12.00412,-9.26439 1.30095,-1.72734 4.27613,-1.96243 6.61637,-0.51509 -6.48596,1.40483 -11.88821,10.0258 -8.05424,9.45518 1.20635,-1.60526 2.72181,-2.69765 4.37556,-3.56351 5.36036,-3.41415 11.44815,-3.12719 17.11595,-4.42354 3.24261,-0.75917 5.74329,-2.02228 8.22234,-4.06923 1.70709,-1.40958 3.60223,-2.97928 5.52384,-5.22357" />
      <g style="fill:#1a1a1a;">
        <path
          d="m 138.95075,141.7984 c 0.11437,-1.15944 1.73862,-1.38267 3.01648,-0.9983 1.22252,0.36761 3.10308,2.19213 2.23141,3.0285 -1.88452,2.09594 -1.93755,4.99005 -1.52605,7.62568 -3.36805,-2.15695 -4.54843,-5.88073 -3.72184,-9.65588 z" />
        <path
          d="m 144.31561,143.51631 c 0.17409,-1.76719 2.6498,-2.10746 4.59755,-1.52159 1.8633,0.5604 4.72964,3.34121 3.40106,4.61598 -2.87245,3.19445 -2.95316,7.60561 -2.326,11.62262 -5.13343,-3.2874 -6.93249,-8.96318 -5.67261,-14.71701 z" />
        <path
          d="m 154.2132,145.98634 c 0.58846,-2.11177 3.67156,-1.99776 5.91505,-0.87018 2.14645,1.0788 5.03912,5.07128 3.15179,6.3382 -4.1739,3.27222 -5.21248,8.61909 -5.30615,13.63757 -5.54154,-5.09193 -6.51933,-12.37728 -3.76069,-19.10559 z" />
        <path
          d="m 163.756,150.8218 c 0.65393,-2.34645 4.07945,-2.21976 6.57236,-0.96687 2.38478,1.19865 5.59894,5.6347 3.50184,7.04241 -4.63754,3.6358 -5.7916,9.57675 -5.89569,15.15282 -6.15727,-5.65765 -7.24369,-13.75246 -4.17851,-21.22836 z" />
      </g>
    </g>
    <g>
      <path
        d="m 289.8544,446.74508 c 5.27331,5.27579 11.42978,9.29626 16.45655,5.24881 -12.41573,-8.40845 -6.25055,-7.85215 -9.32106,-18.05578 -0.21221,-1.09866 0.45318,-2.19177 0.45318,-2.19177 7.02859,1.16678 8.02588,7.91035 14.66115,6.67804 -5.50914,-4.16463 -6.98649,-10.60038 -6.47504,-16.94022 4.27172,4.17988 7.21655,1.02506 10.30155,2.04127 -1.76326,-1.6295 -3.78126,-3.36171 -5.27478,-5.35429 -1.32615,-2.22694 -2.95123,-5.18249 -2.40303,-7.59137 0.13808,-0.5453 0.52805,-1.10383 1.40805,-1.79862 2.20584,-1.74158 2.18883,0.8919 2.18883,0.8919 0.0105,7.1319 3.30414,10.36491 9.94067,9.8766 -7.9527,-4.28075 -3.27012,-5.17488 -3.12911,-11.14971 0.5123,-6.1618 5.01396,-8.35098 10.59303,-9.1495 8.36808,-0.77219 13.57031,-1.09463 20.27403,-0.73508 8.24229,0.8527 6.32951,0.007 10.775,-7.68684 l 4.38732,-7.59094 1.54124,-47.8846 -44.30207,3.08826 c -28.4046,9.5374 -61.92302,4.17211 -82.12638,25.36062 -9.38039,10.80267 -14.39991,19.15034 -18.2616,40.541 -3.8618,21.39067 -17.86964,27.8185 -17.86964,27.8185 0,0 9.28683,3.78399 21.49235,-11.96643 12.20541,-15.75042 -3.7841,9.28677 -5.64816,9.5851 -1.86417,0.29854 7.75278,0.98089 13.70943,-8.29184 3.25657,4.62949 -4.85447,8.56528 -8.34551,11.14869 13.10327,-1.16312 12.06093,-4.95308 14.85698,-10.17587 0.94101,-1.54574 1.57174,-3.09359 1.57174,-3.09359 l -0.0284,4.96574 c -0.4914,6.29352 3.22025,7.48756 0.73563,12.57647 -2.71456,5.45665 -9.33607,15.28893 -24.24544,23.58574 -11.13473,7.05018 -24.43088,12.73488 -31.99602,8.3153 -12.60525,-7.36405 -12.60032,-5.40241 -17.99511,-4.91179 l -4.66326,1.21153 -2.81117,2.77526 -0.32224,1.86014 c 0,0 -0.0147,2.17248 2.76927,3.7422 2.78323,1.56971 3.67647,7.47245 6.46768,7.80071 2.79122,0.32804 4.32905,5.47501 8.04132,7.36103 3.71228,1.8861 1.02837,17.91615 1.02837,17.91615 l 2.47286,1.5677 1.56376,-1.85222 2.46488,2.80922 c 2.64127,-0.52587 6.89766,-1.00297 8.08321,-2.12077 1.24929,-1.23339 1.88003,-2.78123 1.88003,-2.78123 -0.76713,2.15421 3.18727,5.08666 1.18366,9.00829 1.55568,-0.61077 4.05258,-2.76729 4.05258,-2.76729 7.2555,-6.4997 4.00869,0.38488 1.84622,2.49478 3.97656,-0.84414 6.45687,-1.97416 9.65286,-4.90395 3.75732,0.88191 -3.6141,6.04109 -1.26462,5.06474 6.75076,-2.48255 7.19334,-3.78587 8.33185,-9.16102 0.17126,4.23527 6.867,8.17588 8.89319,6.22597 -0.40352,-2.11703 1.74573,-4.499 4.22467,-3.86234 4.46114,1.02161 7.5117,3.65897 8.3537,4.08844 5.47774,3.62941 9.44611,0.3187 13.3393,1.01672 -3.08763,-2.50276 -4.63144,-3.75414 -4.63144,-3.75414 2.47537,-0.48703 4.74694,-0.27985 5.58841,-0.27481 5.01438,0.0288 4.82948,-4.38073 4.82948,-4.38073 -3.42363,1.89753 -5.51408,2.0412 -6.66971,0.95492 0,0 10.15203,-14.54307 18.79059,-13.92504 5.37831,0.5712 14.7461,1.90294 20.76995,-4.29556 -16.81722,-0.75514 -13.37354,-8.74319 -11.96843,-13.0286 5.85533,10.88618 12.72716,1.54201 18.01076,2.87411 -2.94042,-6.13986 -11.47587,-0.99233 -16.42368,-12.53503 -0.0651,-0.72421 -0.12086,-2.81261 2.52388,-2.42694 4.59428,2.03149 6.53625,-1.02247 12.9254,1.36937 -1.24856,-2.17279 -0.0924,-5.00323 -4.42376,-6.3177 -3.78819,-1.00952 -5.06005,-6.43093 -2.83132,-8.90801 z" />
      <g style="fill:#1a1a1a;">
        <path
          d="m 182.52073,497.48207 c 1.76704,-0.8778 3.54696,1.25354 4.14333,3.43329 0.57048,2.08537 -0.35898,6.42416 -2.34276,5.92426 -4.70194,-0.82226 -8.9042,1.70194 -12.31799,4.66051 0.0719,-6.77271 4.35547,-11.81291 10.51742,-14.01806 z" />
        <path
          d="m 177.66505,486.04339 c 1.76705,-0.8778 3.54697,1.25354 4.14334,3.43336 0.57047,2.0853 -0.35898,6.42409 -2.34277,5.9242 -4.70194,-0.82227 -8.90419,1.70193 -12.318,4.6605 0.0719,-6.77271 4.35549,-11.81284 10.51743,-14.01806 z" />
        <path
          d="m 165.8446,465.5788 c 1.94365,-0.96556 3.90162,1.37878 4.55755,3.77666 0.62731,2.29385 -0.39494,7.06651 -2.577,6.51667 -5.17213,-0.90456 -9.79465,1.87208 -13.5498,5.1266 0.0777,-7.45009 4.79108,-12.99421 11.56925,-15.41993 z" />
        <path
          d="m 171.02061,476.28593 c 1.76705,-0.8778 3.54697,1.25354 4.14333,3.43336 0.57049,2.0853 -0.35897,6.42417 -2.34276,5.92419 -4.70194,-0.82226 -8.9042,1.70194 -12.31799,4.66051 0.0719,-6.77271 4.35548,-11.81284 10.51742,-14.01806 z" />
      </g>
    </g>
    <g>
      <path
        d="m 346.80189,346.46058 c 2.3723,8.91714 1.05037,15.09341 -3.64518,18.9325 -1.05941,0.86618 -9.52949,10.21637 -10.46766,11.21595 -13.86525,14.77206 -26.92683,30.43126 -28.66941,50.07251 -0.62664,14.93766 0.71074,25.02841 11.49088,45.02181 10.78025,19.99338 3.52254,34.3712 3.52254,34.3712 0,0 10.05312,-2.95834 9.76469,-23.77918 -0.28844,-20.82077 2.95827,10.0532 1.6296,11.51141 -1.32867,1.45827 6.97368,-4.24944 5.79946,-15.70647 5.67693,1.66094 1.61375,10.16097 0.44468,14.54623 9.94843,-9.48704 6.62781,-11.90463 5.50977,-17.99348 -0.23814,-1.87603 -0.73122,-3.55156 -0.73122,-3.55156 l 3.20901,4.07801 c 3.69894,5.46212 7.50928,4.01989 8.79448,9.79653 1.33697,6.22697 2.33216,18.57431 -4.44444,35.0665 -4.50481,13.01465 -11.66518,26.32152 -20.72563,27.63901 -15.0968,2.19515 -13.81485,3.79486 -17.90313,7.71022 -2.60484,2.59261 -3.09887,4.68115 -3.50973,8.12696 l 0.94846,1.72985 c 0,0 1.40343,1.78444 4.70064,1.2534 3.29669,-0.53092 7.87217,3.71039 10.36655,2.16018 2.49448,-1.55022 7.10409,1.65316 11.36593,0.77565 4.26195,-0.87752 12.51222,13.9687 12.51222,13.9687 l 3.04185,-0.3302 0.0714,-2.53218 3.84405,0.68918 c 1.81545,-2.15056 4.98246,-5.31321 5.22291,-6.99875 0.21725,-1.82185 -0.27552,-3.49739 -0.27552,-3.49739 0.77669,2.2599 5.91801,2.07976 6.83582,6.58927 0.87328,-1.5126 1.50843,-4.90121 1.50843,-4.90121 1.69365,-10.03746 3.526,-2.29746 3.13372,0.83564 2.69924,-3.28042 3.98958,-5.81966 4.69224,-10.29557 3.64455,-1.72726 0.9827,7.29053 2.26622,4.96215 3.89844,-6.42639 3.41113,-7.77972 0.83947,-12.91322 2.89937,3.34877 10.93733,2.20645 11.32257,-0.70644 -1.70908,-1.46677 -1.50465,-4.81323 0.93545,-5.90808 4.31056,-2.0715 8.52138,-1.90408 9.48906,-2.1017 6.84022,-0.60284 7.9255,-5.89383 11.56155,-7.85964 -4.15338,-0.036 -6.22997,-0.0504 -6.22997,-0.0504 1.70541,-2.01056 3.69621,-3.32128 4.38722,-3.865 4.1181,-3.2405 1.092,-6.72566 1.092,-6.72566 -1.56104,3.78083 -3.17552,5.26004 -4.82748,5.12537 0,0 -1.17968,-18.49655 6.28131,-23.61941 4.76647,-3.03726 13.28827,-8.052 14.17195,-17.04101 -14.23264,10.33909 -16.62318,1.56885 -18.26695,-2.848 11.87644,5.08013 11.40363,-7.03161 16.58842,-9.38532 -6.40237,-3.10108 -10.02298,6.66559 -21.58548,0.45754 -0.52437,-0.54961 -1.93084,-2.21962 0.48132,-3.62717 5.07717,-1.33325 4.67439,-5.09372 11.45309,-7.30189 -2.43579,-0.96183 -3.33491,-4.0278 -7.73052,-2.2799 -3.75281,1.64309 -8.32398,-1.95804 -8.11661,-5.43399 7.74575,0.87521 15.39521,0.14964 16.86552,-6.43244 -15.62242,1.21836 -10.22259,-2.3437 -19.37901,-8.68031 -0.88914,-0.75932 -1.05766,-2.08588 -1.05766,-2.08588 6.50296,-3.62573 11.71107,1.23455 16.3297,-4.09514 -7.21455,0.18632 -12.61438,-4.10973 -16.32687,-9.62286 6.21359,0.63235 6.56429,-3.86399 9.74705,-5.04343 -2.50226,-0.18272 -5.27972,-0.28344 -7.79804,-0.93838 -2.53438,-0.95556 -5.7877,-2.31184 -6.9091,-4.63719 -3.97079,-4.45756 0.37485,-13.83102 2.97307,-18.0114 1.20802,14.54394 14.57295,20.04035 21.88683,18.50301 -1.7011,-0.80917 -3.255,-1.90444 -4.24137,-4.06153 8.20355,1.41964 15.15045,1.32777 22.64882,-2.38292 -11.1846,-5.01337 -21.78832,-17.08899 -21.73962,-30.6411 -0.24249,-2.7439 -0.0105,-5.60118 -0.29789,-9.13274 -0.25966,-3.16726 -3.60643,-9.50546 -7.59591,-11.33401 14.34227,-44.70022 -22.68997,-81.85635 -4.62378,-95.21494 2.76686,2.52319 4.75125,2.37147 8.53052,1.44742 -2.85159,-3.38251 -11.12664,-8.98405 -9.16755,-18.89999 1.46097,4.00298 8.28691,7.06808 11.65006,5.41183 0,0 -10.11675,-3.22769 -8.76802,-17.94758 0.922,2.86072 5.66076,4.4577 8.02567,3.39351 -11.42872,-13.1181 -2.31231,-17.15137 -10.71157,-39.2097 -7.02702,-11.41781 -3.22781,-19.90756 -0.37905,-32.13225 2.224,4.40188 6.27406,7.95841 7.66059,3.95715 -3.09698,-1.63265 -4.77729,-4.5482 -5.5461,-7.74157 -0.76892,-3.19345 -0.62664,-6.66473 -0.62664,-6.66473 2.72433,1.54697 4.12114,4.01153 8.44966,2.89655 0,0 -2.64663,-4.27145 -2.42382,-9.421 -1.56261,-13.60772 1.50098,-26.47287 2.21361,-37.94076 0.19782,-6.18425 -1.47081,-13.51118 -2.26873,-16.455291 1.33791,-0.880961 11.41024,-10.775615 2.72244,-24.859128 -2.23178,-9.664379 -19.02212,-11.905425 -29.73485,-4.190813 -3.90096,-2.445145 -8.27568,-5.258389 -11.72335,-6.445246 -9.70683,-3.667524 -16.52039,-2.083715 -25.65602,-1.272096 -4.4479,0.389907 -8.61052,0.597807 -11.23804,0.751831 -6.66488,0.389907 -9.84386,1.698123 -12.66825,5.530392 -1.85504,2.516861 -3.55688,6.122309 -5.99309,11.271351 -3.65568,0.05754 -3.66649,2.015874 -6.45781,3.162653 -3.68151,1.512598 -3.56643,-1.3377 -10.37915,2.476582 -3.48862,1.953074 -7.29057,4.183757 -11.63851,2.907702 -10.91811,-0.930237 -8.63667,13.030553 -3.6119,15.100173 -4.62987,12.65574 4.36349,20.33266 13.43738,19.09128 3.78147,-0.49063 15.26143,2.12047 7.17612,0.55968 -3.25427,-0.30723 2.17833,-0.17841 -1.72442,-0.39783 -2.73346,-0.15395 -6.00673,0.53091 -8.15514,0.11439 -2.97129,-0.60789 -3.47424,1.75495 -2.12226,3.63501 1.79823,1.34527 2.61251,1.2134 2.90903,3.05425 0.85102,8.06085 14.88606,9.01526 23.34738,9.92673 6.1909,0.66472 4.54671,6.96558 8.91345,6.17094 3.81832,-0.91226 4.07169,2.18019 4.40265,3.32129 -0.23447,2.08414 -2.70029,2.0268 -4.01667,3.10921 -18.14369,-3.79336 -3.60077,4.25512 -16.58213,1.7451 -0.17986,2.84425 -7.46644,1.22267 -7.03185,2.56469 -9.15673,7.44555 -11.59599,2.6119 -20.59218,9.42763 -5.35426,4.05657 -9.54481,3.79673 -9.54481,3.79673 0,0 0.85596,3.05287 4.9939,2.51938 -26.69982,7.29038 -17.31891,19.60196 -32.86888,24.73446 3.69379,1.26779 3.99462,-1.38058 4.35466,0.63235 -7.78039,10.73237 -13.87732,45.0384 -7.42329,56.02122 7.36115,12.52646 18.64292,45.81719 38.28899,66.28743 38.46689,40.08061 50.89045,35.70627 53.61741,59.15251" />
      <g style="fill:#1a1a1a;">
        <path
          d="m 345.79503,571.4977 c 0.88141,-1.86386 3.7212,-1.26763 5.6214,0.13453 1.81791,1.34145 3.86385,5.50263 1.91287,6.37662 -4.38966,2.36894 -6.20324,7.15987 -7.08874,11.79679 -4.32635,-5.60169 -4.07326,-12.51044 -0.4453,-18.30807 z" />
        <path
          d="m 334.40722,565.25656 c 0.88147,-1.86387 3.72127,-1.2675 5.62147,0.13452 1.8179,1.34145 3.86385,5.50262 1.91286,6.37661 -4.38966,2.36896 -6.20324,7.15989 -7.08873,11.79686 -4.32635,-5.60182 -4.07334,-12.51049 -0.44531,-18.3082 z" />
        <path
          d="m 311.46325,556.11914 c 0.96959,-2.05027 4.0934,-1.39433 6.18359,0.1482 1.99962,1.47568 4.25024,6.05288 2.10415,7.01427 -4.8287,2.60592 -6.82357,7.87597 -7.79762,12.97652 -4.75899,-6.16195 -4.48066,-13.76145 -0.4899,-20.13892 z" />
        <path
          d="m 322.64029,561.5527 c 0.88139,-1.86401 3.72126,-1.26764 5.62139,0.13453 1.81797,1.34145 3.86392,5.50254 1.91286,6.37661 -4.38965,2.36888 -6.20324,7.15988 -7.08866,11.79679 -4.32642,-5.60183 -4.07334,-12.51043 -0.44531,-18.30808 z" />
      </g>
    </g>
    <path
      d="m 321.13059,354.7266 c 0,0 -3.69852,1.59634 -5.22984,2.86318 -1.13737,0.94097 -2.81685,3.41733 -2.81685,3.41733 l 14.61989,21.13844 7.30212,-8.56831 z" />
    <g>
      <path
        d="m 293.61823,197.09038 c 0.0577,0.40141 -18.06178,10.4334 -21.96589,30.61455 -13.66607,-2.52679 -23.69504,14.10625 -29.24124,16.52334 -4.08083,1.77841 -28.50467,13.3383 -43.01829,20.46919 -4.83515,1.8615 -10.27299,6.83148 -15.48929,5.80275 -3.63804,-0.75608 -6.84484,-3.70227 -9.11778,-6.64012 -2.87374,-3.48358 -5.76177,-7.10456 -7.35252,-11.11942 -1.47672,-3.71723 -2.91406,-6.28474 -7.88287,-6.92319 -2.62479,-0.71652 -3.37838,-0.51941 -5.12799,1.25619 l -2.47937,2.51636 -0.82341,3.98629 1.63107,3.60249 -3.38604,3.45704 -0.75516,2.21903 -0.24465,2.62139 2.26863,1.95301 -1.44228,2.67088 -1.79508,4.37929 0.83549,3.14137 0.78613,1.94364 -2.1883,3.40748 0.1576,2.11077 3.11346,3.61184 -1.44228,2.67089 0.35606,6.90169 c 2.15176,5.43191 7.19407,0.13956 9.22918,1.31246 1.84076,1.80704 1.91447,4.209 2.58405,6.17446 1.27533,2.46809 3.86442,1.80668 5.87108,0.32228 11.56711,-6.63084 17.71885,6.98336 25.48686,0.21726 2.70438,4.38526 6.54475,4.27772 6.99142,3.52214 -2.82544,-4.35347 2.56179,-7.03111 6.61532,-6.50524 0,0 3.6373,2.52326 0.21798,7.91668 0,0 2.84739,0.58775 3.93687,-0.37479 1.08937,-0.96248 2.23765,-2.20976 2.53176,-3.63336 0.29421,-1.42368 -0.49214,-3.36733 0.8232,-3.98629 1.31533,-0.61868 2.57197,-0.9532 2.57197,-0.9532 -0.0504,7.32311 5.32718,4.30952 8.35916,12.71106 0.94941,-7.02484 1.45204,-9.71558 6.47493,-14.10042 0,0 0.52006,-1.08009 1.30599,0.86348 1.03488,6.6297 4.65958,7.15658 8.20144,10.60038 2.20973,2.23767 2.8875,3.26826 2.8875,3.26826 1.11027,-3.19135 -0.1533,-5.56592 -0.31941,-8.66873 -0.20727,-4.28778 1.61826,-8.23041 2.70858,-8.65046 1.6001,-0.56041 2.86598,-2.37687 2.63078,-1.23793 -1.35135,7.44721 3.51309,13.60512 8.80173,14.8806 -0.64092,-1.36641 -0.85166,-4.3849 2.84434,-8.022 4.8383,-1.24123 3.85434,5.41328 11.41088,7.99755 -5.21682,-3.95118 -2.88257,-19.70204 4.8532,-19.18544 1.17464,2.68822 -0.93187,6.5243 -0.93187,6.5243 1.36468,0.0892 3.56737,-1.20584 4.21984,-3.87191 l 2.05685,8.84232 c 0,0 -1.32122,-6.7322 2.18379,-10.57332 0.50652,3.03597 0.94405,4.39555 3.04668,3.93478 -2.23713,-11.17422 7.27923,-5.28284 15.00177,-28.07388 0.17482,4.43153 -1.6568,11.35192 2.12593,15.57993 -0.61288,-4.13981 5.76618,-11.43235 11.02878,-14.08229 4.14068,-1.00011 4.181,-0.51725 4.28043,-3.249 -1.15384,-2.13069 1.01441,-3.61853 1.92371,-2.85972 1.30431,-0.81111 0.46116,5.83419 5.29525,10.29693 -1.71601,-8.32709 1.71959,-7.01615 1.91919,-15.04132 -0.30429,-2.14097 1.63076,-4.41332 4.30826,-5.04782 -3.58607,5.58392 -1.29833,15.49713 1.00558,12.37979 -0.28413,-1.98775 0.0147,-3.83213 0.56763,-5.61442 1.36878,-6.20618 5.8715,-10.31341 8.95661,-15.24152 1.75266,-2.83174 2.62458,-5.49428 2.92624,-8.69492 0.2079,-2.20414 0.43523,-4.65446 0.20286,-7.59994" />
      <g style="fill:#1a1a1a;">
        <path
          d="m 154.3852,248.48735 c 1.76704,-0.87781 3.54695,1.25346 4.14333,3.43329 0.57048,2.0853 -0.35897,6.42409 -2.34277,5.92425 -4.70194,-0.82233 -8.90419,1.70187 -12.31799,4.6605 0.0719,-6.77277 4.35548,-11.8129 10.51743,-14.01804 z" />
        <path
          d="m 152.49241,259.92041 c 1.76704,-0.8778 3.54696,1.25347 4.14333,3.4333 0.57047,2.08529 -0.35898,6.42416 -2.34277,5.92426 -4.70187,-0.82227 -8.90419,1.70193 -12.31799,4.6605 0.0719,-6.77279 4.35548,-11.81291 10.51743,-14.01806 z" />
        <path
          d="m 151.11248,284.42625 c 1.94364,-0.96557 3.90161,1.37886 4.55763,3.77667 0.6273,2.29385 -0.39495,7.06657 -2.57701,6.51667 -5.1722,-0.90456 -9.79465,1.87207 -13.54981,5.1266 0.0777,-7.45009 4.79108,-12.99423 11.56919,-15.41994 z" />
        <path
          d="m 151.21693,271.35139 c 1.94364,-0.96564 3.90161,1.37879 4.55756,3.77659 0.62731,2.29385 -0.39495,7.06658 -2.57701,6.51668 -5.17213,-0.90449 -9.79465,1.87214 -13.5498,5.12659 0.0777,-7.45001 4.79107,-12.99421 11.56925,-15.41986 z" />
      </g>
    </g>
    <g>
      <path
        d="m 335.78182,62.533514 c -0.11865,-3.797745 0.86951,-7.111262 3.07587,-9.33597 4.78716,-8.788521 19.18109,-12.702009 24.42531,-6.092667 1.59296,0.926646 2.96163,1.848325 4.12503,2.763894 4.02381,2.802103 8.148,13.511746 6.53426,16.863399" />
      <path
        d="m 392.94246,121.50452 c 0,0 2.23251,1.50317 2.65797,3.68228 0.42588,2.1791 0.85827,2.74095 0.91171,4.66957 -4.01194,1.61661 -5.57917,5.91174 -2.45931,7.26671 -1.39387,2.23939 -3.25416,0.95852 -4.91998,1.28375 -1.30557,3.93392 3.5932,8.91377 -1.12214,14.11539 0.0829,-7.58302 -5.85343,-9.76199 -7.60179,-10.79625 -1.42758,-0.69062 -3.34876,-2.25465 -3.34876,-2.25465 l 4.86822,10.0373 c 1.81618,4.35922 1.21107,8.9565 0.19141,12.56625 -0.91476,-2.88749 -2.76864,-5.16853 -3.82021,-7.97969 -1.28804,5.36716 4.38301,7.95416 0.29778,16.42348 -1.64189,-7.1445 -8.23652,-6.79976 -12.48482,-17.59904 1.68221,4.68525 3.41523,10.33427 -0.76587,15.62626 0.83181,-7.45916 -7.70227,-6.87084 -8.77758,-9.8848 -1.5435,3.45819 -1.70572,8.25163 -3.96984,11.11653 -1.31334,1.54906 -1.56397,1.92121 -1.56397,1.92121 0,0 0.27268,-5.22401 -0.0283,-6.78047 -0.30356,-1.55656 -1.01504,-2.55629 -1.25811,-3.80149 -0.24318,-1.24527 -0.26114,-3.98118 -0.26114,-3.98118 l -0.91906,-3.05223 c -3.03996,-8.04848 -11.76284,-9.98559 -22.9257,-8.84772"
        style="fill:none;" />
      <path style="fill:none;" d="m 406.07229,98.725859 c -3.06658,1.466071 -5.91367,2.301241 -8.54127,2.505531" />
      <path
        d="m 276.78379,99.855302 c 2.49438,5.090638 5.32518,-0.698523 7.01327,-4.342884 1.08318,-2.338602 2.31409,-5.825558 -0.0105,-7.275849 -0.93807,-0.58631 -1.23837,-0.17913 -3.98339,-0.173376 l -2.94347,2.320154 -1.41718,3.628925 z"
        style="fill:#1a1a1a;stroke:none;" />
      <path
        d="m 276.7294,95.06726 c 0,0 0.65174,-3.305684 1.83173,-4.073559 0.73101,-0.475514 1.72137,-1.340724 2.47422,-0.902549 0.58768,0.342437 0.60637,1.40742 0.24528,1.971858 -1.04381,1.632299 -4.55091,3.00425 -4.55091,3.00425 z"
        style="fill:#333333;stroke:none;" />
      <path style="fill:#333333;stroke:none;"
        d="m 380.42751,93.5561 c -1.5308,-7.787546 2.43484,-15.866382 13.96416,-20.499476 -8.9124,5.543622 -10.10499,15.706173 -8.24082,18.088728 0.7875,1.006499 9.54103,2.763401 18.33531,-5.190769 -6.64356,10.329879 -17.99574,10.736407 -24.05865,7.601517 z" />
      <g>
        <path style="fill:#ffffff;"
          d="m 335.98773,86.570387 c 0.76839,-0.04315 1.48365,0.0011 2.07396,0.290629 0.59062,0.289191 1.03666,0.845712 1.23354,1.556762 0.39354,1.422162 -0.17976,2.741812 -1.23333,4.484613 -1.05368,1.7428 -2.72517,3.331146 -4.94823,3.953554 -2.22317,0.622283 -4.50923,0.151799 -6.30735,-0.792834 -1.79813,-0.944422 -3.15956,-2.342119 -3.55352,-3.764292 -0.19708,-0.710755 -0.084,-1.386262 0.27342,-1.940767 0.35679,-0.554652 0.90258,-0.965286 1.58246,-1.327851 1.35975,-0.725151 3.57441,-0.745794 5.63755,-1.323399 2.06325,-0.577668 3.70472,-1.050452 5.2416,-1.136352 z" />
        <path
          d="m 325.97178,92.954618 a 4.0414289,4.0972261 5.9116827 0 0 7.97685,-1.352526 4.0414289,4.0972261 5.9116827 1 0 -7.97685,1.352526 z"
          style="fill:#000000;stroke:none;" />
        <path
          d="m 329.69791,90.328988 c 1.08255,-0.183446 2.19566,0.419401 2.38382,1.578265 0.18847,1.158948 -0.67484,2.096819 -1.75718,2.280327 -1.08234,0.183446 -2.12845,-0.392059 -2.32281,-1.588555 -0.19425,-1.19678 0.61362,-2.086518 1.69617,-2.270037 z"
          style="fill:#333333;stroke:none;" />
        <path
          d="m 328.3473,90.19316 c 0.74224,-0.125885 1.50895,0.308626 1.64325,1.135711 0.13461,0.826791 -0.45392,1.491221 -1.19627,1.617116 -0.74224,0.125895 -1.46296,-0.289191 -1.60156,-1.142757 -0.13881,-0.853839 0.41223,-1.484249 1.15458,-1.61007 z"
          style="fill:#ffffff;stroke:none;" />
        <path style="fill:none;" d="m 316.00346,86.602093 c 7.02722,0.07341 19.99654,-13.727093 28.06251,-4.552086" />
      </g>
    </g>
  </g>
  <use id="shine" xlink:href="#shield" fill="url(#rg)" stroke="#000" stroke-width="3" />
</svg>