<?xml version="1.0" encoding="UTF-8" ?>
<svg xmlns="http://www.w3.org/2000/svg" xmlns:xlink="http://www.w3.org/1999/xlink" width="600" height="660" id="blackwood">
  <defs>
    <radialGradient r="405" cy="220" cx="220" gradientUnits="userSpaceOnUse" id="rg">
      <stop id="stop2" offset="0" style="stop-color:#ffffff;stop-opacity:.3"/>
      <stop id="stop4" offset="0.2" style="stop-color:#ffffff;stop-opacity:.2"/>
      <stop id="stop6" offset="0.6" style="stop-color:#666666;stop-opacity:.1"/>
      <stop id="stop8" offset="1" style="stop-color:#000000;stop-opacity:.13"/>
    </radialGradient>
    <path d="m 2 2 v 257 c 0 286 298 398 298 398 c 0 0 298 -112 298 -398 V 2 Z" id="shield"/>
    <g id="raven" transform="scale(.4) rotate(-20)">
      <path d="M135.037,149.775c-2.053-0.794-11.322,0.61-11.322,0.61l8.578-3.622c-0.302-2.616-10.494-10.584-11.818-11.332 c-2.38-1.889-0.331-1.289-3.998-1.643c-1.4,4.104-1.017,0.179-2.467,1.288c-5.759,5.631-6.641,4.038-7.693,4.796 c-7.046,5.487-8.438,3.974-9.031,2.494c-2.071-0.178-1.867-0.004-3.196-1.657c-2.19-2.723,3.417-1.564,1.762-3.546 c-1.899,0.17-4.379,0.224-6.125,0.875c-2.591,0.966-19.981,16.135-23.591,19.229c-2.263,1.94-11.059,8.532-12.165,7.552 c-2.611-2.314,1.251-4.486,1.388-4.939c-1.957,0.364-19.671,11.557-8.395-2.367c-2.333,0.333-11.015,6.504-12.028,4.874 c0-1.399,6.263-5.668,7.028-6.874c-5.7,2.622-21.281,6.729-3-5c-2.737,1.047-28.555,9.454-2.719-4.997 c-2.173,0.362-19.488,7.854-3.443-3.953c-1.696-0.02-4.828,1.125-5.428,0.462c-1.107-1.224,2.689-5.196,13.82-9.951 c-7.711,2.243-11.758,5.365-12.442,3.196c-0.798-2.528,11.286-9.389,13.491-10.305c13.201-5.483,13.318-3.99,35.652-11.24 c2.145-3.289-33.244-10.814-31.91-16.98c0.008-0.038-9.069-4.351-11.757-10.02c-0.376-0.794-4.125-3.25-25.113-5.613 c0.087-2.01,6.376-1.976,6.466-2.359c-2.83-2.831-10.275,0.896-14.506-2.535c-3.233-2.622,1.498-2.397,5.418-2.01 c-14.244-4.457,0.534-2.884,16.079-1.398c4.222,0-17.237-2.774-14.331-5.68c2.185-2.185,24.109,3.616,27.876,3.757 c-3.146-2.971-17.075-7.716-15.992-9.7c16.288,6.055,19.662,7.428,22.021,5.942c-1.922-2.36-3.32-6.03-9.088-8.04 c-0.175-4.369-3.125-3.28-7.253-5.068c1.748-10.487-2.146,4.825,1.437-5.399c-3.409-0.244-7.515-0.437-13.277-0.111 c-3.501-4.87,26.909-10.026-4-9c-5.531,0.197-7.509,0.218-9.66-0.141c1.667-6.32,10.229-7.369,15.437-7.745 c2.525-0.183,43.992-2.323,0.173-4.858c-3.102-0.179-13.421-0.376-13.421-3.285c0-3.747,11.885-3.454,15.486-3.097 c40.548,4.02,32.109,1.354,7.79-2.535c-33.777-5.401-15.862-10.23-5.725-7.696c9.569,2.392,33.95,7.637,33.064,7.181 c-8.301-4.282-41.356-8.695-36.725-16.473c9.292,1.971,20.297,1.517,48.085,14.113C65.254,12.18,41.57,5.506,41.395,0.088 c2.709-0.963,21.559,6.156,29.365,10.605c8.126,4.631,14.123,11.226,17.177,8.981c3.065-2.253,4.564-0.807,15.729,8.995 c15.373,13.494,14.936,39.557,42.061,38.932c13.998-0.323,15.344,1.287,21.25,5.75c1.296,0.98,1.954,2.45,1.954,4.111 c0,3.433,11.957,8.168,11.601,21.19c-0.96,0.96-8.368-3.84-9.567-5.639c-2.246-3.369-11.991-2.583-16.056-2.584 c-5.587-0.001-7.971,1.173-11.547,4.915c-21.914,22.93-6.964,24.601-5.648,27.907c0.611,2.32,11.033,9.317,19.717,13.076 c0.429,0.226,2.916-0.86,6.652,4.956c-1.651-1.31-7.007-3.428-9.92-2.347c1.419,3.044,1.504,3.541,1.132,7.069 c0,0-5.168-9.137-7.376-9.502c-1.233,2.631-5.371,6.249-8.198,5.22c8.397-7.148,5.113-8.025-0.078-10.862 c-3.606-1.971-7.009-4.177-8.211-4.615c-1.413,2.501-2.925,3.708-3.506,4.737c1.244,0.453,1.069,3.695,1.026,5.002 c-0.083,2.496,2.599,3.052,4.157,5.009c3.822,4.801,10.938,9.122,10.377,8.86c2.485,1.794,5.469,5.691,5.469,5.691 s-7.3-3.407-8.816-3.959c0.984,3.215,3.143,3.205,2.359,6.386C139.859,154.668,137.089,150.569,135.037,149.775z"/>
    </g>
    <g id="tree">
      <path fill="#fff" d="M238.7 181.543c-7.907 5.256-12.836 10.512-23.912 15.768-8.35-2.834-18.843-1.71-24.596-9.333l-2.024 1.674c6.117 4.59 14.092 8.622 23.133 9.469-.715 6.912 4.092 10.907 6.512 17.081-10.417 3.231-24.3-4.005-35.387-8.612l-1.342 1.547c11.935 3.754 19.679 12.366 36.729 10.909 3.069 9.378 11.164 16.613 16.863 24.866l-5.05 2.178.32 3.32 7.083-.702c10.549 1.396 16.61 4.374 23.914 6.931l7.403 15.309c7.083 8.928 8.92 13.059 14.388 16.307 1.979 9.73 6.192 13.852 5.148 22.707-6.656-1.665-11.507-5.23-15.83-9.352l3.377-3.113-5.39-1.666c-5.676-6.453-11.561-12.734-13.816-22.005l2.013-1.917-1.001-3.815-6.083 2.141c-12.814-5.21-27.841-3.365-41.79-5.03-.648-5.157-9.832-8.964-15.156-13.393-11-5.517-20.24-9.593-23.661-19.953l-2.96 1.54c4.247 9.665 11.925 15.362 23.596 22.238-7.81 2.088-16.071.316-23.364 6.85l1.133 2.24c10.648-7.399 20.119-4.996 29.633-3.59 4.015 2.807 7.667 5.633 7.084 8.846l3.069.963c7.172.72 18.909-1.8 20.888 2.628l2.344.251c15.224-2.547 15.543 4.996 19.183 10.278.386 6.13 5.51 10.566 9.119 15.544-3.08 2.331-5.918 4.787-21.9.252l-14.17-.702-3.376-5.769c-7.457.783-14.575-1.98-21.207-8.847l-2.706 1.683 6.764 6.202c-12.463.215-24.926 4.031-37.39-2.143v1.918c10.837 4.023 22.343 4.473 34.002 3.815-.582 6.094-15.531 7.092-23.594 10.54l4.389 1.44c8.667-3.294 21.064-4.338 24.585-10.764 12.1.567 14.399 3.698 10.78 8.36l7.436.963c1.398-1.223 3.873-2.15 15.85-.476-2.1 4.401-7.81 5.363-12.143 7.66h5.38c7.293-.712 9.174-3.079 10.78-5.519 8.767 2.7 15.763 1.054 22.935-.225 3.839 3.35-3.355 6.724 2.794 8.847.12 3.538.98 6.931 3.388 10.053-2.2 5.95-.418 10.828 2.024 15.544-3.124 3.672-6.05 7.344-5.731 11.006 5.566 10.054 2.244 20.107-1.342 30.15-7.568 8.227-11.76 8.01-24.068 10.99-8.701 1.826-17.887 3.61-30.636 5.031-4.333 2.456-6.677 4.131-1.716 2.88 8.096-1.369 16.18-2.593 24.276-3.132 11.408-2.259 21.649-3.15 31.307-3.339l11.462-5.256c-8.448 4.824-18.007 9.396-24.905 14.58-2.364 2.88-.802 6.39-5.423 9.576-14.201 4.392-18.051 8.775-26.928 13.158l-.681 2.637c11.506-6.56 23.716-11.115 36.377-14.354 2.387-1.971 6.258-2.907 5.4-7.174 3.278-5.904 19.503-7.434 24.607-15.57 3.949 1.8 1.694 3.16 0 4.545 0 2.286-7.326 5.175-10.912 7.461-2.31 1.467-3.795 2.322-1.914 3.79-.473 4.76 1.364 8.973 4.378 12.915-.198 6.903-9.174 10.701-13.807 16.037l1.034 1.188c6.05-5.337 16.137-9.675 20.12-15.156.757-1.053.45-2.889.77-3.96-2.707-3.114-6.876-5.706-4.05-10.773 6.843-3.375 13.684-10.594 20.526-10.053-2.54 5.4-1.132 10.323-.318 15.31 5.148 2.087 7.094 5.552 9.426 8.846l24.96 10.755c2.397 1.062 3.188.73 2.661-.702l-23.562-12.437c-1.936-4.932-2.893-9.882-6.402-14.824 2.057-3.987 8.921-6.822 6.05-11.979 1.661 7.308 6.446 11.961 16.214 14.4 3.476.864 6.611 3.123 7.7 5.94 10.977 3.294 25.927 4.383 42.13 4.78 3.663-.09 4.818-.594 2.035-1.899-12.582-2.232-26.574-.459-37.75-6.723-5.38-5.76-6.446-8.38-18.876-16.983 16.126 6.516 31.24 3.609 46.838 5.265v-1.197c-11.451-1.989-19.327-1.017-34.375-5.976-6.393-1.917-2.783-3.114-4.17-8.595l-7.03-20.601c3.608-8.362 5.203-16.732.662-25.11.913-2.98 1.813-5.977 1-12.205-1.55-3.384 6.582-9.69 7.194-10.278.175-3.5-1.078-6.885 4.058-10.764l16.5-4.302c15.367-1.89 26.642-1.323 30.327 3.816h5.368c11.99-7.317 25.508-10.556 40.8-9.072l.66-1.692c-7.987-.656-15.049-1.854-24.938-1.44 9.363-3.519 10.1-9.153 13.596-14.346l-2.926-.423c-1.485 8.92-14.388 12.087-21.78 18.134-15.378-3.006-30.767-6.084-46.156.225l-2.387-4.3-4.015-1.18 1.353 4.293c-10.46 1.701-19.239 6.552-27.974 11.502 7.57-7.813 16.974-15.183 17.513-24.66 24.255-2.205 43.945-8.586 52.557-25.119l20.89-.963 3.035-2.15s-2.442.413-1.32-.47c3.092-2.484 19.745-10.15 17.92-10.368l1.1-1.52c-16.567 6.623-18.183 13.275-43.296 10.926-.199-6.956-1.11-13.986 7.084-20.088 3.387-.09 5.818-1.287 6.731-4.302.737-2.529-.869-1.404-2.1-.854-2.575 2.961-6.545 3.384-10.35 3.707-4.896 6.66-8.064 13.402-6.766 20.341l-6.06-1.666.681 4.294c5.412 16.524-18.492 18.27-40.777 20.826l-10.792 4.294c0 6.003-4.543 10.144-9.437 14.12l-4.698 1.674v3.834l-7.755 11.727c-.374-10.827-1.837-17.234-5.939-27.766 10.461-4.976 8.392-17.19 12.672-23.679 11.65-1.449 23.661-7.083 35.727-13.158l1.673 1.908 3.695-1.179-.67-2.88 12.243-16.02 1.243.701c-.957-5.076-2.957-9.8 0-16.272 1.628-3.825 4.07-7.64 7.755-11.465l-1.507-.45c-5.742 4.437-6.631 8.018-9.392 11.915l-1.949 14.131c-7.249 12.168-17.623 18.378-30.602 22.968 1.353-5.896.528-11.53-.55-17.127l-2.825-.108c1.263 4.797 1.99 9.702 0 15.094.66 5.696-9.275 4.887-14.17 7.164 1.025-8.586 2.224-16.902-4.213-24.147 8.813-8.397 9.682-17.811 16.027-27.036l-1.023-3.366c-1.507 2.574-1.727 8.1-4.697 7.281-1.925-4.104-1.2-8.199-6.413-12.303a47.52 38.88 0 0 1-10.88-9.665l-2.299.818c2.19 4.383 5.236 8.263 9.471 11.475 6.764 4.96 4.575 9.936 6.764 14.905-3.256 2.645-3.619 6.74-6.435 9.98.924 2.818-3.818 6.21-5.73 9.325v.476c8.172 8.299 1.935 16.371 3.276 24.669-3.508-.261-3.806 1.818-5.313 3.555 1.85 8.721-1.485 11.52-12.176 16.227-3.125-2.962-11.946-3.96-13.42-11.421-.297-1.125-.726-2.484-1.947-3.033-5.27-2.358-.749-7.092-1.42-10.143 8.13-3.159 10.483-11.755 13.773-18.738-1.914-8.72-4.08-17.605-2.739-27.189h-2.276c-.617 8.055-.902 16.101 1.352 24.156-2.76 9.919-8.283 17.883-19.227 22.014-5.842-1.998-12.837-2.322-17.5-5.967-4.852-4.248-10.297-8.361-11.783-13.392 5.237-2.674 11.023-5.283 19.548-7.659 3.377-3.924 7.876-8.307 14.157-13.41l-1.033-1.908-11.776 10.035c-7.975 2.646-15.95 9.531-23.914 7.659-7.92-5.419-6.93-10.836-10.141-16.254 6.28 2.654 10.988-.838 16.19-2.403l.32-1.909c-5.598.703-10.163 5.4-16.83 1.909-1.077-3.42-4.62-6.84-2.045-10.269 9.24-4.662 14.454-10.053 21.58-15.094z"/>
      <g id="face" style="fill:#000">
        <path d="M299.776 332.788s-1.078 1.248-2.1 1.362-2.61-1.079-4.029-1.419c-1.418-.34-2.951-.965-4.993-.624s-2.157 1.191-3.632 1.191-4.995-1.361-6.016-2.043-1.646-1.192-1.646-1.192.511 2.498 1.646 3.065c1.136.568 3.405 1.192 3.859 1.306s.908.737 2.497.396c1.59-.34 2.894-1.361 4.03-1.304s2.098.113 3.29.794 1.703 1.078 2.61 1.022 2.952.17 3.577-.455.907-2.099.907-2.099m2.318.588s1.845.923 3.21.522 1.484-1.565 3.852-1.444c2.367.12 4.213 1.043 5.738.882s3.41-1.003 5.537-.602 3.451-.32 3.451-.32 0 1.043-3.21 1.684c-3.21.643-5.056.964-6.982.482s-1.124-1.204-3.852-1.003-1.846 1.485-3.652 1.445-4.092-1.646-4.092-1.646m-8.308 13.931c0 .187-.44.126-.46.314-.016.153.098.277.15.413.078.207.04.434.126.64.09.216.284.358.461.496q.196.153.385.314c.238.2.565.249.87.227.314-.022.626-.104.89-.288.188-.131.254-.353.251-.577-.001-.168-.013-.416-.203-.42-.304-.007-.607.015-.909-.03-.342-.052-.681-.206-.885-.492-.179-.248-.676-.9-.676-.597m2.546 1.926c-.048.026.034-.019 0 0"/>
        <path d="M297.654 338.78c-.05.946.144 1.882.113 2.829a107 107 0 0 0-.053 3.534c0 1.087-.56 2.073-.827 3.118-.175.68-.259 1.608.398 2.112.641.493 1.313 1.018 2.137 1.136.92.13 1.892.333 2.79.049.887-.282 1.66-.81 1.125-.46-1.146.75.385.048.264-1.79-.036-.558.462-1.388.721-.945.372.634-.068 1.437-.32 2.11-.457 1.221-2.668 1.763-3.784 1.685-1.022-.072-2.112-.176-2.96-.822-.55-.418-1.2-.823-1.157-1.648.037-.717.144-1.38.424-2.038.418-.98.458-2.07.427-3.136-.046-1.6.217-3.217-.077-4.804-.093-.501.343-.807.76-.92.383-.105.013-.015.02-.01 0 0 .05-.942 0 0"/>
        <path d="M308.074 347.114c0-.242-.408.218-.622.314-.21.096-.054.42-.255.516-.152.073-.312.147-.48.152-.725.02-1.46-.122-2.176-.006-.277.044-.627.217-.681.492-.044.22.504.21.29.376-.176.138-.236.352-.122.556.126.222.369.204.58.203.337-.002.676.006 1.003-.09.297-.089.594-.18.859-.353.204-.132.406-.27.626-.372.307-.143.628-.284.872-.52.188-.183.134-.472.194-.71.045-.174-.088-.334-.088-.558m.064.059c-.017.056.007-.023 0 0m-22.663 11.549s.398-1.532 2.838-2.1 4.824-.624 6.583-.51 3.234 1.191 6.072.68c2.838-.51 2.213-1.078 5.674-.964 3.463.114 3.86-.284 6.243.454s3.405 2.78 3.405 2.78-2.724 1.532-3.348 2.895c-.624 1.361-1.986 3.461-3.121 3.632-1.135.17-1.532 2.099-3.122 2.27s-4.596-.114-5.164-.569c-.568-.453-3.234-1.19-5.334-1.248s-1.93-.568-3.405-1.021-2.214-2.1-3.802-3.008c-1.59-.907-3.519-3.12-3.519-3.12z"/>
      </g>
      <g id="eyes" fill="red">
        <path d="M287.526 334.834c-.212.872-.05 1.779-.12 2.664.034.907.347 1.844-.03 2.723-.367.802-.823 1.596-.903 2.493-.17.932.01 1.888-.171 2.819.016.637-.152 1.276-.059 1.906.109.62.663 1.328.373 1.92-.515.08-.26-.807-.534-1.105-.294-.564-.283-1.188-.184-1.797-.001-.812.178-1.611.125-2.425-.029-1.065.2-2.138.712-3.077.323-.597.542-1.27.439-1.955-.068-.564-.16-1.125-.122-1.696-.004-.742-.048-1.498.069-2.232.088-.142.274-.154.405-.238m2.223.581c.02.68.616 1.176.658 1.866.268.705.005 1.424-.022 2.14-.027.667-.083 1.33-.104 1.997-.001.652.187 1.284.345 1.906a8.6 8.6 0 0 1-.27 2.578 19 19 0 0 0 .012 1.986c-.264.272-.534.132-.394-.23 0-.764-.067-1.544.165-2.284.124-.7.17-1.43.064-2.13-.304-.858-.342-1.784-.232-2.68.018-.703.044-1.414.183-2.103.037-.688-.201-1.37-.461-1.992-.272-.327-.576-.916.056-1.054m1.846-.233c.19.713.141 1.467-.093 2.162-.198.832-.221 1.687-.188 2.538-.048.488.05 1.103-.322 1.464-.508.233.086-.72-.053-1.028-.011-.999-.046-2.015.244-2.983.255-.639.092-1.38.11-1.993.093-.068.209-.096.302-.16m16.543-.426c.026.528.257 1 .499 1.443.217.888-.028 1.8.039 2.699.007.613.022 1.234-.138 1.832-.12.796-.07 1.604-.158 2.404 0 .75-.062 1.498-.077 2.248a2.3 2.3 0 0 0 .383 1.31c.23.253.173.667-.22.6-.13-.487-.524-.908-.512-1.443-.083-.695.078-1.388.042-2.084.012-.71.086-1.416.093-2.127.01-.643.244-1.257.213-1.902-.01-.84-.008-1.682.052-2.52.086-.602-.24-1.1-.472-1.614-.067-.356-.23-.744.256-.846m2.979.568c-.354.34-.853.111-1.23.42-.153.346.472.504.323.927.05.861.197 1.766-.139 2.592-.222.496-.259 1.043-.263 1.576-.142.992-.376 1.981-.32 2.99-.002.659-.002 1.317.01 1.974.254.541.224 1.155.4 1.715-.008.384.719.657.61.136-.255-.245-.351-.59-.377-.938a3.2 3.2 0 0 0-.23-1.02c-.106-.642-.004-1.294-.04-1.94a9.2 9.2 0 0 1 .173-2.129c.092-.557.203-1.117.181-1.685.112-.707.51-1.361.443-2.096a8 8 0 0 0-.16-1.773c.177-.27.61-.38.619-.75zm-.826.248c-.064.054-.097.082 0 0m2.96-1.058c-.202.143-.528.298-.048.316.806.082.416.93.176 1.379-.232.49-.204 1.053-.313 1.575-.123.534.1 1.045.376 1.49.332.624.281 1.368.268 2.054-.13.873-.156 1.758-.29 2.63-.25.615-.23 1.294-.193 1.941-.072.443-.046.893-.043 1.339-.244.16.486-.083.406-.28.09-.496.012-1.006.043-1.499a25 25 0 0 1 .283-1.052c.118.61.124 1.232.248 1.841.04.573.144 1.158-.024 1.722-.086.575-.131 1.165-.005 1.737.352-.1.439-.326.3-.677-.033-.608.087-1.208.17-1.806.012-.71-.113-1.408-.203-2.109-.024-.568-.17-1.117-.248-1.677-.085-.42-.12-.904-.19-1.288.06-.624.178-1.24.122-1.87-.017-.535-.138-1.066-.445-1.513-.34-.499-.224-1.117-.117-1.667.016-.518.184-1.006.42-1.462.294-.496.089-1.043-.526-1.081l-.084-.019z"/>
        <path d="M285.553 335.733c.096.763.668 1.526 2.194 1.621s4.483.287 5.343-.572 2.193-1.336 1.526-2.099-2.1-1.335-3.434-1.335-3.435 0-4.293.477c-.86.477-1.432.668-1.336 1.908m20.183-.762c.292.935.76 1.401 2.043 1.752 1.285.35 2.803.525 4.32.116 1.519-.408 2.102-.525 2.102-1.225s-.642-1.752-1.927-1.927c-1.284-.176-2.568-.467-3.444-.233s-2.744.641-3.094 1.517"/>
      </g>
    </g>
  </defs>
    <use id="bg" xlink:href="#shield" fill="red"/>
    <g id="ravens">
      <use xlink:href="#raven" id="r1" transform="translate(310 45)"/>
      <use xlink:href="#raven" id="r2" transform="translate(405 30)"/>
      <use xlink:href="#raven" id="r3" transform="translate(500 15)"/>
      <use xlink:href="#raven" id="r4" transform="translate(310 135)"/>
      <use xlink:href="#raven" id="r5" transform="translate(405 120)"/>
      <use xlink:href="#raven" id="r6" transform="translate(500 105)"/>
      <use xlink:href="#raven" id="r7" transform="translate(420 210)"/>
      <use xlink:href="#raven" id="r8" transform="translate(500 195)"/>
      <use xlink:href="#raven" id="r9" transform="translate(420 300)"/>
      <use xlink:href="#raven" id="r10" transform="translate(500 285)"/>
      <use xlink:href="#raven" id="r11" transform="translate(390 390)"/>
      <use xlink:href="#raven" id="r12" transform="translate(475 375)"/>
      <use xlink:href="#raven" id="r13" transform="translate(320 480)"/>
      <use xlink:href="#raven" id="r14" transform="translate(415 465)"/>
      <use xlink:href="#raven" id="r15" transform="translate(310 555)"/>
    </g>
    <use id="ravens2" xlink:href="#ravens" transform="matrix(-1,0,0,1,600,0)" />
    <use id="inescutcheon" xlink:href="#shield" transform="scale(.4) translate(445 500)"/>
    <use id="weirwood" xlink:href="#tree" transform="translate(60 65) scale(.8)"/>
    <use id="shine" xlink:href="#shield" style="fill:url(#rg);stroke:#000000;stroke-width:3;"/>
</svg>
