<?xml version="1.0" encoding="UTF-8" standalone="no"?>
<svg
   xmlns:dc="http://purl.org/dc/elements/1.1/"
   xmlns:cc="http://creativecommons.org/ns#"
   xmlns:rdf="http://www.w3.org/1999/02/22-rdf-syntax-ns#"
   xmlns:svg="http://www.w3.org/2000/svg"
   xmlns="http://www.w3.org/2000/svg"
   xmlns:xlink="http://www.w3.org/1999/xlink"
   width="600"
   height="660"
   version="1.1">
  <title>House Volmark</title>
  <metadata>
    <rdf:RDF>
      <cc:Work rdf:about="">
        <dc:format>image/svg+xml</dc:format>
        <dc:type rdf:resource="http://purl.org/dc/dcmitype/StillImage" />
        <dc:title>House Volmark</dc:title>
        <dc:date>02 October 2024</dc:date>
        <dc:creator>
          <cc:Agent>
            <dc:title>Abjiklam (abjiklam@gmail.com)</dc:title>
          </cc:Agent>
        </dc:creator>
        <dc:description>
          The sigil of House Volmark.
          A black leviathan on grey.
        </dc:description>
        <cc:license rdf:resource="http://creativecommons.org/licenses/by-nc-sa/4.0/" />
      </cc:Work>
      <cc:License rdf:about="http://creativecommons.org/licenses/by-nc-sa/4.0/">
        <cc:permits rdf:resource="http://creativecommons.org/ns#Reproduction" />
        <cc:permits rdf:resource="http://creativecommons.org/ns#Distribution" />
        <cc:requires rdf:resource="http://creativecommons.org/ns#Notice" />
        <cc:requires rdf:resource="http://creativecommons.org/ns#Attribution" />
        <cc:prohibits rdf:resource="http://creativecommons.org/ns#CommercialUse" />
        <cc:permits rdf:resource="http://creativecommons.org/ns#DerivativeWorks" />
        <cc:requires rdf:resource="http://creativecommons.org/ns#ShareAlike" />
      </cc:License>
    </rdf:RDF>
  </metadata>
  <defs>
    <radialGradient id="rg" gradientUnits="userSpaceOnUse" cx="220" cy="220" r="405">
      <stop style="stop-color:#fff;stop-opacity:.3" offset="0"/>
      <stop style="stop-color:#fff;stop-opacity:.2" offset=".2"/>
      <stop style="stop-color:#666;stop-opacity:.1" offset=".6"/>
      <stop style="stop-color:#000;stop-opacity:.13" offset="1"/>
    </radialGradient>
    <clipPath id="clip-shield">
      <path id="shield" d="m 1.5,1.5 v 258.9 c 0,286 298.5,398 298.5,398 0,0 298.5,-112 298.5,-398 V 1.5 z"/>
    </clipPath>
  </defs>
  <use id="background" xlink:href="#shield" style="fill:#999999;"/>
  <g id="leviathan" style="fill:#0f0f0f;stroke:#666666;stroke-width:1;stroke-linecap:round;stroke-linejoin:round;">
    <path id="water" style="fill:#d6d6d6;" d="m 241.1,334.6 c -0.5,-24.4 -3.7,-81.9 8.9,-91.6 21.5,-16.3 47,0.5 46.4,24 3.1,-10.6 9.7,-24 -7.5,-38.3 22.4,8 26.7,26 25.2,54.4 20.1,-33.3 5.8,-65.6 -16,-76.8 -21.5,-10.6 -55.5,-6 -65.5,11.2 -6.3,-10.6 -22.4,-16.6 -38.4,-17.2 -9.4,0 -19.7,2.3 -27.8,6 -21.7,11.2 -36,43.5 -15.7,76.8 -1.7,-28.4 2.6,-46.4 24.3,-54.4 -16.6,14.3 -9.4,27.7 -6.3,38.3 -1.1,-23.5 24.4,-40.3 45.8,-24 12.3,9.7 9.5,67.2 8.9,91.6"/>
    <path d="m 255.3,95.73 c 19.1,16.47 53.1,-2.12 100,-2.02 42.5,0.1 47.5,37.69 60.2,32.59 12.5,-5 -5.1,-24.3 19.9,-40.51 36.5,-23.63 84.3,-14.15 99.8,-33.02 22.5,87.03 -80.6,66.93 -42.4,130.03 32.7,54 82.8,146.6 -17.8,240.7 -46.9,43.9 -123.4,40.4 -196.9,55.2 -22.6,4.6 -52.4,1.8 -75.3,4.2 -22,2.3 -67.2,5.9 -87.2,1.1 -13.2,-3.2 34.6,-6.3 61.1,-10.5 15.2,-2.4 29.9,-9.8 42.4,-9.9 -34.9,-16.6 -67.6,-33.3 -114.9,-37.6 -27.44,-2.5 -30.3,-22.2 -25.24,-64.3 9.1,-75.6 57.64,-53.1 144.74,-38.9 6,5.5 11.9,5.3 17.1,2.2 59.7,13.9 115.5,36.6 176.9,17.4 65.4,-20.5 65.4,-91.2 32.4,-135.8 -39.1,-52.8 -171.8,27 -194.8,-110.87 z"/>
    <g id="eye">
      <path style="fill:#f9f9f9;" d="m 218.3,429.1 c 4.4,-4 7.8,-4.7 12.6,-4.4 6.3,0.5 9.3,2.2 15.4,6.4 -5.3,2.7 -10.1,3.7 -15.9,3.3 -5.2,-0.4 -9.1,-2.1 -12.1,-5.3 z"/>
      <path style="fill:#000000;stroke:none;" d="m 229.9,424.3 a 5.084,5.084 0 0 1 4.1,5.9 5.084,5.084 0 0 1 -5.8,4.3 5.084,5.084 0 0 1 -4.2,-5.9 5.084,5.084 0 0 1 5.8,-4.3"/>
      <path style="fill:#ffffff;stroke:none;" d="m 231,425.8 a 1.6,1.6 0 0 1 1.4,1.8 1.6,1.6 0 0 1 -1.8,1.4 1.6,1.6 0 0 1 -1.4,-1.8 1.6,1.6 0 0 1 1.8,-1.4"/>
    </g>
    <path id="tail" d="m 450.1,206.6 c -19.1,-32 -5.3,-36.4 -27.9,-68.4 35.9,32.5 53.7,15.9 70.6,44.6"/>
    <path id="flipper" d="m 258,447.6 c 10.5,18.1 89.7,49.5 83.5,88.1 19.8,-15.3 40.7,-21.5 64,-5.5 -7.6,-35.6 46,-31.9 54.4,-48.8 -65.8,4.6 -133.5,-43.8 -157.9,-42.3"/>
  </g>
  <use id="shine" xlink:href="#shield" style="fill:url(#rg);stroke:#000000;stroke-width:3;"/>
</svg>