<?xml version="1.0" encoding="UTF-8"?>
<svg xmlns="http://www.w3.org/2000/svg" xmlns:xlink="http://www.w3.org/1999/xlink" width="600"
    height="660">
    <defs>
        <radialGradient id="rg" gradientUnits="userSpaceOnUse" cx="220" cy="220" r="405">
            <stop style="stop-color:#fff;stop-opacity:.3" offset="0" />
            <stop style="stop-color:#fff;stop-opacity:.2" offset=".2" />
            <stop style="stop-color:#666;stop-opacity:.1" offset=".6" />
            <stop style="stop-color:#000;stop-opacity:.13" offset="1" />
        </radialGradient>
        <path id="shield" d="m2,2v257c0,286 298,398 298,398c0,0 298-112 298-398V2z" />
    </defs>
    <use xlink:href="#shield" style="fill:#ffff00" />
    <g style="stroke:#000077;stroke-width:1;stroke-linecap:round;stroke-linejoin:round;">
        <g>
            <path style="fill:#5959ff;" d="m 332.3,432.5 13,13.2 c -3.9,17.9 -5,35.8 -3.6,53.8 3.5,0.8 7.1,0.5 10.8,-0.6 l 2.3,6.6 c -3.6,2.5 -8.1,4.3 -13.9,4.8 0.4,3.7 0,7.4 4.4,11.2 9.6,3.6 14.5,-1.9 21.7,5.2 l -2.8,7.1 c -6,-1 -11.9,-1.4 -17.8,0 l -10.6,7.9 h -7.9 c -4.7,9.1 -16.9,10 -16.7,20.9 l -8.1,1.7 -7.7,-5.3 c 12,-5.1 13.6,-18.4 25.9,-23.9 -9.3,5.1 -18.4,9.3 -26.6,8.6 -3.6,4.1 -3.2,10.5 -13.2,11 l -5.9,-8.2 14.9,-12.7 22.9,-5.5 -8.4,-4.4 c -5.1,4 -10.8,2.4 -13.1,5.3 l -2.7,-7.9 c 0.8,-5 9.5,-5.6 15,-8 6.5,2.8 12.7,8.7 19.7,5.5 0.4,-17.3 2.6,-34.4 -0.2,-52.3 -0.9,-1.2 -1.7,-2.5 -2.6,-3.7 -1.3,-2 -2.5,-4 -3.5,-5.9 l -2.2,-18.9 z" />
            <path style="fill:#0000bb;" d="m 290.1,520.4 c -8.3,-1.3 -9.5,6.3 -11.2,11.6 7.2,-2.3 9.1,-4 13.4,-5 1.4,-1.8 -0.8,-4.3 -2.2,-6.6 z" />
            <path style="fill:#0000bb;" d="m 276.5,547.2 c -4.4,3.1 -10.2,2.8 -1.8,16.2 4,-6.6 2.8,-6.8 8.2,-9.8 -0.4,-3.9 -3.2,-5.4 -6.4,-6.4 z" />
            <path style="fill:#0000bb;" d="m 294.3,559 c -7.5,5.8 -1.4,10.2 -2.7,15.4 2.3,-4.9 5.6,-7.9 12.6,-10.5 -1.6,-3.6 -5.5,-4.7 -9.9,-4.9 z" />
            <path style="fill:#0000bb;" d="m 366.1,526.5 c 6.1,2 7.5,5.1 8.8,9.5 l -11.4,-2.7 c 0.1,-2 -0.8,-3.7 2.6,-6.8 z" />
            <path style="fill:#0000bb;" d="m 351.9,499.4 c 0.7,1.8 -0.5,4 3.2,5 6.5,-1.2 8.4,-7.2 11.8,-12.4 -4.8,2.5 -8.7,5.6 -15,7.4 z" />
        </g>
        <g>
            <path style="fill:#5959ff;" d="m 231.6,399.1 -1.9,34 -18.9,48.6 c -4.9,2.5 -6.9,7.8 -20,2.6 -2.7,-6.5 -7.6,-8.7 -13.2,-9.4 -10.7,1 -14.9,3.8 -16.7,7.2 l 4.4,4.3 c 3.4,-0.7 6.5,-2.6 10,-2.6 4.1,1 5.9,-0.3 13.7,8 -10.2,-1.1 -20.6,-2.3 -29.7,0.8 -1.4,0.4 -2.9,2.1 -4.3,2.5 l 1.3,8.3 c 9.6,-7.1 20.9,-2.6 30,-0.3 -11.1,4.3 -17.4,10.2 -21,16.8 l 8.6,4.4 c 8.6,-12.7 23.5,-15.8 39.7,-16.9 8.1,-2.6 18.5,-0.7 28.2,0 l 5,-7.2 c -0.2,-6.9 -14.9,-3.7 -24.2,-4.2 -2.2,-5.8 3.1,-11.6 6.2,-17.4 22.7,3.4 13.2,0.4 14.7,-6.2 -3,0 -6,-0.1 -8.8,-2.4 7,-21 14.5,-36.8 29,-53.2 l -19.3,-21.5 z" />
            <path style="fill:#0000bb;" d="m 155.2,495.4 c -5.8,2.2 -8.9,6.2 -11.5,10.4 3.8,-0.9 6.3,-4.8 11.8,-1.9 3.1,-3.1 3.3,-4.9 -0.3,-8.5 z" />
            <path style="fill:#0000bb;" d="m 161.6,481.4 c 3,0.3 4.8,1.5 4,5.1 -3,0 -6.1,2 -9.1,4.4 0.8,-3.4 2.2,-6.6 5.1,-9.5 z" />
            <path style="fill:#0000bb;" d="m 244.1,471.8 c -2.2,3 -1.6,5.5 0.3,7.7 4.9,-2.3 9.8,-5.6 14.6,-8.7 -5,0.4 -10.7,3.7 -14.9,1 z" />
            <path style="fill:#0000bb;" d="m 165.8,519.2 c 1.3,0 3.5,-1.6 3.7,0.3 1.5,0.6 4,1 3.9,4.8 -3.8,1.5 -3.2,6.4 -3.4,10.7 -2.8,-4.6 -5.8,-9.2 -4.2,-15.8 z" />
            <path style="fill:#0000bb;" d="m 246.9,500.5 c 5.4,2.6 7.9,6.4 9.6,10.6 -4.8,-1.8 -7.5,-4.4 -15.7,-4.7 z" />
            <path style="fill:#0000ff;" d="m 192.8,360.8 c 2,8.9 0.2,17.8 8.1,26.7 5.7,12 14,17.4 23,21.2 l -0.6,14.9 c 2.9,-2.7 4,-5.4 9.9,-8.1 l 6.9,10.6 13.6,5 6.9,-8.7 -7.5,-18.1 11.2,16.2 c 4.4,-9.3 -3.1,-18.7 -6.2,-28" />
        </g>
        <g id="tail">
            <path style="fill:#0000ff;" d="m 268.6,258.6 c 33.1,2.1 80.1,9.9 77.5,-24.4 -2.5,-34.3 -4.5,-63.1 15.6,-94.7 25.6,-39.93 67.7,-37.1 104.6,-20.6 43.6,19.4 55.9,49.7 63.3,76 -19.9,-27.1 -112.5,-112.18 -151.2,-25.9 41,-73.96 126.1,-12.7 123.1,18 -20,-26.9 -58.4,-38.7 -76.5,-32.5 21,-8.8 54.9,11.8 67.7,33.8 9.1,15.5 23.6,29.7 47.5,35.2 -11.4,18.6 -41.5,2.2 -64,-23.5 -19.9,-22.6 -48.7,-34.8 -70.4,-25.3 27.6,-8.6 57.2,5 72.1,30.6 9.6,16.6 24.1,36.8 45.6,52.5 -7.6,7.9 -38.6,-10.4 -69.3,-48.7 -15.1,-18.8 -45.6,-13.3 -68.3,1.6 74.7,-38.9 76.2,29.6 113,56.3 -8.5,2.9 -17.4,3.9 -33.5,-19.7 -22.7,-33.2 -55.5,-40.2 -78.2,-9.8 23.7,-23.3 46.7,-26.7 70.4,-0.9 8.7,9.7 7.3,28.9 28.1,42.3 -9.4,3.8 -20.7,-1.3 -38.3,-27.2 -12.3,-18.3 -38.1,-15.2 -57.1,3.4 38.4,-29.6 56.4,-5.5 73,22.4 -24.1,-18 -47.8,-23.6 -70.8,-6.5 30.8,-19.5 50.9,-4.9 69,16.2 -24.8,-12.5 -47.5,-14.1 -67.7,4 34.3,-16.3 67.6,-8.8 71.7,30.3 -16.6,-28.9 -45.5,-16.2 -70.8,-15.8 22.4,-0.1 45.5,-1.1 49.7,25 -16.6,-9.2 -33.1,-7 -49.7,-4.8 33.2,2.5 54.5,4.7 55.4,26.4 -14.5,-7.8 -34.8,-10.9 -55,-14.1 23.5,3.8 47.2,7.4 40.9,27.2 -16.1,-11.2 -33.7,-9.7 -51,-10.9 13.3,3.6 31.5,0.8 31.7,21.9 -11,-7 -22,-10.6 -33,-12.7 8.1,8.3 18.3,6.9 24.2,25 l -36.9,-13.1 z" />
            <path style="fill:#0000ff;" d="m 306.8,264.8 c 33.9,2.4 35.4,-18.1 49.2,-29.9 -7.1,14 4.2,24.8 -30.7,43.5 18.1,-5.2 32,-31.6 47.4,-50.1 -8.7,19.8 -8,42.5 -37.8,55.8 19.8,-8.9 31.8,-23.7 44.9,-37.8 -1.4,20 -12.1,35.7 -42.7,42.2 18.3,-2.7 36.6,-5.6 53.2,-17.5 -2.1,15.5 -20.6,24 -51.4,27.2 18.9,-0.4 37.9,-0.4 56.2,-8.8 -7.2,15.9 -37.5,16.5 -65,18.9 21.7,-0.8 43.4,1.5 65,-5.7 -5.5,10.7 -29.2,13 -51.8,15.8 16.8,-0.6 33.4,-0.9 51.8,-4.4 -11.9,8.4 -28.5,12.2 -45.7,15.4 15,0.1 29.9,0.4 44.9,-3.5 -7,5.6 -17.6,9.6 -31.7,12.3 12.8,-1.6 24.3,-1.5 34.7,0.4 -6.2,2.6 -11.3,5.3 -25.4,6.2 7.7,0.7 15.3,1.6 21.9,3.5 -5.6,4.7 -10.9,9.5 -25,9.7 l -126.1,-27.3 z" />
            <path style="fill:#0000ff;" d="m 370.1,221.7 c 4,-22.8 1.3,-46.1 31.6,-69.4 25,-17.1 53,-22.9 70.4,-32.1 31.4,-23.41 27.7,-24.71 33.4,-40 12.4,34 -11.6,48.1 -32.6,61.5 -20.5,8.7 -39.6,13.8 -62.4,29.9 -22.7,19.7 -25.1,39.3 -33.8,58.9" />
        </g>
        <path id="tongue" style="fill:#0000bb;" d="m 142,108.8 c 16.2,-6.8 30.1,2.7 43.9,12.5 l -10.9,4.8 c -1.6,-8 -14.5,-13.4 -33,-17.3 z" />
        <path style="fill:#0000bb;" d="m 176.7,84.01 -5.6,-6.47 c -0.1,-17.67 9.5,-19.96 18.3,-23.62 -4.4,6.48 -1.8,8.38 -0.8,11.34 19,-22.26 27.2,-12.66 37.9,-10.72 -7.1,1.06 -13.6,2.89 -13.8,12.59 11.5,0 19.6,-7.16 28.9,-11.65 -1.9,3.26 -4.6,6.31 -4,10.41 12.5,0.56 20.3,-4.42 29.7,-7.62 -5.6,8.48 -13.5,16 -27.9,20.98 24.7,-8.93 38.8,-6.19 45.9,4.2 -20.2,-0.3 -22.5,15.71 -53.8,16.95 z" />
        <path style="fill:#0000ff;" d="m 177.3,84.22 c 10.7,-4.64 24.3,-0.74 38.3,2.75 19.2,11.83 28.1,24.03 35.6,37.33 -1.2,0.1 -2.4,0.1 -3.6,0.1 5.9,12.3 9.9,27.9 8,40 -4,24.7 -11,28.7 -15.5,37.9 -2.8,5.5 -5.4,12 -0.7,17.4 12.6,14.6 31.8,14 47.3,21.8 6.1,3 11.2,7.9 16.8,11.8 h -12.5 c 8.7,4.2 16.6,6.1 26.8,14.9 -9.8,-1.9 -19.5,-3.7 -29.3,-5.6 21.2,5.8 43.1,11.1 49.8,24.9 -16,-5.2 -31.9,-10.4 -47.9,-15.6 24.2,10.7 52.1,18.3 67.1,36.7 -26.1,-8.1 -52.2,-16.2 -78.3,-24.2 35.9,13.4 77.7,26.9 85.2,40.4 -25.5,-7.5 -51,-15 -76.5,-22.4 44.1,14.8 80.5,30.4 93.3,48.5 l -98.2,-33.6 c 48.1,14.7 97.6,28.5 116.8,60.9 -36.7,-14.9 -73.3,-29.8 -110,-44.7 78.6,28.5 106.7,48.9 114.4,65.9 -37.7,-15.4 -75.5,-30.7 -113.2,-46 40.9,21 97.9,31.2 111.9,70.2 -23,-11.4 -46,-22.8 -69,-34.2 4.6,5.4 12.1,10.8 5.6,16.2 -1.7,7.1 7.1,8 13.1,10.5 -11.6,6.1 -23.2,-1.5 -34.8,-18.6 9.1,10.3 18.2,20.7 27.3,31.1 -7.7,3 -15.3,-4.7 -23,-13.1 8.3,9.8 16.6,19.5 24.9,29.2 -3.1,2.1 -6.2,4.2 -9.3,6.2 l -21.8,5 c -2.7,-6.8 -5.4,-13.7 -8.1,-20.5 -11.5,-9.3 -20.7,-18.9 -22.4,-29.8 -16.5,-5 -34.5,-6.7 -49.7,-14.9 -19.8,-10.9 -34.4,-13 -49.7,-21.8 -22.7,-13 -16.3,-33.5 -27.4,-45.4 -27.8,-30.1 -35.2,-43.2 -34.1,-60.9 1.1,-19.7 10.9,-40.3 26.1,-58.4 13.3,-15.9 24.5,-31.9 27.9,-52.8 -2.2,-5.2 -5.4,-11.5 -7.6,-16.7 1.8,-6.1 -3.3,-17.1 9.3,-13.1 -0.6,-5.7 -7.7,-18 -10.6,-28.31" />
        <path style="fill:none;" d="m 159.8,203.5 c 10,0.9 17,-2.2 18.2,-13" />
        <path style="fill:#ccccff;" d="m 194.9,95.26 c 0,3.82 -3.1,6.94 -7.1,6.94 -3.9,0 -7.1,-3.12 -7.1,-6.94 0,-3.83 3.2,-6.92 7.1,-6.92 4,0 7.1,3.09 7.1,6.92 z" />
        <path style="fill:#0000bb;" d="m 172.5,138 c -4.9,13.1 -10.4,20.5 -29.5,29.2 -10.4,4.7 -10.4,16.4 -6.6,23.9 3.7,7.6 11.5,6.6 13.4,5.2 -1.7,-6 -1.8,-10.9 2.7,-17 5.3,-7 7.1,-7.1 10.7,-10.7 7.6,-7.5 9.9,-15.9 12.2,-24.7 -6.3,34.3 -30.5,26.5 -25.3,54.7 0.8,4.7 3.1,6.7 6.1,8.1 16.6,7.7 28.2,-4.9 28.3,-8.8 0.3,-28.6 2.6,-35.3 9.3,-40.4 -7.6,-2.4 -19.5,-14.6 -21.3,-19.5 z" />
        <path style="fill:#000080;" d="m 189.9,94.72 c 0,1.7 -1.5,3.08 -3.2,3.08 -1.8,0 -3.3,-1.38 -3.3,-3.08 0,-1.7 1.5,-3.08 3.3,-3.08 1.7,0 3.2,1.38 3.2,3.08 z" />
        <path style="fill:none;" d="m 331,378.6 -55.4,-22.4 m -122.6,-138 c -22.2,39.9 -17.7,48.9 -12.3,56.7 -1.3,-11.9 3.6,-25 13.2,-34.7 l 8.3,-22 c -14.4,45.3 -4.5,44.9 -1.3,56.3 -1.9,-37.1 8.9,-47.8 17.1,-59.8 -13.9,29.4 -5.6,39.3 0,46.6 -2.9,-20.8 1.4,-48.3 13.7,-53.6 m 21.5,36.4 c 4.2,10.6 10.1,21.3 -2.6,30.8 -15.9,9.5 -21.7,21.4 -17.6,35.6 16.6,46.2 94.1,53.2 141.5,79.6" />
        <path style="fill:#5959ff;" d="m 136.5,92.95 c 6,0.5 11.4,-0.43 15.7,1.34 13.7,5.59 21.7,16.51 28,26.81 -12.6,-0.1 -26.6,-3.4 -37.1,1.3 1.1,1 2.2,2.6 3.7,2.6 10.9,0.3 19.8,3.7 24,9.7 5.3,-1 11,-4.1 16.9,-9.2 -4.3,-7.9 -4.2,-1.5 -12.7,-23.8 1.5,-4.72 -0.1,-8.7 4.6,-14.24 l -2.7,-4.84 c 0.6,-2.75 -3.2,-4.06 -5.9,-5.71 -2.6,1.76 -5.5,3.31 -3.5,7.91 -9.5,-3.32 -26.2,-8.49 -31,8.13 z" />
    </g>
    <use id="shine" xlink:href="#shield" style="fill:url(#rg);stroke:#000000;stroke-width:3;" />
</svg>