<?xml version="1.0" encoding="UTF-8"?>
<svg xmlns="http://www.w3.org/2000/svg" xmlns:xlink="http://www.w3.org/1999/xlink" width="600" height="660">
  <defs>
    <radialGradient id="rg" gradientUnits="userSpaceOnUse" cx="220" cy="220" r="405">
      <stop style="stop-color:#fff;stop-opacity:.3" offset="0" />
      <stop style="stop-color:#fff;stop-opacity:.2" offset=".2" />
      <stop style="stop-color:#666;stop-opacity:.1" offset=".6" />
      <stop style="stop-color:#000;stop-opacity:.13" offset="1" />
    </radialGradient>
    <path id="shield" d="m 1.5,1.5 v 257.5 c 0,286 298.5,399 298.5,399 0,0 298.5,-113 298.5,-399 v -257.5 z" />
  </defs>
  <use xlink:href="#shield" style="fill:#0000cc;" />
  <g id="buckle" style="fill:#b5a642;stroke:#524b1e;stroke-width:1;stroke-linecap:round;stroke-linejoin:round;">
    <path d="m 277.4,349.3 c -44,8.9 -78.8,43.7 -87.7,87.7 h 25.6 c 8,-30.3 31.8,-54.1 62.1,-62.1 z" />
    <path d="m 410.2,437.1 c -8.9,-44 -43.7,-78.8 -87.7,-87.7 v 25.6 c 30.3,8 54.1,31.8 62.1,62.1 z" />
    <path d="m 189.7,482 c 8.9,44 43.7,78.8 87.7,87.7 v -25.6 c -30.3,-8 -54.1,-31.8 -62.1,-62.1 z" />
    <path d="m 322.4,569.7 c 44,-8.9 78.8,-43.7 87.7,-87.7 h -25.6 c -8,30.3 -31.8,54.1 -62.1,62.1 z" />
    <path d="m 319.9,364.1 a 20,20 0 0 1 -20,20 20,20 0 0 1 -20,-20 20,20 0 0 1 20,-20 20,20 0 0 1 20,20 z" />
    <path d="m 274.9,344.1 h 5 c 2.8,0 5,2.2 5,5 v 30 c 0,2.8 -2.2,5 -5,5 h -5 c -2.8,0 -5,-2.2 -5,-5 v -30 c 0,-2.8 2.2,-5 5,-5 z" />
    <path d="m 319.9,344.1 h 5 c 2.8,0 5,2.2 5,5 v 30 c 0,2.8 -2.2,5 -5,5 h -5 c -2.8,0 -5,-2.2 -5,-5 v -30 c 0,-2.8 2.2,-5 5,-5 z" />
    <path d="m 204.5,439.5 a 20,20 0 0 1 20,20 20,20 0 0 1 -20,20 20,20 0 0 1 -20,-20 20,20 0 0 1 20,-20 z" />
    <path d="m 184.5,484.5 v -5 c 0,-2.8 2.2,-5 5,-5 h 30 c 2.8,0 5,2.2 5,5 v 5 c 0,2.8 -2.2,5 -5,5 h -30 c -2.8,0 -5,-2.2 -5,-5 z" />
    <path d="m 184.5,439.5 v -5 c 0,-2.8 2.2,-5 5,-5 h 30 c 2.8,0 5,2.2 5,5 v 5 c 0,2.8 -2.2,5 -5,5 h -30 c -2.8,0 -5,-2.2 -5,-5 z" />
    <path d="m 279.9,554.9 a 20,20 0 0 1 20,-20 20,20 0 0 1 20,20 20,20 0 0 1 -20,20 20,20 0 0 1 -20,-20 z" />
    <path d="m 324.9,574.9 h -5 c -2.8,0 -5,-2.2 -5,-5 v -30 c 0,-2.8 2.2,-5 5,-5 h 5 c 2.8,0 5,2.2 5,5 v 30 c 0,2.8 -2.2,5 -5,5 z" />
    <path d="m 279.9,574.9 h -5 c -2.8,0 -5,-2.2 -5,-5 v -30 c 0,-2.8 2.2,-5 5,-5 h 5 c 2.8,0 5,2.2 5,5 v 30 c 0,2.8 -2.2,5 -5,5 z" />
    <path d="m 395.4,479.6 a 20,20 0 0 1 -20,-20 20,20 0 0 1 20,-20 20,20 0 0 1 20,20 20,20 0 0 1 -20,20 z" />
    <path d="m 415.4,434.6 v 5 c 0,2.8 -2.2,5 -5,5 h -30 c -2.8,0 -5,-2.2 -5,-5 v -5 c 0,-2.8 2.2,-5 5,-5 h 30 c 2.8,0 5,2.2 5,5 z" />
    <path d="m 415.4,479.6 v 5 c 0,2.8 -2.2,5 -5,5 h -30 c -2.8,0 -5,-2.2 -5,-5 v -5 c 0,-2.8 2.2,-5 5,-5 h 30 c 2.8,0 5,2.2 5,5 z" />
    <path d="m 415.4,434.6 v 5 c 0,2.8 -2.2,5 -5,5 h -30 c -2.8,0 -5,-2.2 -5,-5 v -5 c 0,-2.8 2.2,-5 5,-5 h 30 c 2.8,0 5,2.2 5,5 z" />
    <path d="m 411.1,444.6 c 12.9,1.8 21.9,6 21.9,14.9 0,8.9 -9,13.1 -21.9,14.9 -83.2,-5 -162.5,2.6 -244.5,-14.9 82,-17.5 161.3,-9.9 244.5,-14.9 z"/>
  </g>
  <use xlink:href="#buckle" transform="translate(145,-276)" />
  <use xlink:href="#buckle" transform="translate(-145,-276)" />
  <use id="shine" xlink:href="#shield" style="fill:url(#rg);stroke:#000000;stroke-width:3;" />
</svg>